/* XPM */
static char *_ee57336db444bf6e2b1c6c72b0a8d54QwDfk5oCVeLh172U_0[] = {
/* columns rows colors chars-per-pixel */
"64 64 126 2 ",
"   c None",
".  c black",
"X  c #0A0707",
"o  c #00030B",
"O  c #190001",
"+  c #160F06",
"@  c #001F03",
"#  c #000219",
"$  c #110519",
"%  c #00171C",
"&  c #340001",
"*  c #3C0101",
"=  c #2C041B",
"-  c #3C3200",
";  c #010126",
":  c #00033B",
">  c #002A21",
",  c #062F39",
"<  c #262727",
"1  c #3C3732",
"2  c #420001",
"3  c #4B0004",
"4  c #540001",
"5  c #5B010C",
"6  c #441403",
"7  c #47001C",
"8  c #441110",
"9  c #640102",
"0  c #6C0103",
"q  c #6B010C",
"w  c #7C0103",
"e  c #700E06",
"r  c #74000C",
"t  c #422817",
"y  c #712306",
"u  c #663A0F",
"i  c #7A3E0D",
"p  c #57002A",
"a  c #402829",
"s  c #5B2823",
"d  c #5B3D31",
"f  c #712428",
"g  c #734331",
"h  c #180C41",
"j  c #000451",
"k  c #22105A",
"l  c #06374E",
"z  c #2D3F45",
"x  c #434244",
"c  c #594A49",
"v  c #575357",
"b  c #5C5F5C",
"n  c #744B4E",
"m  c #736461",
"M  c #75736E",
"N  c #8B0101",
"B  c #85020E",
"V  c #980C01",
"C  c #96020D",
"Z  c #871614",
"A  c #A40101",
"S  c #B40401",
"D  c #BB0518",
"F  c #9E3F1E",
"G  c #A03C03",
"H  c #87272A",
"J  c #C41F01",
"K  c #D32F01",
"L  c #CB3604",
"P  c #DE3601",
"I  c #D83624",
"U  c #834101",
"Y  c #86441F",
"T  c #A75901",
"R  c #956002",
"E  c #8C7E02",
"W  c #8E5822",
"Q  c #A45F20",
"!  c #9B7937",
"~  c #A1633F",
"^  c #C15B06",
"/  c #D75204",
"(  c #DF6707",
")  c #E47A07",
"_  c #C15B23",
"`  c #DC5826",
"'  c #C17A3A",
"]  c #894340",
"[  c #895D41",
"{  c #B17D5C",
"}  c #956964",
"|  c #8F7967",
" . c #A87F73",
".. c #BE8009",
"X. c #C39E0F",
"o. c #EB9A07",
"O. c #C9B104",
"+. c #E0BF05",
"@. c #FBB50A",
"#. c #DE9A2E",
"$. c #E6B42B",
"%. c #FACB07",
"&. c #FEF700",
"*. c #EFC93D",
"=. c #BA8578",
"-. c #D3825A",
";. c #D89F6A",
":. c #D5AC6A",
">. c #F4B163",
",. c #FDF07A",
"<. c #756A85",
"1. c #818183",
"2. c #908687",
"3. c #999898",
"4. c #A7A9AD",
"5. c #BCB1B2",
"6. c #D89E87",
"7. c #D7B288",
"8. c #F5B580",
"9. c #DBB5A9",
"0. c #F4D189",
"q. c #F2C7A4",
"w. c #FBE3AA",
"e. c #B3B7C4",
"r. c #CCCCCD",
"t. c #F0E7E4",
/* pixels */
"                                                                                                                                ",
"                                                                                                                                ",
"                                                                                                                                ",
"                                                                                                                                ",
"                                                                                                                                ",
"                                                                                                                                ",
"                                                                                                                                ",
"                                                                                                                                ",
"                                                                                                                                ",
"                                                                                                                                ",
"                                                                                                                                ",
"                                                                                                                                ",
"                                                                                                                                ",
"                                                                                                                                ",
"                                                                                                                                ",
"                                                                                                                                ",
"                                                                                                                                ",
"                                                                                                                                ",
"                                                                                                                                ",
"                                                                                                                                ",
"                                                                                                                                ",
"                                                                                                                                ",
"                                                                                                                                ",
"                                                                                                                                ",
"                                                                =.{  .} N                                                       ",
"                                                            G  .7.,.*.*.T F                                                     ",
"                                                            G 7.0.&.+.O...^ Q                                                   ",
"                                                    o + o 6 F R M | 3.4.<.{ G                                                   ",
"                                                  X .   o + o j h : 4.t.e.<.9                                                   ",
"                                                . X     X + . Q X.5.<.' n j                                                     ",
"                                                  X X X X & . Q #.w.q.w.6..                                                     ",
"                                                X X .         . e >.0.;.Q                                                       ",
"                                                X           . + , g { ~ .                                                       ",
"                                                .         . < v c . z z <                                                       ",
"                                                        < 1 x z l z z x x <                                                     ",
"                                                      . x v x * E ! ] a a z                                                     ",
"                                                      < x a # G %.%.#.p H > O                                                   ",
"                                                      x b 1 . _ @.&.$.f A < .                                                   ",
"                                                    < x d 1 . 9 ( @.$.[ 0 x x .                                                 ",
"                                                    # -.{ .   # 7 s 1 d 6 1 z i g                                               ",
"                                                    9 0.0.U   2 o.@./ / / H % _ 8.m                                             ",
"                                                    Q 0.>.W   b 6.$.o._ G ( y ' {                                               ",
"                                                    g U i   . 1.r.5.] 3 Y / _ .                                                 ",
"                                                            - :.9.2.. > V L ` Z                                                 ",
"                                                          . Q @./ B     4 S ( G                                                 ",
"                                                          i @.I D 6       C J / 5                                               ",
"                                                        y @.o.S y         C P K &                                               ",
"                                                        u ) / N @         q w r =                                               ",
"                                                        % ; 6 o           . % %                                                 ",
"                                                      ; : , o             h k h h u                                             ",
"                                                    u ~  .n .             $ h j x Q 8                                           ",
"                                                    t Y [ u                                                                     ",
"                                                                                                                                ",
"                                                                                                                                ",
"                                                                                                                                ",
"                                                                                                                                ",
"                                                                                                                                ",
"                                                                                                                                ",
"                                                                                                                                ",
"                                                                                                                                ",
"                                                                                                                                ",
"                                                                                                                                ",
"                                                                                                                                ",
"                                                                                                                                "
};
