/* XPM */
static char *_ee57336db444bf6e2b1c6c72b0a8d54QwDfk5oCVeLh172U_1[] = {
/* columns rows colors chars-per-pixel */
"64 64 121 2 ",
"   c None",
".  c black",
"X  c #0A0707",
"o  c #00030B",
"O  c #190001",
"+  c #160F06",
"@  c #001F03",
"#  c #000219",
"$  c #110519",
"%  c #00171C",
"&  c #161617",
"*  c #340001",
"=  c #231805",
"-  c #2C041B",
";  c #291819",
":  c #010126",
">  c #00033B",
",  c #002A21",
"<  c #062F39",
"1  c #262727",
"2  c #3C3732",
"3  c #43000C",
"4  c #5C0202",
"5  c #5B010C",
"6  c #441403",
"7  c #441110",
"8  c #5C151C",
"9  c #6C0103",
"0  c #740002",
"q  c #7C0103",
"w  c #700E06",
"e  c #74000C",
"r  c #7B010B",
"t  c #730113",
"y  c #422817",
"u  c #663A0F",
"i  c #7A3E0D",
"p  c #57002A",
"a  c #40093E",
"s  c #5B2823",
"d  c #5B3D31",
"f  c #734331",
"g  c #180C41",
"h  c #000451",
"j  c #22105A",
"k  c #2D3F45",
"l  c #364C5D",
"z  c #434244",
"x  c #594A49",
"c  c #49545A",
"v  c #575357",
"b  c #5C5F5C",
"n  c #744B4E",
"m  c #5D6770",
"M  c #736461",
"N  c #820001",
"B  c #8B0101",
"V  c #85020E",
"C  c #980101",
"Z  c #96020D",
"A  c #891D05",
"S  c #97170E",
"D  c #B40401",
"F  c #BC0201",
"G  c #98291B",
"H  c #9E3F1E",
"J  c #A03C03",
"K  c #D32F01",
"L  c #CB3604",
"P  c #DE3601",
"I  c #834101",
"U  c #86441F",
"Y  c #A75901",
"T  c #956002",
"R  c #8C7E02",
"E  c #8E5822",
"W  c #A45F20",
"Q  c #9B7937",
"!  c #A1633F",
"~  c #D75204",
"^  c #DF6707",
"/  c #F26005",
"(  c #E47A07",
")  c #C15B23",
"_  c #DC5826",
"`  c #DE7B25",
"'  c #C17A3A",
"]  c #895D41",
"[  c #BE4F43",
"{  c #B17D5C",
"}  c #956964",
"|  c #A87F73",
" . c #BE8009",
".. c #BF962E",
"X. c #EB9A07",
"o. c #C9B104",
"O. c #E0BF05",
"+. c #FBB50A",
"@. c #DE9A2E",
"#. c #E6B42B",
"$. c #FACB07",
"%. c #FEF700",
"&. c #FBE739",
"*. c #D3825A",
"=. c #D89F6A",
"-. c #F89877",
";. c #F4B163",
":. c #F1D45F",
">. c #908687",
",. c #999898",
"<. c #B69C96",
"1. c #A7A9AD",
"2. c #BCB1B2",
"3. c #D89E87",
"4. c #D7B288",
"5. c #F5B580",
"6. c #F4D189",
"7. c #F2C8B8",
"8. c #FBE3AA",
"9. c #B3B7C4",
"0. c #CCCCCD",
/* pixels */
"                                                                                                                                ",
"                                                                                                                                ",
"                                                                                                                                ",
"                                                                                                                                ",
"                                                                                                                                ",
"                                                                                                                                ",
"                                                                                                                                ",
"                                                                                                                                ",
"                                                                                                                                ",
"                                                                                                                                ",
"                                                                                                                                ",
"                                                                                                                                ",
"                                                                                                                                ",
"                                                                                                                                ",
"                                                                                                                                ",
"                                                                                                                                ",
"                                                                                                                                ",
"                                                                                                                                ",
"                                                                                                                                ",
"                                                                                                                                ",
"                                                                                                                                ",
"                                                                                                                                ",
"                                                                                                                                ",
"                                                                                                                                ",
"                                                                ) ..0 }                                                         ",
"                                                               .{ 8. .4.G                                                       ",
"                                                  X X o     B 4.4.&.%.$. .Y Y                                                   ",
"                                                X X   o +   J ..:.O.o.R T  .Y                                                   ",
"                                                        + . f v h h 1.0.9.>.N                                                   ",
"                                                . . o X . + . d Q v >.2.,.l                                                     ",
"                                              X X .   X X = . ' #.7.<.;.| .                                                     ",
"                                              X               u [ 6.8.6.*..                                                     ",
"                                                                . { =.' I                                                       ",
"                                                            & 2 z O M M .                                                       ",
"                                                          . z v x 2 z z z 1                                                     ",
"                                                        2 z z % < k ; 2 z 2                                                     ",
"                                                      & z x , q X.O...8 s 1                                                     ",
"                                                      2 b 2 . ) $.%.@.p S , O                                                   ",
"                                                    ; z c 2 . W X.$.$.] C z 1                                                   ",
"                                                    < ] f :   # Z  .#.b O 2 z y                                                 ",
"                                                    . 5.4..   . T W t H J d < T { b                                             ",
"                                                    U 8.6.W   8 X.$.X.~ ~ _ 4 ' 5.b                                             ",
"                                                    E =.' f   m 2.3.` S i ~ J d ]                                               ",
"                                                            % 2.0.1.a . V ~ / A                                                 ",
"                                                          . H +.-.! .   X G / L #                                               ",
"                                                          i X.( F 9       r F K 5                                               ",
"                                                        9 +.X.D s         Z P K *                                               ",
"                                                        3 ^ ~ V @         w q e -                                               ",
"                                                        % & 6 o           . % %                                                 ",
"                                                      : > < o             g j g g u                                             ",
"                                                    u ! | n .             $ g h z W 7                                           ",
"                                                    y U ] u                                                                     ",
"                                                                                                                                ",
"                                                                                                                                ",
"                                                                                                                                ",
"                                                                                                                                ",
"                                                                                                                                ",
"                                                                                                                                ",
"                                                                                                                                ",
"                                                                                                                                ",
"                                                                                                                                ",
"                                                                                                                                ",
"                                                                                                                                ",
"                                                                                                                                "
};
