/* XPM */
static char *_ee57336db444bf6e2b1c6c72b0a8d54QwDfk5oCVeLh172U_10[] = {
/* columns rows colors chars-per-pixel */
"64 64 131 2 ",
"   c None",
".  c #00030B",
"X  c #3C0101",
"o  c #010126",
"O  c #00033B",
"+  c #002A21",
"@  c #062F39",
"#  c #540001",
"$  c #7C0103",
"%  c #7C0F06",
"&  c #640114",
"*  c #7A0212",
"=  c #741715",
"-  c #663A0F",
";  c #402829",
":  c #5B2823",
">  c #5B3D31",
",  c #712428",
"<  c #734331",
"1  c #22105A",
"2  c #06374E",
"3  c #2D3F45",
"4  c #06575A",
"5  c #364C5D",
"6  c #434244",
"7  c #594A49",
"8  c #49545A",
"9  c #575357",
"0  c #5C5F5C",
"q  c #744B4E",
"w  c #736461",
"e  c #820001",
"r  c #85020E",
"t  c #980101",
"y  c #970C0D",
"u  c #891D05",
"i  c #97170E",
"p  c #871614",
"a  c #A40101",
"s  c #AB0101",
"d  c #BC0201",
"f  c #A6180F",
"g  c #BB0518",
"h  c #B91E11",
"j  c #9E3F1E",
"k  c #A03C03",
"l  c #B83106",
"z  c #A8281E",
"x  c #B93826",
"c  c #A23E3E",
"v  c #D80102",
"b  c #C41F01",
"n  c #D9031C",
"m  c #C71A18",
"M  c #DD1E1B",
"N  c #EF0501",
"B  c red",
"V  c #FF1D05",
"C  c #EE0318",
"Z  c #FF011B",
"A  c #F00D1B",
"S  c #D32F01",
"D  c #CB3604",
"F  c #DE3601",
"G  c #EF211C",
"H  c #FF0D21",
"J  c #FF1222",
"K  c #FF1D23",
"L  c #FF0030",
"P  c #D83624",
"I  c #FF212C",
"U  c #FE2B2C",
"Y  c #FD3731",
"T  c #834101",
"R  c #86441F",
"E  c #A75901",
"W  c #956002",
"Q  c #8C7E02",
"!  c #8E5822",
"~  c #A45F20",
"^  c #9B7937",
"/  c #A1633F",
"(  c #C15B06",
")  c #DF6707",
"_  c #F26005",
"`  c #E47A07",
"'  c #C15B23",
"]  c #DC5826",
"[  c #FE4537",
"{  c #FD553A",
"}  c #DE7B25",
"|  c #894340",
" . c #895D41",
".. c #B17D5C",
"X. c #956964",
"o. c #D85842",
"O. c #FD514A",
"+. c #CE655B",
"@. c #FC6249",
"#. c #FE6658",
"$. c #FC795D",
"%. c #BE8009",
"&. c #BF962E",
"*. c #FB8004",
"=. c #EB9A07",
"-. c #E0BF05",
";. c #FBB50A",
":. c #DE9A2E",
">. c #E6B42B",
",. c #FACB07",
"<. c #EFC93D",
"1. c #FBE739",
"2. c #BA8578",
"3. c #BE9C73",
"4. c #D89F6A",
"5. c #F7826E",
"6. c #F4B163",
"7. c #F1D45F",
"8. c #FDF07A",
"9. c #818183",
"0. c #908687",
"q. c #B69C96",
"w. c #FB8380",
"e. c #D7B288",
"r. c #FDA287",
"t. c #F5B580",
"y. c #DBB5A9",
"u. c #F4D189",
"i. c #F2C7A4",
"p. c #FBE3AA",
"a. c #B3B7C4",
/* pixels */
"                                                                                                                                ",
"                                                                                                                                ",
"                                                                                                                                ",
"                                                                                                                                ",
"                                                                                                                                ",
"                                                                                                                                ",
"                                                                                                                                ",
"                                                                                                                                ",
"                                                                                                                                ",
"                                                                                                                                ",
"                                                                                                                                ",
"                                                                                                                                ",
"                                                                                                                                ",
"                                                                                                                                ",
"                                                                                                                                ",
"                                                                                                                                ",
"                                                                                                                                ",
"                                                                                                                                ",
"                                                                                                                                ",
"                                                                                                                                ",
"                                                                                                                                ",
"                                                        H         J                                                             ",
"                                                  J J J J J J H H J J                                                           ",
"                                                  J J J J J J J   H H J                                                         ",
"                                                  J H H J   J       J H   H J                                                   ",
"                                                  J             K B Z J H J J H           J J H                                 ",
"                                                  J         H K B @.O.Z I     J J       J J J J                                 ",
"                                                J         H K K Z O.[ Z I H J   J     H J   H J                                 ",
"                                                J       K K B Y $.B Z J     H U K     J J   K J                                 ",
"                                                J     Z Z Z O.K Z K J H     K B B Z   J H   Z Z                                 ",
"                                                J J   K { Z #.@.K H J J   K B 5.@.Y       Z $.Y                                 ",
"                                              J J J H H $.U B $.O.Z J     I B $.$.[       B Y I                                 ",
"                                              H J H J U B Z I B Z K J J J   J B B Z       $.U B                                 ",
"                                              J J Z U r.U           J J H   H K K J     H 5.[ Z                                 ",
"                                              J J H J O.J Z       J H         H   J H   Z B Z J H                               ",
"                                              J   J H B H J J   J J J J           H U   $.5.B I J                               ",
"                                                  J J K J J J H H J J J           J K B [ @.B K H                               ",
"                                                  J J   J J K   J J J J H       J H H K B B I   J                               ",
"                                                  J       J Z H J H H J H J J J A n J v o.#.                                    ",
"                                                          Z Y I Z J J J K J Z Z J y H A x O.                                    ",
"                                                        U B w.O.B K J Z C M P P N d M J n Z                                     ",
"                                                        J B @.$.Z K C D ( ` ` ' | ; r G i K L                                   ",
"                                                        K Z U { Z g ~ *.*.' q 9 8 q ! X W %.F H                                 ",
"                                                  H I   #.5.B Z m & / *.' 5 0 0 / -.~ E 6.p.4.F                                 ",
"                                                  H J H K K K C z ( < _ < 3 0 7 :.-.Q <.i.8.7.) L                               ",
"                                                      J H Z Z M -.=.* , , 8 0 8 w W E 6.p.1.;.:.Y                               ",
"                                                      J Z S n k 8.} s : 6 0 7 > ; . &.;.4.6.,.>.M                               ",
"                                                      Z P ' l w a.+.t @ 9 + e d t - >.i.>.,.>.:.]                               ",
"                                                      M - P a q.p.9.c = 4 0 : s d p T u.u.,.R k l                               ",
"                                                    V f 2 $ a =.,.h u M < 4.4.j c t n %.) 4.t.4./  .                            ",
"                                                    % 1 X.^ 2./ D s b f y.e.3.y.0.s P   v q.2...q.0.                            ",
"                                                    . o <  .0.O # :   h +.+.o.+.v m                                             ",
"                                                                                                                                ",
"                                                                                                                                ",
"                                                                                                                                ",
"                                                                                                                                ",
"                                                                                                                                ",
"                                                                                                                                ",
"                                                                                                                                ",
"                                                                                                                                ",
"                                                                                                                                ",
"                                                                                                                                ",
"                                                                                                                                ",
"                                                                                                                                "
};
