/* XPM */
static char *_ee57336db444bf6e2b1c6c72b0a8d54QwDfk5oCVeLh172U_11[] = {
/* columns rows colors chars-per-pixel */
"64 64 137 2 ",
"   c None",
".  c black",
"X  c #00171C",
"o  c #161617",
"O  c #3C3200",
"+  c #00033B",
"@  c #002A21",
"#  c #062F39",
"$  c #3C3732",
"%  c #5C0202",
"&  c #5C0115",
"*  c #43141C",
"=  c #640102",
"-  c #6C0103",
";  c #740002",
":  c #741715",
">  c #57002A",
",  c #5B2823",
"<  c #5B3D31",
"1  c #712428",
"2  c #734331",
"3  c #000451",
"4  c #2D3F45",
"5  c #06575A",
"6  c #364C5D",
"7  c #434244",
"8  c #594A49",
"9  c #49545A",
"0  c #575357",
"q  c #5C5F5C",
"w  c #744B4E",
"e  c #736461",
"r  c #75736E",
"t  c #8B0101",
"y  c #880F03",
"u  c #85020E",
"i  c #980101",
"p  c #9C1802",
"a  c #871614",
"s  c #A40101",
"d  c #AB0101",
"f  c #A60C03",
"g  c #B40401",
"h  c #BC0201",
"j  c #BB0518",
"k  c #B91E11",
"l  c #98291B",
"z  c #9E3F1E",
"x  c #B83106",
"c  c #A8281E",
"v  c #87272A",
"b  c #B93826",
"n  c #A23E3E",
"m  c #D80102",
"M  c #C41F01",
"N  c #D9031C",
"B  c #C71A18",
"V  c #DD1E1B",
"C  c #EF0501",
"Z  c red",
"A  c #EE0318",
"S  c #FF011B",
"D  c #F00D1B",
"F  c #C92A02",
"G  c #CB3604",
"H  c #EF3A02",
"J  c #EF211C",
"K  c #FF0D21",
"L  c #FF1222",
"P  c #FF1D23",
"I  c #D83624",
"U  c #FF212C",
"Y  c #FE2B2C",
"T  c #FD3731",
"R  c #834101",
"E  c #A75901",
"W  c #8E5822",
"Q  c #A45F20",
"!  c #9B7937",
"~  c #A1633F",
"^  c #C15B06",
"/  c #D75204",
"(  c #F26005",
")  c #E47A07",
"_  c #C15B23",
"`  c #DC5826",
"'  c #FE4537",
"]  c #DE7B25",
"[  c #C17A3A",
"{  c #895D41",
"}  c #BE4F43",
"|  c #B17D5C",
" . c #956964",
".. c #8F7967",
"X. c #A87F73",
"o. c #FE4145",
"O. c #FD514A",
"+. c #CE655B",
"@. c #FC6249",
"#. c #FE6658",
"$. c #FC795D",
"%. c #BE8009",
"&. c #BF962E",
"*. c #C39E0F",
"=. c #FB8004",
"-. c #EB9A07",
";. c #C9B104",
":. c #E0BF05",
">. c #FBB50A",
",. c #DE9A2E",
"<. c #E6B42B",
"1. c #FACB07",
"2. c #EFC93D",
"3. c #BA8578",
"4. c #BE9C73",
"5. c #D89F6A",
"6. c #DB8277",
"7. c #F7826E",
"8. c #F89877",
"9. c #F4B163",
"0. c #FDF07A",
"q. c #908687",
"w. c #999898",
"e. c #B69C96",
"r. c #BCB1B2",
"t. c #D89E87",
"y. c #FB8380",
"u. c #D7B288",
"i. c #FDA287",
"p. c #F3B091",
"a. c #F2C7A4",
"s. c #F2C8B8",
"d. c #FBE3AA",
"f. c #B3B7C4",
"g. c #CCCCCD",
"h. c #F7E0D4",
"j. c white",
/* pixels */
"                                                                                                                                ",
"                                                                                                                                ",
"                                                                                                                                ",
"                                                                                                                                ",
"                                                                                                                                ",
"                                                                                                                                ",
"                                                                                                                                ",
"                                                                                                                                ",
"                                                                                                                                ",
"                                                                                                                                ",
"                                                                                                                                ",
"                                                                                                                                ",
"                                                                                                                                ",
"                                                                                                                                ",
"                                                                                                                                ",
"                                                                                                                                ",
"                                                                                                                                ",
"                                                                                                                                ",
"                                                                                                                                ",
"                                                                                                                                ",
"                                                                                                                                ",
"                                                                                                                                ",
"                                                                                                                                ",
"                                                                                                                                ",
"                                                                                                                                ",
"                                                          Z Z Z Z P                                                             ",
"                                                      Z O.O.$.8.U S S     K L             K                                     ",
"                                                    P S o.T #.8.Z 7.#.Z   K K K         L L K                                   ",
"                                                    K L Z Z S Z ' @.' S P L K L         L   P L                                 ",
"                                                    L K     S S @.T Z P P   @.@.Z     L K   Z S                                 ",
"                                                    L     Z $.T Z K P K L   P @.T           7.O.                                ",
"                                                          S T ' U L K L   P Z @.T         Z $.O.                                ",
"                                                  L K   T P Z #.T Z P   K L Z $.O.Z       L Z                                   ",
"                                                  L S Z $.P L S S     L K T Z 8.i.Z T     K P                                   ",
"                                                  S U #.S S L P       L L   S S O.S L   Z 8.' S                                 ",
"                                                L S U 7.U S L         L     Z ' #.Z L U y.O.Z $.O.                              ",
"                                                L L L Z   L L   K L L K     N P P K K Z i.7.Y L P                               ",
"                                                K L L L       L L L L K P F N M B P Y S U $.@.  P                               ",
"                                                L L L L L K U L K L L L L P f B k k G I / ^ Z L K                               ",
"                                                L L L L K L Z S L K   L S S A y m Q &.<.1.*.` I L                               ",
"                                              K L L L K P Z #.' S P S B G E < 7 . 4.d.-.,.2.<.V L                               ",
"                                                K L L K P S O.' S D z ) ] { 6 e W &.d.5.p.d.:.J H                               ",
"                                                L   K L P S ' @.C & ~ =.] 6 q 8 [ R :.h.a.j.>._ E                               ",
"                                                        L P L S s x { =.2 4 q 9 2 { 0 d.0.s.>.%.                                ",
"                                                    P   #.#.Z N _ ) * z ; 4 q q { Q 3 ! -.-.;.B                                 ",
"                                                    L   L S A h 1.>.j , $ q 9 # 7 [ 1 5 f.r.5 m                                 ",
"                                                  K L S J ^ ^ v a.9.g o 0 9 v t u x | 3.e.q.V P                                 ",
"                                                  K P A ^ ( g e g.e.l @ q X % k c g ~ z - @ j Z   o.                            ",
"                                                  K L k $ x s ] 0. .a k 7 X...= d k C   b < X.} F #.Z                           ",
"                                                  L K > 6 2 n / ) h p J | 5.5.4...i B   C t.p.u.e.6.C                           ",
"                                                  L V +  .| w.w i :   I t.4.| t.+.-     m r < O 3. .m                           ",
"                                                                                                                                ",
"                                                                                                                                ",
"                                                                                                                                ",
"                                                                                                                                ",
"                                                                                                                                ",
"                                                                                                                                ",
"                                                                                                                                ",
"                                                                                                                                ",
"                                                                                                                                ",
"                                                                                                                                ",
"                                                                                                                                ",
"                                                                                                                                ",
"                                                                                                                                "
};
