/* XPM */
static char *_ee57336db444bf6e2b1c6c72b0a8d54QwDfk5oCVeLh172U_13[] = {
/* columns rows colors chars-per-pixel */
"64 64 130 2 ",
"   c None",
".  c #00030B",
"X  c #290001",
"o  c #340001",
"O  c #3C3200",
"+  c #010126",
"@  c #3C3732",
"#  c #420001",
"$  c #4B0004",
"%  c #441110",
"&  c #5C151C",
"*  c #640102",
"=  c #7C0103",
"-  c #7C0F06",
";  c #741715",
":  c #5B2823",
">  c #5B3D31",
",  c #734331",
"<  c #06374E",
"1  c #2D3F45",
"2  c #364C5D",
"3  c #434244",
"4  c #594A49",
"5  c #49545A",
"6  c #575357",
"7  c #5C5F5C",
"8  c #744B4E",
"9  c #5D6770",
"0  c #736461",
"q  c #75736E",
"w  c #820001",
"e  c #980101",
"r  c #96020D",
"t  c #891D05",
"y  c #9C1802",
"u  c #97170E",
"i  c #871614",
"p  c #A40101",
"a  c #B40401",
"s  c #BC0201",
"d  c #A6180F",
"f  c #B71E01",
"g  c #BB0518",
"h  c #B91E11",
"j  c #992503",
"k  c #98291B",
"l  c #9E3F1E",
"z  c #A03C03",
"x  c #B83106",
"c  c #87272A",
"v  c #B93826",
"b  c #A23E3E",
"n  c #D80102",
"m  c #D9031C",
"M  c #C71A18",
"N  c #DD1E1B",
"B  c #EF0501",
"V  c red",
"C  c #EE0318",
"Z  c #FF011B",
"A  c #F00D1B",
"S  c #D32F01",
"D  c #CB3604",
"F  c #EF211C",
"G  c #FF0D21",
"H  c #FF1222",
"J  c #FF1D23",
"K  c #D83624",
"L  c #FF212C",
"P  c #FE2B2C",
"I  c #FD3731",
"U  c #86441F",
"Y  c #8E5822",
"T  c #A45F20",
"R  c #A1633F",
"E  c #C15B06",
"W  c #D75204",
"Q  c #E47A07",
"!  c #C15B23",
"~  c #DC5826",
"^  c #FE4537",
"/  c #FD553A",
"(  c #DE7B25",
")  c #C17A3A",
"_  c #894340",
"`  c #895D41",
"'  c #A05656",
"]  c #B17D5C",
"[  c #956964",
"{  c #A87F73",
"}  c #D85842",
"|  c #FD514A",
" . c #CE655B",
".. c #FC6249",
"X. c #EE7746",
"o. c #FE6658",
"O. c #FC795D",
"+. c #BE8009",
"@. c #BF962E",
"#. c #FB8004",
"$. c #C9B104",
"%. c #DE9A2E",
"&. c #E6B42B",
"*. c #FEF700",
"=. c #EFC93D",
"-. c #BA8578",
";. c #BE9C73",
":. c #D3825A",
">. c #D89F6A",
",. c #DB8277",
"<. c #F7826E",
"1. c #F89877",
"2. c #F4B163",
"3. c #818183",
"4. c #999898",
"5. c #B69C96",
"6. c #A7A9AD",
"7. c #D89E87",
"8. c #D7B288",
"9. c #FDA287",
"0. c #F3B091",
"q. c #DBB5A9",
"w. c #F4D189",
"e. c #D2C5B9",
"r. c #F2C7A4",
"t. c #FBE3AA",
"y. c #B3B7C4",
"u. c #F7E0D4",
"i. c #F0E7E4",
"p. c white",
/* pixels */
"                                                                                                                                ",
"                                                                                                                                ",
"                                                                                                                                ",
"                                                                                                                                ",
"                                                                                                                                ",
"                                                                                                                                ",
"                                                                                                                                ",
"                                                                                                                                ",
"                                                                                                                                ",
"                                                                                                                                ",
"                                                                                                                                ",
"                                                                                                                                ",
"                                                                                                                                ",
"                                                                                                                                ",
"                                                                                                                                ",
"                                                                                                                                ",
"                                                                                                                                ",
"                                                                                                                                ",
"                                                                                                                                ",
"                                                                                                                                ",
"                                                                                                                                ",
"                                                                                                                                ",
"                                                                                                                                ",
"                                                                                                                                ",
"                                                                                                                                ",
"                                                                                                                                ",
"                                                                                                                                ",
"                                                                                                                                ",
"                                                                                                                                ",
"                                                                                            J                                   ",
"                                                                          H Z               Z                                   ",
"                                                                          Z P ..          o.o.                                  ",
"                                                                      G J   / ..          L I                                   ",
"                                                                      H P   9.O.          P V                                   ",
"                                                    V V J H G         A P V O.<.V I J   ..O.V                                   ",
"                                              V V Z ..O.Z H         G G m h V ..^ Z L J V V                                     ",
"                                          Z P 1.o.V <.<.V P       H N m F d m ..I Z V Z 0.<.                                    ",
"                                      G J Z I 1.o.Z Z V   H       F M M x M k n  .! } W <.o.V V                                 ",
"                                      L Z O.P V Z G               J J H g $ ; b 8.e.e.w.E S ..O.                                ",
"                                    H V P ..J Z L                 H m z ! U o 8.r.p.p.u.&.+.} O.                                ",
"                                    L ..| 0.I Z               J C d E #.( 2 ` &.t.t.p.*.=.%.~ V                                 ",
"                                    H / V P Z             I I C +.> Q #., 9 4 > 6 ] 8.$.@.` K   H                               ",
"                                    H V <.| ..I     V O.<./ o.a $., v D 4 6 % Y 8 + 3.i.y.0 B   H G                             ",
"                                    L V 0.<.I I Z J V 9.<.V B >.=.p > U 1 6 1 Y ) R q.{ { _ B                                   ",
"                                      H V V ^ ..P <.Z Z V O.f 6.q.b i @ 3 0 3 1 ) :.0.2.! n L                                   ",
"                                          H J J H L Z Z C K - r.e.6 n c 5 5 i e # T r.7.7 n J     J                             ",
"                                                G   G F ! D z *.%.r n 2 4 : y s u w  ., < l J                                   ",
"                                                  H G K ! n a @.z m H 4 3 * = M e v Z a 1 3 B V O.O.                            ",
"                                                  H Z a o j j m C   J e 7 ;.t = .  .| Z e 0 -.s X...                            ",
"                                                  G } 2 2 & B P J   V } ;.8.>.3.6 U K V  .q.1.8.{ | V                           ",
"                                                  n [ { 4.h J       V ,.5. .-.,.l O l V ' q X [ { b                             ",
"                                                                                                                                ",
"                                                                                                                                ",
"                                                                                                                                ",
"                                                                                                                                ",
"                                                                                                                                ",
"                                                                                                                                ",
"                                                                                                                                ",
"                                                                                                                                ",
"                                                                                                                                ",
"                                                                                                                                ",
"                                                                                                                                ",
"                                                                                                                                ",
"                                                                                                                                "
};
