/* XPM */
static char *_ee57336db444bf6e2b1c6c72b0a8d54QwDfk5oCVeLh172U_14[] = {
/* columns rows colors chars-per-pixel */
"64 64 136 2 ",
"   c None",
".  c #290001",
"X  c #2C041B",
"o  c #3C3200",
"O  c #010126",
"+  c #00033B",
"@  c #262727",
"#  c #3C3732",
"$  c #5C151C",
"%  c #7A3E0D",
"&  c #40093E",
"*  c #402829",
"=  c #5B2823",
"-  c #5B3D31",
";  c #712428",
":  c #734331",
">  c #000451",
",  c #06374E",
"<  c #2D3F45",
"1  c #06575A",
"2  c #364C5D",
"3  c #434244",
"4  c #575357",
"5  c #5C5F5C",
"6  c #744B4E",
"7  c #736461",
"8  c #75736E",
"9  c #820001",
"0  c #8B0101",
"q  c #880F03",
"w  c #980101",
"e  c #96020D",
"r  c #891D05",
"t  c #A40101",
"y  c #AB0101",
"u  c #A60C03",
"i  c #B40401",
"p  c #BC0201",
"a  c #A81401",
"s  c #BB0518",
"d  c #B91E11",
"f  c #992503",
"g  c #9E3F1E",
"h  c #A62502",
"j  c #B83106",
"k  c #A8281E",
"l  c #AC0037",
"z  c #B93826",
"x  c #A23E3E",
"c  c #D80102",
"v  c #D9031C",
"b  c #C71A18",
"n  c #DD1E1B",
"m  c #EF0501",
"M  c red",
"N  c #FF1D05",
"B  c #EE0318",
"V  c #FF011B",
"C  c #F00D1B",
"Z  c #CD2300",
"A  c #C92A02",
"S  c #CB3604",
"D  c #DE3601",
"F  c #EF3A02",
"G  c #EF211C",
"H  c #FF0D21",
"J  c #FF1222",
"K  c #FF1D23",
"L  c #FF0030",
"P  c #D83624",
"I  c #FF212C",
"U  c #FE2B2C",
"Y  c #FD3731",
"T  c #86441F",
"R  c #956002",
"E  c #A45F20",
"W  c #A1633F",
"Q  c #C15B06",
"!  c #D75204",
"~  c #E47A07",
"^  c #C15B23",
"/  c #FE4537",
"(  c #FD553A",
")  c #C17A3A",
"_  c #895D41",
"`  c #BE4F43",
"'  c #A05656",
"]  c #B17D5C",
"[  c #956964",
"{  c #A87F73",
"}  c #D85842",
"|  c #FE4145",
" . c #FD514A",
".. c #CE655B",
"X. c #FC6249",
"o. c #FE6658",
"O. c #E6765B",
"+. c #FC795D",
"@. c #BE8009",
"#. c #BF962E",
"$. c #C39E0F",
"%. c #FB8004",
"&. c #C9B104",
"*. c #E0BF05",
"=. c #DE9A2E",
"-. c #FACB07",
";. c #FEF700",
":. c #EFC93D",
">. c #FBE739",
",. c #BA8578",
"<. c #BE9C73",
"1. c #D3825A",
"2. c #D89F6A",
"3. c #DB8277",
"4. c #F7826E",
"5. c #F89877",
"6. c #818183",
"7. c #908687",
"8. c #999898",
"9. c #B69C96",
"0. c #A7A9AD",
"q. c #BCB1B2",
"w. c #FB8380",
"e. c #D7B288",
"r. c #FDA287",
"t. c #F3B091",
"y. c #DBB5A9",
"u. c #F4D189",
"i. c #D2C5B9",
"p. c #F2C7A4",
"a. c #FBE3AA",
"s. c #B3B7C4",
"d. c #CCCCCD",
"f. c #E9DDD8",
"g. c #F7E0D4",
"h. c white",
/* pixels */
"                                                                                                                                ",
"                                                                                                                                ",
"                                                                                                                                ",
"                                                                                                                                ",
"                                                                                                                                ",
"                                                                                                                                ",
"                                                                                                                                ",
"                                                                                                                                ",
"                                                                                                                                ",
"                                                                                                                                ",
"                                                                                                                                ",
"                                                                                                                                ",
"                                                                                                                                ",
"                                                                                                                                ",
"                                                                                                                                ",
"                                                                                                                                ",
"                                                                                                                                ",
"                                                                                                                                ",
"                                                                                                                                ",
"                                                                                                                                ",
"                                                                                                                                ",
"                                                                                                                                ",
"                                                                                                                                ",
"                                                                                                                                ",
"                                                                                                                                ",
"                                                                                                                                ",
"                                                            I K H                                                               ",
"                                                        J V M V J K                                                             ",
"                                                      J H I r.o.M V J                                                           ",
"                                                    H K V Y t.o.M  .V                                                           ",
"                                                    J     V M / / o.V   H J               K K                                   ",
"                                                          U V +.U M K     J V               V   H                               ",
"                                                          V J V Y J J     V Y U           X.X.                                  ",
"                                                        M Y 5.+.o.V K J K   +./           Y X.                                  ",
"                                                      K o.U 4.X.M K   V U   r.5.          V M                                   ",
"                                                    M V X.V M V I   G A n M o.o.M K Y    .o.M                                   ",
"                                                M N t.o.M I K       G n b k m o. .V V  .o.M                                     ",
"                                              M  ./ 4. .M         J H B C b d Y D F m O.t./                                     ",
"                                              V X./ M     J       C s s e w g p <.,.9.=.D O.K V                                 ",
"                                            J H M V U     M       H v d Q E 9 ,.e.f.g.g.@.^ +./                                 ",
"                                            M Y 5.Y U Y U  .Y U V l ^ %.%.[ R u.a.g.h.a.:.=.} I                                 ",
"                                              o.w.M o. . .t.+.I Q # ~ %.W 1 _ #.e.e.a.;.*.@.D V                                 ",
"                                                  H V V V ( J p &.: S ! _ 5 * & + > 7.q.9.6 c                                   ",
"                                            H J            . .$.-.e : g 3 4 @ E W X 0.d.s.7 m   J H                             ",
"                                                    J    ./ ` d.y.y ; = 3 7 < - ) ] y.) Q y K   J                               ",
"                                                    K M | } _ i.8.4 X.` 2 5 * - % 1.p.t.] c I                                   ",
"                                                    H n ! Q g >.2.e D 6 3 = f i 0 T e.] , z U                                   ",
"                                                J   H P ^ p g $.u c c 1 3 t q d a y Z j 3 < c L o.                              ",
"                                                  J V p . f h v n   K w 5 <.r 9 O s V J t 7 ,.p ( (                             ",
"                                                  J ` 2 2 $ F Y     M } <.e.2.6.4 g P M ..y.2.e.{  .M                           ",
"                                                  c [ { 8.b N       M 3.9...,.3.g o g M ' 8 . [ { x                             ",
"                                                                                                                                ",
"                                                                                                                                ",
"                                                                                                                                ",
"                                                                                                                                ",
"                                                                                                                                ",
"                                                                                                                                ",
"                                                                                                                                ",
"                                                                                                                                ",
"                                                                                                                                ",
"                                                                                                                                ",
"                                                                                                                                ",
"                                                                                                                                ",
"                                                                                                                                "
};
