/* XPM */
static char *_ee57336db444bf6e2b1c6c72b0a8d54QwDfk5oCVeLh172U_17[] = {
/* columns rows colors chars-per-pixel */
"64 64 138 2 ",
"   c None",
".  c #110519",
"X  c #00171C",
"o  c #2C041B",
"O  c #3C3200",
"+  c #010126",
"@  c #00033B",
"#  c #3C3732",
"$  c #5C0202",
"%  c #640102",
"&  c #740002",
"*  c #700E06",
"=  c #7B010B",
"-  c #422817",
";  c #663A0F",
":  c #402829",
">  c #5B2823",
",  c #5B3D31",
"<  c #712428",
"1  c #585703",
"2  c #734331",
"3  c #000451",
"4  c #06374E",
"5  c #06575A",
"6  c #434244",
"7  c #594A49",
"8  c #49545A",
"9  c #575357",
"0  c #5C5F5C",
"q  c #744B4E",
"w  c #75736E",
"e  c #820001",
"r  c #8B0101",
"t  c #980101",
"y  c #96020D",
"u  c #970C0D",
"i  c #891D05",
"p  c #9C1802",
"a  c #871614",
"s  c #A40101",
"d  c #AB0101",
"f  c #A60C03",
"g  c #B40401",
"h  c #BC0201",
"j  c #A61C01",
"k  c #A6180F",
"l  c #BB0518",
"z  c #98291B",
"x  c #9E3F1E",
"c  c #A62502",
"v  c #A03C03",
"b  c #B83106",
"n  c #AC0037",
"m  c #87272A",
"M  c #B93826",
"N  c #D80102",
"B  c #D9031C",
"V  c #C71A18",
"C  c #DD1E1B",
"Z  c #EF0501",
"A  c red",
"S  c #EE0318",
"D  c #FF011B",
"F  c #F00D1B",
"G  c #C92A02",
"H  c #D32F01",
"J  c #CB3604",
"K  c #DE3601",
"L  c #EF211C",
"P  c #FF0D21",
"I  c #FF1222",
"U  c #FF1D23",
"Y  c #D83624",
"T  c #FF212C",
"R  c #FE2B2C",
"E  c #FD3731",
"W  c #834101",
"Q  c #A75901",
"!  c #A1633F",
"~  c #C15B06",
"^  c #D75204",
"/  c #DF6707",
"(  c #E47A07",
")  c #C15B23",
"_  c #FE4537",
"`  c #FD553A",
"'  c #DE7B25",
"]  c #C17A3A",
"[  c #BE4F43",
"{  c #A05656",
"}  c #B17D5C",
"|  c #956964",
" . c #8F7967",
".. c #A87F73",
"X. c #D85842",
"o. c #FE4145",
"O. c #FD514A",
"+. c #CE655B",
"@. c #FC6249",
"#. c #FE6658",
"$. c #F06959",
"%. c #FC795D",
"&. c #BE8009",
"*. c #C39E0F",
"=. c #FB8004",
"-. c #FBB50A",
";. c #DE9A2E",
":. c #FEF700",
">. c #FBE739",
",. c #BA8578",
"<. c #BE9C73",
"1. c #D89F6A",
"2. c #DB8277",
"3. c #F7826E",
"4. c #F89877",
"5. c #D5AC6A",
"6. c #FDF07A",
"7. c #617881",
"8. c #818183",
"9. c #908687",
"0. c #B69C96",
"q. c #A7A9AD",
"w. c #BCB1B2",
"e. c #D89E87",
"r. c #D7B288",
"t. c #FDA287",
"y. c #F5B580",
"u. c #F3B091",
"i. c #DBB5A9",
"p. c #F4D189",
"a. c #D2C5B9",
"s. c #F2C7A4",
"d. c #F2C8B8",
"f. c #FBE3AA",
"g. c #B3B7C4",
"h. c #CCCCCD",
"j. c #E9DDD8",
"k. c white",
/* pixels */
"                                                                                                                                ",
"                                                                                                                                ",
"                                                                                                                                ",
"                                                                                                                                ",
"                                                                                                                                ",
"                                                                                                                                ",
"                                                                                                                                ",
"                                                                                                                                ",
"                                                                                                                                ",
"                                                                                                                                ",
"                                                                                                                                ",
"                                                                                                                                ",
"                                                                                                                                ",
"                                                                                                                                ",
"                                                                                                                                ",
"                                                                                                                                ",
"                                                                                                                                ",
"                                                                                                                                ",
"                                                  I                                                                             ",
"                                                  I                                                                             ",
"                                                  D A               O.I #.                                                      ",
"                                                  E `           _ #.s.` #.T D                                                   ",
"                                                A @.4.        E #.E %.R                                                         ",
"                                                  U _       A D R D A                                                           ",
"                                                A R %.    U %.@.#.D                                                             ",
"                              I   I I         A %.u.T     _ t.%.A R                                                             ",
"                              I D P I         D #.4.R   T D _ T P                                                               ",
"                                U I     P   A %.R A D   U D _ %.A                                                               ",
"                                %.` A   I   U U I T   A #.#.D U P   I                                                           ",
"                              D A U         D E %.D   D T A A I                                                                 ",
"                            A o.3.A       D E U E D   T A 4.3.A           P U           I   U                                   ",
"                            A R %.A       _ t.%.A R   D A 4.%.A           U D A             A D   P                             ",
"                            O.@.A         I %.E A E   E E A A T     I       _ @.            %._                                 ",
"                          A 3.t.T   U     I A %.3.A   @.@.U E           I   E ` A         D `                                   ",
"                          D D _ D         T A 4.4.A   D A ` #.          U   %.s.o.        T D                                   ",
"                          D @.R A         O.#.A A T   D _ ` D T     P C G S _ #.R D U   A %.E                                   ",
"                          D @.E O.@.      U D O.E D   A t.u.A I     P L C k N T %.D T P #.O.A                                   ",
"                          U A A @.`   U     D #.R D E A O.@.A I     P F F L u C E N K Z u.4.E                                   ",
"                          A O.t.T A D       U A #.` A   D A #.E   R L d l = f c ) e.,.r.( X.@.A                                 ",
"                            _ 4.U #.O.A     U I E U U D   D E E T R S l b ) i { <.f.j.k.r.~ X.%.                                ",
"                            D A P O.T D I D   U A @.y._ T _ A %.E N x ( =.' 9 &.f.f.k.f.6.-.] Y                                 ",
"                              D E #.A 4.3.D E E A _ %.U o.u.%.@.Z 1 ! =./ 0 0 Q 5.5.d.p.:.;.&.S                                 ",
"                                  D D %.%.A %.E @._ A I A @.O.Z &.*.2 ^ x 0 6 > @ 3 8 w.0.9.n U                                 ",
"                                      A A I I D O._ t.O.D A #.X.>.( o x 2 8 6 ; ] 2 9 h.g.q.G E D I                             ",
"                                P         I P U A A E     @.Z 0.j.+.r < : 0 0 X } ~ i.e.~ i C   F I                             ",
"                                        P               D $.c 0.a.7.M A 2 0 6 > , v e.s.e.b P                                   ",
"                                        I           U D J / z ;.6.{ C M 8 # a j f & ,.e.7 6 L       U                           ",
"                                                    U D b ^ t &.&.s U m 5 m t z V p N H a 5 y A   #.                            ",
"                                                    D D % * v h B Y   C . ..} e $ + F D B $ ..[ G #.                            ",
"                                                  D U q 8 4 g R E     L } 1.1.<.7.2 ) L Z e.u.r.0.2.A                           ",
"                                                  A )  .0.8.N         Y e.<.} e.+.W - B N w , O ,.| N                           ",
"                                                                                                                                ",
"                                                                                                                                ",
"                                                                                                                                ",
"                                                                                                                                ",
"                                                                                                                                ",
"                                                                                                                                ",
"                                                                                                                                ",
"                                                                                                                                ",
"                                                                                                                                ",
"                                                                                                                                ",
"                                                                                                                                ",
"                                                                                                                                ",
"                                                                                                                                "
};
