/* XPM */
static char *_ee57336db444bf6e2b1c6c72b0a8d54QwDfk5oCVeLh172U_18[] = {
/* columns rows colors chars-per-pixel */
"64 64 2 1 ",
"  c None",
". c white",
/* pixels */
"                                                                ",
"                                                                ",
"                                                                ",
"                                                                ",
"                                                                ",
"                                                                ",
"                                                                ",
"                                                                ",
"                                                                ",
"                                                                ",
"                                                                ",
"                                                                ",
"                                                                ",
"                                                                ",
"                                                                ",
"                                                                ",
"                                                                ",
"                                                                ",
"                                                                ",
"                                                                ",
"                                                                ",
"                                                                ",
"                                                                ",
"                                                                ",
"                                                                ",
"                                                                ",
"                              ...                               ",
"                            ......                              ",
"                           ........                             ",
"                          .........                             ",
"                          .  ...... ..       ..                 ",
"                             ......  ..       . .               ",
"                             ......  ...     ..                 ",
"                            ......... ..     ..                 ",
"                           ....... .. ..     ..                 ",
"                          ....... ......... ...                 ",
"                        .......   ............                  ",
"                       ......    .............                  ",
"                       ....  .   ...............                ",
"                      .....  .   ...............                ",
"                      ..........................                ",
"                       .........................                ",
"                         ......................                 ",
"                      ..     .................. ..              ",
"                          . ................... .               ",
"                          .....................                 ",
"                          .....................                 ",
"                        . .......................               ",
"                         ........ ................              ",
"                         .......  .................             ",
"                         ......   ................              ",
"                                                                ",
"                                                                ",
"                                                                ",
"                                                                ",
"                                                                ",
"                                                                ",
"                                                                ",
"                                                                ",
"                                                                ",
"                                                                ",
"                                                                ",
"                                                                ",
"                                                                "
};
