/* XPM */
static char *_ee57336db444bf6e2b1c6c72b0a8d54QwDfk5oCVeLh172U_2[] = {
/* columns rows colors chars-per-pixel */
"64 64 123 2 ",
"   c None",
".  c black",
"X  c #0A0707",
"o  c #00030B",
"O  c #160F06",
"+  c #000219",
"@  c #110519",
"#  c #00171C",
"$  c #161617",
"%  c #290001",
"&  c #340001",
"*  c #3C0101",
"=  c #2C041B",
"-  c #291819",
";  c #3C3200",
":  c #010126",
">  c #00033B",
",  c #002A21",
"<  c #062F39",
"1  c #262727",
"2  c #3C3732",
"3  c #420001",
"4  c #43000C",
"5  c #540001",
"6  c #54010C",
"7  c #441110",
"8  c #640102",
"9  c #6C0103",
"0  c #7C0103",
"q  c #700E06",
"w  c #6C0114",
"e  c #640119",
"r  c #7A0212",
"t  c #741715",
"y  c #542801",
"u  c #422817",
"i  c #663A0F",
"p  c #7A3E0D",
"a  c #57002A",
"s  c #402829",
"d  c #5B2823",
"f  c #5B3D31",
"g  c #712428",
"h  c #734331",
"j  c #180C41",
"k  c #000451",
"l  c #22105A",
"z  c #06374E",
"x  c #2D3F45",
"c  c #364C5D",
"v  c #434244",
"b  c #594A49",
"n  c #49545A",
"m  c #575357",
"M  c #5C5F5C",
"N  c #744B4E",
"B  c #736461",
"V  c #820001",
"C  c #8B0101",
"Z  c #880F03",
"A  c #891D05",
"S  c #97170E",
"D  c #A40101",
"F  c #AB0101",
"G  c #B40401",
"H  c #992503",
"J  c #9E3F1E",
"K  c #A03C03",
"L  c #C41F01",
"P  c #D32F01",
"I  c #834101",
"U  c #86441F",
"Y  c #A75901",
"T  c #956002",
"R  c #8C7E02",
"E  c #8E5822",
"W  c #A45F20",
"Q  c #9B7937",
"!  c #A1633F",
"~  c #C15B06",
"^  c #D75204",
"/  c #DF6707",
"(  c #F26005",
")  c #E47A07",
"_  c #C15B23",
"`  c #C17A3A",
"'  c #895D41",
"]  c #B17D5C",
"[  c #956964",
"{  c #8F7967",
"}  c #A87F73",
"|  c #BE8009",
" . c #C39E0F",
".. c #FB8004",
"X. c #EB9A07",
"o. c #E0BF05",
"O. c #FBB50A",
"+. c #DE9A2E",
"@. c #FACB07",
"#. c #FEF700",
"$. c #EFC93D",
"%. c #BA8578",
"&. c #BE9C73",
"*. c #D3825A",
"=. c #D89F6A",
"-. c #F89877",
";. c #F4B163",
":. c #F1D45F",
">. c #756A85",
",. c #818183",
"<. c #999898",
"1. c #B69C96",
"2. c #BCB1B2",
"3. c #D89E87",
"4. c #D7B288",
"5. c #F5B580",
"6. c #F4D189",
"7. c #F2C7A4",
"8. c #FBE3AA",
"9. c #B3B7C4",
"0. c #CCCCCD",
"q. c #F0D1C8",
"w. c #EFEDED",
/* pixels */
"                                                                                                                                ",
"                                                                                                                                ",
"                                                                                                                                ",
"                                                                                                                                ",
"                                                                                                                                ",
"                                                                                                                                ",
"                                                                                                                                ",
"                                                                                                                                ",
"                                                                                                                                ",
"                                                                                                                                ",
"                                                                                                                                ",
"                                                                                                                                ",
"                                                                                                                                ",
"                                                                                                                                ",
"                                                                                                                                ",
"                                                                                                                                ",
"                                                                                                                                ",
"                                                                                                                                ",
"                                                                                                                                ",
"                                                                                                                                ",
"                                                                                                                                ",
"                                                                                                                                ",
"                                                                                                                                ",
"                                                                                                                                ",
"                                                                                                                                ",
"                                                                %.] [ [ V                                                       ",
"                                                            K } 4.6.$.:.T J                                                     ",
"                                                            H 4.6.#.o.o.| Y W                                                   ",
"                                                .           J R { { <.<.>.Q K                                                   ",
"                                                  X X X     > k j : 9.w.9.,.8                                                   ",
"                                                    X X X - . W  .2.>.` B k                                                     ",
"                                              X .       X O . W +.8.7.6.3..                                                     ",
"                                                X X X X X .   . t ;.6.3.Y +                                                     ",
"                                                    X X       X , h ] ! X                                                       ",
"                                                          . 1 b b . x x 1                                                       ",
"                                                        1 2 m v x x x v v 1                                                     ",
"                                                      2 n v v 3 E Q h s s v                                                     ",
"                                                    X m m s . H @.#.+.a g < X                                                   ",
"                                                  . v c v &   ` O.@.o.e Z 1 2                                                   ",
"                                                  + b ! =     w / O.$.' 0 b m 2 *                                               ",
"                                                  . Q 6.B     . % f M f % $ n d ` ]                                             ",
"                                                  . 5.8.=..   4 +.@.~ ~ / J z I -.&.                                            ",
"                                                  & *.*.U     v 0.5.X._ / ..J y '                                               ",
"                                                            . 1.q.2.J 5 K ^ ..) 5                                               ",
"                                                            p O.+.%.z . = 6 ~ ..K +                                             ",
"                                                          E ....P C       0 G L A                                               ",
"                                                        9 O.) G S #       D ( ( 4                                               ",
"                                                        7 ^ L F 7         q A r =                                               ",
"                                                        # 1 ; &           . # #                                                 ",
"                                                      : > < o             j l j j i                                             ",
"                                                    i ! } N .             @ j k v W 7                                           ",
"                                                    u U ' i                                                                     ",
"                                                                                                                                ",
"                                                                                                                                ",
"                                                                                                                                ",
"                                                                                                                                ",
"                                                                                                                                ",
"                                                                                                                                ",
"                                                                                                                                ",
"                                                                                                                                ",
"                                                                                                                                ",
"                                                                                                                                ",
"                                                                                                                                ",
"                                                                                                                                "
};
