/* XPM */
static char *_ee57336db444bf6e2b1c6c72b0a8d54QwDfk5oCVeLh172U_20[] = {
/* columns rows colors chars-per-pixel */
"64 64 71 1 ",
"  c None",
". c black",
"X c #0A0707",
"o c #190001",
"O c #290001",
"+ c #340001",
"@ c #3C0101",
"# c #420001",
"$ c #4B0004",
"% c #43000C",
"& c #4C000C",
"* c #540001",
"= c #5C0202",
"- c #54010C",
"; c #5B010C",
": c #47001C",
"> c #540115",
", c #5C0115",
"< c #5C151C",
"1 c #640102",
"2 c #6C0103",
"3 c #63020C",
"4 c #6B010C",
"5 c #740002",
"6 c #7C0103",
"7 c #700E06",
"8 c #7C0F06",
"9 c #74000C",
"0 c #7B010B",
"q c #640114",
"w c #6C0114",
"e c #640119",
"r c #6A011A",
"t c #730113",
"y c #7A0212",
"u c #770B14",
"i c #741715",
"p c #820001",
"a c #8B0101",
"s c #880F03",
"d c #85020E",
"f c #880F0B",
"g c #980101",
"h c #980C01",
"j c #96020D",
"k c #970C0D",
"l c #891D05",
"z c #941702",
"x c #9C1802",
"c c #97170E",
"v c #871614",
"b c #A40101",
"n c #AB0101",
"m c #A60C03",
"M c #B40401",
"N c #BC0201",
"B c #A81401",
"V c #A61C01",
"C c #B51301",
"Z c #B71E01",
"A c #B91E11",
"S c #992503",
"D c #A62502",
"F c #A8281E",
"G c #C41F01",
"H c #CD2300",
"J c #C92A02",
"K c #D32F01",
"L c #DE3601",
"P c #956964",
"I c #908687",
/* pixels */
"                                                                ",
"                                                                ",
"                                                                ",
"                                                                ",
"                                                                ",
"                                                                ",
"                                                                ",
"                                                                ",
"                                                                ",
"                                                                ",
"                                                                ",
"                                                                ",
"                                                                ",
"                        p                                       ",
"                        p        6                              ",
"                        9>       0,                             ",
"                       hAe       gd,                            ",
"                       VLi       mZ<        e                   ",
"             p        6ZLv      sCCf        9,                  ",
"             gg      lZHZ9      SNbg>       gd                  ",
"             hH6     hKKB0,   paMBDs+      2nj                  ",
"             hLS    6DKNDl    lZNVS4+     6zCj:                 ",
"             JLD    aHGVV8.   DNmDg$      hMDj>                 ",
"             JLC6,  gNVSa3  6sNDbg0%    plZnhd,                 ",
"            pJJGpe pmDVap-  pDxbg62     pgbDSte                 ",
"            gGJLm, 6xBh99#  sBxxtw*     aVSs8,                  ",
"            cLGCm, 3mDs93+ pmDSl9q#     SDg9w>                  ",
"            vLGDgw 3bsp9*  fVSs9w#     tBh99w#                  ",
"            uGBBh0 3a599#  vDg69;      wb8ww-                   ",
"            qVBga0 *p69w#  vDa9w#  =1 *q60we#                   ",
"             dDSp0 @6t0*   vz90;   7B=@aq9t-                    ",
"             3Vz5y @49t-   tdw0*   .sS*5mq-                     ",
"             %dpww- =6t&   wt69#    *db1s0*                     ",
"             +399e& #w0*   &t9=     *4ykfmm1                    ",
"              &9tr&  1t&   $0t-     +*3fBBV7                    ",
"              O49e-  #9q#  #4r-     #-46hcF*                    ",
"               #9r,  +3t%  @qq#      %qipIP#                    ",
"               O=tq$  $w,@ @qq+     *234avv1                    ",
"                @,r&  O,q@  &q@   $7gd3&451                     ",
"                 $rq@  #,-+ &q@  -nnhfw#,;                      ",
"                  $r,   #q# #;# @4mBzDzwq;                      ",
"                   $q>   -,+ -& &fVl48st;0&                     ",
"                    @q,   &-@-; ;zZ4>wq-=y*                     ",
"                     @,-#  &#@&@#jB*--&o1d$                     ",
"                      @$-,$X5bg$$g3@$@*=*q;                     ",
"                         &;&sZVl,B2@$-90q=0%                    ",
"                           #qi796z-,eee,,1t&                    ",
"                            &,-%sl%;,---,$9*                    ",
"                             #-@z7O#$->&#o21.                   ",
"                             $@=f-$$-##   -t1*                  ",
"                             ;aj9h7#--$# $3;2*#                 ",
"                             @=112                              ",
"                                                                ",
"                                                                ",
"                                                                ",
"                                                                ",
"                                                                ",
"                                                                ",
"                                                                ",
"                                                                ",
"                                                                ",
"                                                                ",
"                                                                ",
"                                                                "
};
