/* XPM */
static char *_ee57336db444bf6e2b1c6c72b0a8d54QwDfk5oCVeLh172U_21[] = {
/* columns rows colors chars-per-pixel */
"64 64 69 1 ",
"  c None",
". c black",
"X c #0A0707",
"o c #290001",
"O c #340001",
"+ c #3C0101",
"@ c #420001",
"# c #4B0004",
"$ c #43000C",
"% c #4C000C",
"& c #540001",
"* c #5C0202",
"= c #54010C",
"- c #5B010C",
"; c #47001C",
": c #540115",
"> c #5C0115",
", c #640102",
"< c #6C0103",
"1 c #63020C",
"2 c #6B010C",
"3 c #740002",
"4 c #7C0103",
"5 c #700E06",
"6 c #7C0F06",
"7 c #74000C",
"8 c #7B010B",
"9 c #640114",
"0 c #6C0114",
"q c #640119",
"w c #6A011A",
"e c #730113",
"r c #7A0212",
"t c #770B14",
"y c #741715",
"u c #820001",
"i c #8B0101",
"p c #880F03",
"a c #85020E",
"s c #880F0B",
"d c #980101",
"f c #980C01",
"g c #96020D",
"h c #970C0D",
"j c #891D05",
"k c #941702",
"l c #9C1802",
"z c #97170E",
"x c #871614",
"c c #A40101",
"v c #AB0101",
"b c #A60C03",
"n c #B40401",
"m c #BC0201",
"M c #A81401",
"N c #A61C01",
"B c #A6180F",
"V c #B51301",
"C c #B71E01",
"Z c #992503",
"A c #A62502",
"S c #B83106",
"D c #A8281E",
"F c #C41F01",
"G c #CD2300",
"H c #C92A02",
"J c #D32F01",
"K c #956964",
"L c #908687",
/* pixels */
"                                                                ",
"                                                                ",
"                                                                ",
"                                                                ",
"                                                                ",
"                                                                ",
"                                                                ",
"                                                                ",
"                                                                ",
"                                                                ",
"                                                                ",
"                                                                ",
"                                                                ",
"                                                                ",
"                                                                ",
"                                                                ",
"                                                                ",
"                                                                ",
"                           34i   if4                            ",
"                        upZCN3 ukmnbZ   iu                      ",
"                       innHJGC6dVMnmN   6idu                    ",
"                     ujCnMcSCGCslZMVlu 4lANd0q                  ",
"                 4u  iNMNldlldmc76jnvu4cnNbbj:                  ",
"                kduu1iNMp091&-5Maq>Nm4jmnncMN0>                 ",
"              >5ACFCZ8ii70%  >:8g>+5Z3lmc69afe>                 ",
"              :zVGJJGFz22&   e7-5# 1p vl$o@2u0+                 ",
"              0lVvSCmmGBO   qe70$@ #& p@  @2e>+                 ",
"             >sNANdpe8dVp   08e=      #    -w=                  ",
"             0fklt=+:>$2CZ  900@           =0@                  ",
"             8f440% wwq$<s @>q9@          qw=                   ",
"             7pu89@ =qq# : @90=     &O    -e@                   ",
"             187e%  &80@   +0e%    ;$,<# o2,                    ",
"             2779+  %70@   O02O w:7hx2<41%7#                    ",
"             -7e>O   -0@   +99+   *5ghs6jcb,                    ",
"             &80>+   %q%   +9>+     O2akMVN5                    ",
"             @3w>+   #w=   @9=      @=07fzD&                    ",
"              1e9@   +99@  +9=       $9yuLK@                    ",
"              #7q=    %q#  +==      &<12ixx,                    ",
"               -q9@   +9>O  %=    #5da1%23,                     ",
"               @>w9$  +=9+  %>+  =vvfs0#>-                      ",
"                O1e9@  +9=  @-@ +2bMkAk09-                      ",
"                 O,7e$  @>@  %% %sNj26pe-8%                     ",
"                   #17*  #-% == -kC2:09=&r&                     ",
"                    o*82- #-@+>#+gM&==%o,a#                     ",
"                      +-2<@@=#@$*d1+#@  @9-                     ",
"                         %-#%>@a7M<O@    *8$                    ",
"                           +=+9lpz=>&@O  *e$                    ",
"                           -@@fNpj$=042% #7&                    ",
"                         #9w-1n4k5o@>7u8=X<,.                   ",
"                        +10=9ad-s=#@#:1ee@>e,&                  ",
"                        #1>+&jig8f5@##+%-#--<&@                 ",
"                            &&,3*<                              ",
"                                                                ",
"                                                                ",
"                                                                ",
"                                                                ",
"                                                                ",
"                                                                ",
"                                                                ",
"                                                                ",
"                                                                ",
"                                                                ",
"                                                                ",
"                                                                "
};
