/* XPM */
static char *_ee57336db444bf6e2b1c6c72b0a8d54QwDfk5oCVeLh172U_22[] = {
/* columns rows colors chars-per-pixel */
"64 64 96 2 ",
"   c None",
".  c black",
"X  c #0A0707",
"o  c #00030B",
"O  c #190001",
"+  c #000219",
"@  c #00171C",
"#  c #161617",
"$  c #290001",
"%  c #340001",
"&  c #3C0101",
"*  c #291819",
"=  c #002A21",
"-  c #420001",
";  c #4B0004",
":  c #43000C",
">  c #4C000C",
",  c #540001",
"<  c #5C0202",
"1  c #54010C",
"2  c #5B010C",
"3  c #47001C",
"4  c #540115",
"5  c #5C0115",
"6  c #441110",
"7  c #43141C",
"8  c #5C151C",
"9  c #640102",
"0  c #6C0103",
"q  c #63020C",
"w  c #6B010C",
"e  c #740002",
"r  c #7C0103",
"t  c #700E06",
"y  c #7C0F06",
"u  c #74000C",
"i  c #7B010B",
"p  c #640114",
"a  c #6C0114",
"s  c #640119",
"d  c #6A011A",
"f  c #730113",
"g  c #7A0212",
"h  c #770B14",
"j  c #741715",
"k  c #712428",
"l  c #734331",
"z  c #594A49",
"x  c #5C5F5C",
"c  c #744B4E",
"v  c #5D6770",
"b  c #736461",
"n  c #820001",
"m  c #8B0101",
"M  c #880F03",
"N  c #85020E",
"B  c #880F0B",
"V  c #980101",
"C  c #980C01",
"Z  c #96020D",
"A  c #970C0D",
"S  c #891D05",
"D  c #941702",
"F  c #9C1802",
"G  c #97170E",
"H  c #871614",
"J  c #A40101",
"K  c #AB0101",
"L  c #A60C03",
"P  c #B40401",
"I  c #BC0201",
"U  c #A81401",
"Y  c #A61C01",
"T  c #A6180F",
"R  c #B51301",
"E  c #B71E01",
"W  c #BB0518",
"Q  c #B91E11",
"!  c #992503",
"~  c #98291B",
"^  c #A62502",
"/  c #A03C03",
"(  c #B83106",
")  c #A8281E",
"_  c #A23E3E",
"`  c #C41F01",
"'  c #CD2300",
"]  c #C92A02",
"[  c #D32F01",
"{  c #DE3601",
"}  c #894340",
"|  c #A05656",
" . c #956964",
".. c #8F7967",
"X. c #818183",
"o. c #908687",
/* pixels */
"                                                                                                                                ",
"                                                                                                                                ",
"                                                                                                                                ",
"                                                                                                                                ",
"                                                                                                                                ",
"                                                                                                                                ",
"                                                                                                                                ",
"                                                                                                                                ",
"                                                                                                                                ",
"                                                                                                                                ",
"                                                                                                                                ",
"                                                                                                                                ",
"                                                                                                                                ",
"                                                                                                                                ",
"                                                                                                                                ",
"                                                                                                                                ",
"                                                          .                                                                     ",
"                                                                                              X                                 ",
"                                                                                                                                ",
"                                                                          8 ,                                                   ",
"                                                                4 >     k n l v ;         @ = 5 $                               ",
"                                                    + g y t ( ( ( N > a H K _  .e         $ r N e > k   X                       ",
"                                                  s T ] ' ' ' ' ' ' ( M J ^ K P W s p     g P I I V %                           ",
"                                                3 T [ [ ` [ { { [ ' [ A y ! Y T P Z       L P ^ U Q c                           ",
"                                                a U Y P ` E V Y E ] [ { j q V D E J o   S R Y C J _ X.                          ",
"                                              d Z F ^ Y S % . . > j M ] ] g : 0 S U h   V I Y B ! Y r                           ",
"                                              a U Y ! y %   - 2 5 5 4 % F ^     4 f h   V I y : ! Y f                           ",
"                                              N ^ Y n O     6 s s d 1 & o ^ ~       s   V n   - A Y <                           ",
"                                        h G H A S y > .     b X.< 8       9 h >         p :   a K C O                           ",
"                                    p G ` { { ` ^ ^ i w 3 . 8 8 1           O 5         5   ; 6 S t                             ",
"                                  h ` ' [ ' { { { [ [ [ Q T e , >   @             .         2 r < >   *                         ",
"                                3 T ' ` [ R E ^ ^ ! Y E { ' o.} V j .       ; , 8 6       , i i ,                               ",
"                                a C V ^ U V ; : w , O $ < ; z ) P ^ M 9 2 2 : A J 0 8   ; f p &       x                         ",
"                                < L ! ! D ,   , g 5 - ;   : 9 - > r < < e i G V ..| , 6 a p %         X.                        ",
"                                - M / J 0 O   & f 2       1 d ;   X ; n D N H r | _ m > 5 ;   #                                 ",
"                                  > A ^ t       2 0       > 5 - - - ; i h : > h V m h , &                                       ",
"                                  $ N F t $     , i ;     > d -       . . - q 2 8 g n ,                     .                   ",
"                                    q i r ;     - f <     > d ;     . < M n r q 2 5 9 6                                         ",
"                                    : a i w $   - 5 4     ; p -   $ M F F h p 5 < &                 . #                         ",
"                                      - u i q &   1 5 @     2 & - q U P F ! n 5 5 ,   x                                         ",
"                                        : u i p %   p 1     8 2 & y Y ^ y M V g p e 7 X.                                        ",
"                                          - w f 5 $ 1 d 6   ; 8 , G E y 5 u a q , f ;               .                           ",
"                                            & < f w - 6 < b b < 8 N E 9 > p 5 $ q N ;     #                                     ",
"                                                - 9 a 6 ; c c - 6 D B - 1 ; ;   , i >     X                                     ",
"                                                    - 1 s , % p 0 F 9 % -       X 2 u                                           ",
"                                                        ; 6 4 C r C < > - %       , f :                                         ",
"                                                      &   % B Y M B : p 2 w > %   & a 1                                         ",
"                                                    > a , , P V S S % ; p g r w - $ i <                                         ",
"                                                  2 f p q t U q D 2 $ ; 4 q i i p % 2 w - ;                                     ",
"                                                ; f a - 2 m M N N r t - ; 1 ; 5 a ; 5 f e q ;                                   ",
"                                                  , ,   , u r m 9 n < - - - & & > - , > , & &                                   ",
"                                                                                                                                ",
"                                                                                                                                ",
"                                                                                                                                ",
"                                                                                                                                ",
"                                                                                                                                ",
"                                                                                                                                ",
"                                                                                                                                ",
"                                                                                                                                ",
"                                                                                                                                ",
"                                                                                                                                ",
"                                                                                                                                ",
"                                                                                                                                ",
"                                                                                                                                "
};
