/* XPM */
static char *_ee57336db444bf6e2b1c6c72b0a8d54QwDfk5oCVeLh172U_23[] = {
/* columns rows colors chars-per-pixel */
"64 64 95 2 ",
"   c None",
".  c black",
"X  c #0A0707",
"o  c #00030B",
"O  c #190001",
"+  c #000219",
"@  c #161617",
"#  c #290001",
"$  c #340001",
"%  c #3C0101",
"&  c #291819",
"*  c #002A21",
"=  c #262727",
"-  c #3C3732",
";  c #420001",
":  c #4B0004",
">  c #43000C",
",  c #4C000C",
"<  c #540001",
"1  c #5C0202",
"2  c #54010C",
"3  c #5B010C",
"4  c #47001C",
"5  c #540115",
"6  c #5C0115",
"7  c #441110",
"8  c #5C151C",
"9  c #640102",
"0  c #6C0103",
"q  c #63020C",
"w  c #6B010C",
"e  c #740002",
"r  c #7C0103",
"t  c #700E06",
"y  c #7C0F06",
"u  c #74000C",
"i  c #7B010B",
"p  c #640114",
"a  c #6C0114",
"s  c #640119",
"d  c #6A011A",
"f  c #730113",
"g  c #7A0212",
"h  c #770B14",
"j  c #741715",
"k  c #712306",
"l  c #5B2823",
"z  c #5B3D31",
"x  c #712428",
"c  c #594A49",
"v  c #5C5F5C",
"b  c #5D6770",
"n  c #736461",
"m  c #820001",
"M  c #8B0101",
"N  c #880F03",
"B  c #85020E",
"V  c #880F0B",
"C  c #980101",
"Z  c #980C01",
"A  c #96020D",
"S  c #970C0D",
"D  c #891D05",
"F  c #941702",
"G  c #9C1802",
"H  c #97170E",
"J  c #871614",
"K  c #A40101",
"L  c #AB0101",
"P  c #A60C03",
"I  c #B40401",
"U  c #BC0201",
"Y  c #A81401",
"T  c #A61C01",
"R  c #A6180F",
"E  c #B51301",
"W  c #B71E01",
"Q  c #B91E11",
"!  c #992503",
"~  c #A62502",
"^  c #B83106",
"/  c #A8281E",
"(  c #87272A",
")  c #C41F01",
"_  c #CD2300",
"`  c #C92A02",
"'  c #D32F01",
"]  c #CB3604",
"[  c #DE3601",
"{  c #EF3A02",
"}  c #894340",
"|  c #818183",
" . c #908687",
".. c #CCCCCD",
"X. c #E9DDD8",
/* pixels */
"                                                                                                                                ",
"                                                                                                                                ",
"                                                                                                                                ",
"                                                                                                                                ",
"                                                                                                                                ",
"                                                                                                                                ",
"                                                                                                                                ",
"                                                                                                                                ",
"                                                                                                                                ",
"                                                                                                                                ",
"                                                                                                                                ",
"                                                                                                                                ",
"                                                                                                                                ",
"                                                                                                                                ",
"                                                                                                                                ",
"                                                                                                                                ",
"                                                                                                                                ",
"                                                                                        .                                       ",
"                                                                                                                                ",
"                                                                          4 5                                                   ",
"                                                                + 6     a B B 5 5             p j p                             ",
"                                                    5 B ~ ^ ^ ^ ] H , u C K L Y f     O , 6 y W W G 6                           ",
"                                                  f ) _ _ _ _ _ ' ] Q B T T T I I j     6 B I I I I w                           ",
"                                                p E [ ) ) [ [ [ ) ' _ W V H ~ Z Y L p     P Y K T I m                           ",
"                                                V ~ P ) ' ] W W ` ` ` [ Q i K M T Y f   N ~ T L Y T C                           ",
"                                              d P ~ T T G t # > q t G ] [ D > 9 N L B   C U Z u ! T C           .               ",
"                                              B ~ T Z G 9   2 p p # , 3 W ' l   > m B   C R h 2 J T M                           ",
"                                          4 5 B ! T C 1     2 d s d 6 % 1 ] /     < f   H k + 3 ! T 0                           ",
"                                      f H ~ ) T H V q > d   2 s s 5 %   + J H   &   6   e f . f L Z ;                           ",
"                                  6 H ) [ _ ) [ [ ] ~ B f o 5 s 6 ;         5   .     b n   , N ~ k                             ",
"                                  H _ ) _ ' ` [ [ [ { [ ' ~ y w 0 <       n & .        .... p V N ,                             ",
"                                p E E ` ) ) ) ~ G F ~ W ' [ ' W C .     | X.0 C r 7     - < r i ,     @ X                       ",
"                                f I P W T K e q u 1 # # < p V W P 9 > 9 l c r ( } r 8   ; 3 a :                                 ",
"                                f T Y T Y r $ : m q ;     ; 6 > , : < a M K m c  .L y . h 7 O   v                               ",
"                                p D ~ P m <   ; i q       2 s ; % 2 B A J 8 a r C H 0 * 7 :   b |                               ",
"                                  a ! T F #   $ w e #     2 6 ; ; , , , % > g j j % ; & #                                       ",
"                                  6 B G t #     < m <     , d ;         # p 9 : 0 i 0 ;             = X                         ",
"                                  6 f m r <     ; i 1     , d ;     O 2 J C x n 8 1 7     @ .   X     .                         ",
"                                    s i r u ,   % p p $   ; p :   2 A Y J 9 n ..c X *   @ =     @                               ",
"                                      p u u i 2   ; d ,     3 , # V W K N G J z 6 2     X X                                     ",
"                                        a u u s , % 6 p %   6 : $ g T Z i Z M r w w ;             .     .                       ",
"                                          p i u a > ; 6 2 $ 2 6 ; i G m q u s a < f <                                           ",
"                                            p a i u 3 , 6 2 % p ; V ~ 1 , 6 2 ; 2 i :                                           ",
"                                              6 s i i p ; 5 2 , q G C : 2 : %   : f :                                           ",
"                                                  6 p a d p , 2 w C 2 > : ;     % w w #       .                                 ",
"                                                      s f 5 6 S V I w , ; $       9 f ;                                         ",
"                                                      % O % A L N D , 5 3 e , $   , B 1                                         ",
"                                                    1 f < 1 E M m Z # : a B r p < # r 1                                         ",
"                                                  q f p u p P u F 3 # ; 5 6 w i 0 O 9 u ; :                                     ",
"                                                : i a % w B r i y y t ; : 2 ; 6 a : q i e q :                                   ",
"                                                  < <   9 i r M 9 m 1 ; ; ; % % < : < > < % %                                   ",
"                                                                                                                                ",
"                                                                                                                                ",
"                                                                                                                                ",
"                                                                                                                                ",
"                                                                                                                                ",
"                                                                                                                                ",
"                                                                                                                                ",
"                                                                                                                                ",
"                                                                                                                                ",
"                                                                                                                                ",
"                                                                                                                                ",
"                                                                                                                                ",
"                                                                                                                                "
};
