/* XPM */
static char *_ee57336db444bf6e2b1c6c72b0a8d54QwDfk5oCVeLh172U_24[] = {
/* columns rows colors chars-per-pixel */
"64 64 91 1 ",
"  c None",
". c black",
"X c #0A0707",
"o c #00030B",
"O c #190001",
"+ c #001F03",
"@ c #000219",
"# c #00171C",
"$ c #161617",
"% c #290001",
"& c #340001",
"* c #3C0101",
"= c #291819",
"- c #262727",
"; c #3C3732",
": c #420001",
"> c #4B0004",
", c #43000C",
"< c #4C000C",
"1 c #540001",
"2 c #5C0202",
"3 c #54010C",
"4 c #5B010C",
"5 c #47001C",
"6 c #540115",
"7 c #5C0115",
"8 c #441110",
"9 c #43141C",
"0 c #5C151C",
"q c #640102",
"w c #6C0103",
"e c #63020C",
"r c #6B010C",
"t c #740002",
"y c #7C0103",
"u c #700E06",
"i c #7C0F06",
"p c #74000C",
"a c #7B010B",
"s c #640114",
"d c #6C0114",
"f c #640119",
"g c #6A011A",
"h c #730113",
"j c #7A0212",
"k c #770B14",
"l c #741715",
"z c #5B3D31",
"x c #5C5F5C",
"c c #744B4E",
"v c #736461",
"b c #75736E",
"n c #820001",
"m c #8B0101",
"M c #880F03",
"N c #85020E",
"B c #880F0B",
"V c #980101",
"C c #980C01",
"Z c #96020D",
"A c #970C0D",
"S c #891D05",
"D c #941702",
"F c #9C1802",
"G c #97170E",
"H c #871614",
"J c #A40101",
"K c #AB0101",
"L c #A60C03",
"P c #B40401",
"I c #BC0201",
"U c #A81401",
"Y c #A61C01",
"T c #A6180F",
"R c #B51301",
"E c #B71E01",
"W c #B91E11",
"Q c #992503",
"! c #98291B",
"~ c #A62502",
"^ c #A03C03",
"/ c #B83106",
"( c #C41F01",
") c #CD2300",
"_ c #C92A02",
"` c #D32F01",
"' c #DE3601",
"] c #894340",
"[ c #A05656",
"{ c #818183",
"} c #908687",
/* pixels */
"                                                                ",
"                                                                ",
"                                                                ",
"                                                                ",
"                                                                ",
"                                                                ",
"                                                                ",
"                                                                ",
"                                                                ",
"                                                                ",
"                                                                ",
"                                                                ",
"                                                                ",
"                                                                ",
"                                                                ",
"                                                                ",
"                                                                ",
"                                                                ",
"                                                                ",
"                                     65                         ",
"                                66 X6Nj57      7%               ",
"                           hA////j,dNKIJh     aNp<f             ",
"                         7T_))))))/ML~UIPfs  jPIIZ*             ",
"                        5T``(`''`)`AiQYUPZ  @LP~YIw             ",
"                        dUYP(EVYE_`'~yVDEK5 SRYCYUN             ",
"                       gZF~YS*..6lM_'j,wSLk VIYBQYN             ",
"                       dUYQi& 14gf6&CT  6hk VIi,QYt             ",
"                       N~YmX  *sfg3*o~!   f Vn :AYq             ",
"                    kGHASi<   >ff>   qk6 9  s& dKCO             ",
"                  sG(''(~~ad5o6g3        $+   *BYu              ",
"                 k()`)'''`'`WGi6>   .:1u0O- ..<mu,    .         ",
"                5T)(`RE~~QY/''`Emy 1q>uKV8  XoOq3 -X            ",
"                dCV~UV>,r1O&21BELt4qaSV]}Ve.X..o  .$            ",
"                2LQQD1 1j7:> :7,1quMAHw;[PpXX..X.   vb          ",
"                :M^JwO *h4   3s>*<uu<<jtmiq*$$.. $  xb          ",
"                 <A~u   4w   <s:    :>ph7%*:$$.  .     .        ",
"                 %NFu%  1a>  <g>    O>e4dw1=.                   ",
"                  eay>  :h2  <g:   1Mna2>ar#                    ",
"                  ,dar% :73  :s> %uFFl2c{.=   X- .$             ",
"                   :pae* >s:  4>*eLPDQn0z1    .$ -$             ",
"                    ,pas& s3  s7*iY~iMCt2p:             .       ",
"                     :rh7%<g> 3f3GEi7pde3p<                     ",
"                      *2hr:>s>*s<NEq6s7*eN>                     ",
"                        :qd<37><>DB:3>: 1a<                     ",
"                          :3s4:erFq&:   O4r                     ",
"                            >*<AyC2<:&   qj,                    ",
"                           ::&SYMB,s4r<& 2h<                    ",
"                          >h11PVSS&>sjyr:.a2                    ",
"                         4hsruUeD4%>6eaas&4r:>                  ",
"                        >hd:4mMNNyu:>3>7d>7hte>                 ",
"                         11 1pymqn2:::**<:1<1**                 ",
"                                                                ",
"                                                                ",
"                                                                ",
"                                                                ",
"                                                                ",
"                                                                ",
"                                                                ",
"                                                                ",
"                                                                ",
"                                                                ",
"                                                                ",
"                                                                ",
"                                                                "
};
