/* XPM */
static char *_ee57336db444bf6e2b1c6c72b0a8d54QwDfk5oCVeLh172U_25[] = {
/* columns rows colors chars-per-pixel */
"64 64 94 2 ",
"   c None",
".  c black",
"X  c #0A0707",
"o  c #00030B",
"O  c #190001",
"+  c #160F06",
"@  c #00171C",
"#  c #161617",
"$  c #290001",
"%  c #340001",
"&  c #3C0101",
"*  c #291819",
"=  c #262727",
"-  c #420001",
";  c #4B0004",
":  c #43000C",
">  c #4C000C",
",  c #540001",
"<  c #5C0202",
"1  c #54010C",
"2  c #5B010C",
"3  c #47001C",
"4  c #540115",
"5  c #5C0115",
"6  c #441110",
"7  c #43141C",
"8  c #5C151C",
"9  c #640102",
"0  c #6C0103",
"q  c #63020C",
"w  c #6B010C",
"e  c #740002",
"r  c #7C0103",
"t  c #700E06",
"y  c #7C0F06",
"u  c #74000C",
"i  c #7B010B",
"p  c #640114",
"a  c #6C0114",
"s  c #640119",
"d  c #6A011A",
"f  c #730113",
"g  c #7A0212",
"h  c #770B14",
"j  c #741715",
"k  c #712306",
"l  c #712428",
"z  c #434244",
"x  c #5C5F5C",
"c  c #744B4E",
"v  c #736461",
"b  c #75736E",
"n  c #820001",
"m  c #8B0101",
"M  c #880F03",
"N  c #85020E",
"B  c #880F0B",
"V  c #980101",
"C  c #980C01",
"Z  c #96020D",
"A  c #970C0D",
"S  c #891D05",
"D  c #941702",
"F  c #9C1802",
"G  c #97170E",
"H  c #871614",
"J  c #A40101",
"K  c #AB0101",
"L  c #A60C03",
"P  c #B40401",
"I  c #BC0201",
"U  c #A81401",
"Y  c #A61C01",
"T  c #A6180F",
"R  c #B51301",
"E  c #B71E01",
"W  c #B91E11",
"Q  c #992503",
"!  c #98291B",
"~  c #A62502",
"^  c #A03C03",
"/  c #B83106",
"(  c #87272A",
")  c #C41F01",
"_  c #CD2300",
"`  c #C92A02",
"'  c #D32F01",
"]  c #DE3601",
"[  c #894340",
"{  c #A05656",
"}  c #818183",
"|  c #908687",
" . c #A7A9AD",
".. c #BCB1B2",
/* pixels */
"                                                                                                                                ",
"                                                                                                                                ",
"                                                                                                                                ",
"                                                                                                                                ",
"                                                                                                                                ",
"                                                                                                                                ",
"                                                                                                                                ",
"                                                                                                                                ",
"                                                                                                                                ",
"                                                                                                                                ",
"                                                                                                                                ",
"                                                                                                                                ",
"                                                                                                                                ",
"                                                                                                                                ",
"                                                                                                                                ",
"                                                                                                                                ",
"                                                                                                                                ",
"                                                                                                                                ",
"                                                                                                                                ",
"                                                                          4 3                                                   ",
"                                                                4 4     d N g 3 5             5 $                               ",
"                                                      f A / / / / g > a N K I J f           i N u > s                           ",
"                                                  5 T ` _ _ _ _ _ _ / M L ~ U I P s p     g P I I Z &                           ",
"                                                3 T ' ' ) ' ] ] ' _ ' A y Q Y U P Z       L P ~ Y I 0                           ",
"                                                a U Y P ) E V Y E ` ' ] ~ r V D E K 3   S R Y C Y U N                           ",
"                                              d Z F ~ Y S & . . 4 j M ` ] g : 0 S L h   V I Y B Q Y N                           ",
"                                              a U Y Q y %   , 2 d s 4 % C T     4 f h   V I y : Q Y e                           ",
"                                              N ~ Y m X     & p s d 1 & o ~ !       s   7 9 @ : B Y 9                           ",
"                                        h G H A S y >       ; s s ;       9 h 4     p   7 . } c K G O                           ",
"                                    p G ) ] ] ) ~ ~ i a 3 o 4 d 1                       % O # + k <                             ",
"                                  h ) _ ' _ ] ] ] ' ] ' W G y 4 ;         - , t 8 @ * # . # + . . o .                           ",
"                                3 T _ ) ' R E ~ ~ Q Y / ] ] ' E m n   , 9 ; t K m 6 o # . # = . * . b v                         ",
"                                a C V ~ U V ; : w , O % < , B E L e 2 9 i S V [ | m 6 . X . . . X . z ...                       ",
"                                < L Q Q D ,   , g 5 - ;   - 5 : , 9 t M A H e ( { J * o . . . . X # . z #                       ",
"                                - M ^ J 0 O   & f 2       1 p ; & > t t > > g m m H & . = # . . # # . . .                       ",
"                                  > A ~ t       2 0       > p -         - ; u u 8 . x z . # . . . . .                           ",
"                                  $ N F t $     , i ;     > d ;         O ; 2 % l , |  .. # . . . = # = #                       ",
"                                    q i r ;     - f <     > d -       , M n i 1 1 g 0 X # . # X . # X   .                       ",
"                                    : a i w $   - 5 1     - p ;   : M F F h p 5 - $ *       . .                                 ",
"                                      - u i q &   ; p -     2 ; & q U P D Q n 5 p 1             X                               ",
"                                        : u i p %   p 1     p 5 & y Y ~ y M V g p e -                                           ",
"                                          - w f 5 $ > d ;   1 s 1 G E y 5 u a q , u 1                                           ",
"                                            & < f w - ; p ; & p > N E 9 4 p 5 & q N ;                                           ",
"                                                - 9 a > 1 5 ; > ; D B - 1 ; -   , i >                                           ",
"                                                    - 1 p 2 - q w F 9 % -       O 2 w                                           ",
"                                                        ; & > A r C < > - %       9 g :                                         ",
"                                                      - - % S Y M B : p 2 w > %   < f >                                         ",
"                                                    ; f , , P V S S % ; p g r w - . i <                                         ",
"                                                  2 f p w t U q D 2 $ ; 4 q i i p % 2 w - ;                                     ",
"                                                ; f a - 2 m M N N r t - ; 1 ; 5 a ; 5 f e q ;                                   ",
"                                                  , ,   , u r m 9 n < - - - & & > - , > , & &                                   ",
"                                                                                                                                ",
"                                                                                                                                ",
"                                                                                                                                ",
"                                                                                                                                ",
"                                                                                                                                ",
"                                                                                                                                ",
"                                                                                                                                ",
"                                                                                                                                ",
"                                                                                                                                ",
"                                                                                                                                ",
"                                                                                                                                ",
"                                                                                                                                ",
"                                                                                                                                "
};
