/* XPM */
static char *_ee57336db444bf6e2b1c6c72b0a8d54QwDfk5oCVeLh172U_26[] = {
/* columns rows colors chars-per-pixel */
"64 64 80 1 ",
"  c None",
". c black",
"X c #0A0707",
"o c #00030B",
"O c #190001",
"+ c #160F06",
"@ c #000219",
"# c #00171C",
"$ c #161617",
"% c #290001",
"& c #340001",
"* c #3C0101",
"= c #291819",
"- c #002A21",
"; c #262727",
": c #420001",
"> c #4B0004",
", c #43000C",
"< c #4C000C",
"1 c #540001",
"2 c #5C0202",
"3 c #54010C",
"4 c #5B010C",
"5 c #47001C",
"6 c #540115",
"7 c #5C0115",
"8 c #441110",
"9 c #640102",
"0 c #6C0103",
"q c #63020C",
"w c #6B010C",
"e c #740002",
"r c #7C0103",
"t c #700E06",
"y c #7C0F06",
"u c #74000C",
"i c #7B010B",
"p c #640114",
"a c #6C0114",
"s c #640119",
"d c #6A011A",
"f c #730113",
"g c #7A0212",
"h c #741715",
"j c #422817",
"k c #5B2823",
"l c #820001",
"z c #8B0101",
"x c #880F03",
"c c #85020E",
"v c #880F0B",
"b c #980101",
"n c #980C01",
"m c #96020D",
"M c #970C0D",
"N c #891D05",
"B c #941702",
"V c #9C1802",
"C c #97170E",
"Z c #A40101",
"A c #AB0101",
"S c #A60C03",
"D c #B40401",
"F c #A81401",
"G c #A61C01",
"H c #A6180F",
"J c #B51301",
"K c #B71E01",
"L c #B91E11",
"P c #992503",
"I c #A62502",
"U c #B83106",
"Y c #A8281E",
"T c #C41F01",
"R c #CD2300",
"E c #C92A02",
"W c #D32F01",
"Q c #CB3604",
"! c #DE3601",
"~ c #EF3A02",
/* pixels */
"                                                                ",
"                                                                ",
"                                                                ",
"                                                                ",
"                                                                ",
"                                                                ",
"                                                                ",
"                                                                ",
"                                                                ",
"                                                                ",
"                                                                ",
"                                                                ",
"                                                                ",
"                                                                ",
"                                                                ",
"                                                                ",
"                                                                ",
"                                                                ",
"                                                                ",
"                                     56                         ",
"                                @6  acc66      php              ",
"                          6cIUUUQHpabZAFf    7yKKV7             ",
"                         fTRRRRRW!EcGGGDDh  7cDDDDw             ",
"                        pJ!TT!!!TERKvCInFAp  MFZGDl             ",
"                        vISTWQKKEEE!LiZzGFf nKGAKGb             ",
"                       dSIGGVt&,ptVQ!v,9xAc nFt1yGS             ",
"                       cIGnV9 4ps7<3EWk ,lc%8j#$#jk             ",
"                     56cPGb2  <dsd7*2QY  >:$#$=;=$-$.           ",
"                   fCITGCvq,d 3ss6* oxH  .#$$+$$$==;$           ",
"                 7CT!RT!!QIcfo6dp*    < .++.$XXXX$$$;$          ",
"                 CRTRWE!!!~!WIy7w   * 0e%$....$$X$$$;$          ",
"                pJJETTTIVBIKW!WTx :1q,rA*.X.....X$X$$$.         ",
"                fDSKGZequ2%%1pvKnwq4uxVe.X.......$X$;;.         ",
"                fGFGFr&>lq:  *7,>rlbZvu9.........$X$$;.         ",
"                pNISl1 :iq   3p::<ui3,il:.X.......XX$$.         ",
"                 aPGB% &we%  <p:    *>fu>.X.......$$$.          ",
"                 7cVt%  1l1  <d>    %4p7q1.........$$.          ",
"                 7flr1  :i2  <d:  .0BBuq49.X......X$.           ",
"                  siru< *pp& :p> 3mANfa<:%X......$X.            ",
"                   puui3 :d<  4>%vKZxVzpp3  ......X             ",
"                    auus<*7p* 7>&gGninziw0:                     ",
"                     piua,:73&37*vFlqfsw1f1                     ",
"                      paiu4<73*p*NK2<p3:3i>                     ",
"                       7siip:63<qVb>3>* >f>                     ",
"                         7padp<3wb4,>:  *ww%                    ",
"                           sf67MvDw<:&   9f:                    ",
"                           *O*mAxN<64e<& <c2                    ",
"                          2f12Jzln%>acrp1%r2                    ",
"                         qfpupSuB4%:67wi0O9u:>                  ",
"                        >ia*wcriyyt:>3:7a>qieq>                 ",
"                         11 9irz9l2:::**1>1,1**                 ",
"                                                                ",
"                                                                ",
"                                                                ",
"                                                                ",
"                                                                ",
"                                                                ",
"                                                                ",
"                                                                ",
"                                                                ",
"                                                                ",
"                                                                ",
"                                                                ",
"                                                                "
};
