/* XPM */
static char *_ee57336db444bf6e2b1c6c72b0a8d54QwDfk5oCVeLh172U_27[] = {
/* columns rows colors chars-per-pixel */
"64 64 85 1 ",
"  c None",
". c black",
"X c #0A0707",
"o c #00030B",
"O c #190001",
"+ c #000219",
"@ c #00171C",
"# c #161617",
"$ c #290001",
"% c #340001",
"& c #3C0101",
"* c #291819",
"= c #002A21",
"- c #262727",
"; c #420001",
": c #4B0004",
"> c #43000C",
", c #4C000C",
"< c #540001",
"1 c #5C0202",
"2 c #54010C",
"3 c #5B010C",
"4 c #47001C",
"5 c #540115",
"6 c #5C0115",
"7 c #441110",
"8 c #5C151C",
"9 c #640102",
"0 c #6C0103",
"q c #63020C",
"w c #6B010C",
"e c #740002",
"r c #7C0103",
"t c #700E06",
"y c #7C0F06",
"u c #74000C",
"i c #7B010B",
"p c #640114",
"a c #6C0114",
"s c #640119",
"d c #6A011A",
"f c #730113",
"g c #7A0212",
"h c #741715",
"j c #5B2823",
"k c #712428",
"l c #820001",
"z c #8B0101",
"x c #880F03",
"c c #85020E",
"v c #880F0B",
"b c #980101",
"n c #980C01",
"m c #96020D",
"M c #970C0D",
"N c #891D05",
"B c #941702",
"V c #9C1802",
"C c #97170E",
"Z c #871614",
"A c #A40101",
"S c #AB0101",
"D c #A60C03",
"F c #B40401",
"G c #BC0201",
"H c #A81401",
"J c #A61C01",
"K c #A6180F",
"L c #B51301",
"P c #B71E01",
"I c #B91E11",
"U c #992503",
"Y c #A62502",
"T c #B83106",
"R c #A8281E",
"E c #C41F01",
"W c #CD2300",
"Q c #C92A02",
"! c #D32F01",
"~ c #CB3604",
"^ c #DE3601",
"/ c #EF3A02",
"( c #894340",
") c #A05656",
"_ c #908687",
/* pixels */
"                                                                ",
"                                                                ",
"                                                                ",
"                                                                ",
"                                                                ",
"                                                                ",
"                                                                ",
"                                                                ",
"                                                                ",
"                                                                ",
"                                                                ",
"                                                                ",
"                                                                ",
"                                                                ",
"                                                                ",
"                                                                ",
"                                                                ",
"                                                                ",
"                                                                ",
"                                     45                         ",
"                                +5  acc55      php              ",
"                          5cYTTT~KpabASHf    6yPPV6             ",
"                         fEWWWWW!^QcJJJFFh  6cFFFFw             ",
"                        pL^EE^^^EQWPvCYnHSp  DHAJFl             ",
"                        vYDE!~PPQQQ^IiAzJHf xYJSHJb             ",
"                       dDYJJVt%>ptV~^v>9xSc bGnuUJb             ",
"                       cYJnV9 3ps6,2Q!j >lc bGi2vJc             ",
"                     45cUJb1  ,dsd6&1~R  <f xy+#7x0             ",
"                   fCYEJCvq>d 2ss5& oxK   6>@=--@=#             ",
"                 6CE^WE^^~Ycfo5dp&    ,   ..#####*-#            ",
"                 CWEW!Q^^^/^!Yy6w   & 008OX#X#XX###-.           ",
"                pLLQEEEYVBYP!^!Ex ;<q>ySb7.X.X#####-#           ",
"                fFDPJAequ1$$<pvPnwq3uCb(_9o...XX#X#-#           ",
"                fJHJHr%:lq;  &6>:rlbAZek)r.O...X#X#-#           ",
"                pNYDl< ;iq   2p;;,ui2>gll7......X##-X           ",
"                 aUJB$ %we$  ,p;    &:uu6$.......X##.           ",
"                 6cVt$  <l<  ,d:    $3p6w0<......#..            ",
"                 6flr<  ;i1  ,d;  .0BBuq2uw$...X.X.             ",
"                  siru, &pp% ;p: 2mSNfa,;$$  ....               ",
"                   puui2 ;d,  3:$vPAxVzpp2                      ",
"                    auus,&6p& 6:%gJninziw0;                     ",
"                     piua>;62%26&vHlqfsw<f<                     ",
"                      paiu3,62&p&NP1,p2;2i:                     ",
"                       6siip;52,qVb:2:& :f:                     ",
"                         6padp,2wb3>:;  &ww$                    ",
"                           sf56MvFw,;%   9f;                    ",
"                           &O&mSxN,53e,% ,c1                    ",
"                          1f<1Lzln$:acrp<$r1                    ",
"                         qfpupDuB3$;56wi0O9u;:                  ",
"                        :ia&wcriyyt;:2;6a:qieq:                 ",
"                         << 9irz9l1;;;&&<:<><&&                 ",
"                                                                ",
"                                                                ",
"                                                                ",
"                                                                ",
"                                                                ",
"                                                                ",
"                                                                ",
"                                                                ",
"                                                                ",
"                                                                ",
"                                                                ",
"                                                                ",
"                                                                "
};
