/* XPM */
static char *_ee57336db444bf6e2b1c6c72b0a8d54QwDfk5oCVeLh172U_28[] = {
/* columns rows colors chars-per-pixel */
"64 64 82 1 ",
"  c None",
". c black",
"X c #0A0707",
"o c #00030B",
"O c #190001",
"+ c #00171C",
"@ c #161617",
"# c #290001",
"$ c #340001",
"% c #3C0101",
"& c #291819",
"* c #262727",
"= c #420001",
"- c #4B0004",
"; c #43000C",
": c #4C000C",
"> c #540001",
", c #5C0202",
"< c #54010C",
"1 c #5B010C",
"2 c #47001C",
"3 c #540115",
"4 c #5C0115",
"5 c #441110",
"6 c #640102",
"7 c #6C0103",
"8 c #63020C",
"9 c #6B010C",
"0 c #740002",
"q c #7C0103",
"w c #700E06",
"e c #7C0F06",
"r c #74000C",
"t c #7B010B",
"y c #640114",
"u c #6C0114",
"i c #640119",
"p c #6A011A",
"a c #730113",
"s c #7A0212",
"d c #770B14",
"f c #741715",
"g c #422817",
"h c #744B4E",
"j c #820001",
"k c #8B0101",
"l c #880F03",
"z c #85020E",
"x c #880F0B",
"c c #980101",
"v c #980C01",
"b c #96020D",
"n c #970C0D",
"m c #891D05",
"M c #941702",
"N c #9C1802",
"B c #97170E",
"V c #871614",
"C c #A40101",
"Z c #AB0101",
"A c #A60C03",
"S c #B40401",
"D c #BC0201",
"F c #A81401",
"G c #A61C01",
"H c #A6180F",
"J c #B51301",
"K c #B71E01",
"L c #B91E11",
"P c #992503",
"I c #98291B",
"U c #A62502",
"Y c #A03C03",
"T c #B83106",
"R c #A8281E",
"E c #C41F01",
"W c #CD2300",
"Q c #C92A02",
"! c #D32F01",
"~ c #DE3601",
"^ c #894340",
"/ c #908687",
/* pixels */
"                                                                ",
"                                                                ",
"                                                                ",
"                                                                ",
"                                                                ",
"                                                                ",
"                                                                ",
"                                                                ",
"                                                                ",
"                                                                ",
"                                                                ",
"                                                                ",
"                                                                ",
"                                                                ",
"                                                                ",
"                                                                ",
"                                                                ",
"                                                                ",
"                                                                ",
"                                     32                         ",
"                                33  pzs24      4#               ",
"                           anTTTTs:uzZDCa     tzr:i             ",
"                         4HQWWWWWWTlAUFDSiy  sSDDb%             ",
"                        2H!!E!~~!W!nePGFSb   ASUGD7             ",
"                        uFGSEKcGKQ!~UqcMKZ2 mJGvGFz             ",
"                       pbNUGm%..3flQ~s;7mAd cDGxPGz             ",
"                       uFGPe$ >1pi3$vH  3ad cDe;PG0             ",
"                       zUGkX  %yip<%oUI   i cj ;nG6             ",
"                    dBVnme:   -ii-   6d:    y  9SvO             ",
"                  yBE~~EUUtu2o3p<     O      O@&x7              ",
"                 dEW!W~~~!~!LBe4#       o+  .@*@+@              ",
"                2HWE!JKUUPGT~~!Kc    >;tcj3 @@X@&gX             ",
"                uvcUFc-;9>O$,1xKA0 :89ukR^0;+...@*@             ",
"                ,APPM> >s4=- %4;:<%19cCch/Zw.O..X*@             ",
"                =lYC7O %a1   <p- %:zbb8yqcB0.X..@@.             ",
"                 :nUw   17   :p-==-<:$;tsw$=$..@@.              ",
"                 #zNw#  >t-  :p-     =>319lj= X.                ",
"                  8tq-  =a,  :p=   >clta1:08                    ",
"                  ;ut9# =4<  =y- 5lANdy66%.                     ",
"                   =rt8% -y=  1: ,GSMBl8y1>                     ",
"                    ;rty$ y<  y:$1CJeklzyt,                     ",
"                     =9a4#:p- <4 >Fc8rru<r>                     ",
"                      %,a9--y-%y=-Gc:41<=a1                     ",
"                        =6u:<8><;0C0:1=$=t9                     ",
"                          =<4y<19cz#--  X7r#                    ",
"                            =<3nrZ0%=$   ,a-                    ",
"                           ==#mAjM:369;$ ;z,                    ",
"                          -a>>SMjc$-uzt9%;k,                    ",
"                         1ay9wF8M1#=<yrt9#7q=-                  ",
"                        -au=1klteew=-<=4a-9j08-                 ",
"                         >> >rqk6j,===%%;=>:>%%                 ",
"                                                                ",
"                                                                ",
"                                                                ",
"                                                                ",
"                                                                ",
"                                                                ",
"                                                                ",
"                                                                ",
"                                                                ",
"                                                                ",
"                                                                ",
"                                                                ",
"                                                                "
};
