/* XPM */
static char *_ee57336db444bf6e2b1c6c72b0a8d54QwDfk5oCVeLh172U_29[] = {
/* columns rows colors chars-per-pixel */
"64 64 81 1 ",
"  c None",
". c black",
"X c #0A0707",
"o c #190001",
"O c #000219",
"+ c #161617",
"@ c #290001",
"# c #340001",
"$ c #3C0101",
"% c #262727",
"& c #420001",
"* c #4B0004",
"= c #43000C",
"- c #4C000C",
"; c #540001",
": c #5C0202",
"> c #54010C",
", c #5B010C",
"< c #47001C",
"1 c #540115",
"2 c #5C0115",
"3 c #441110",
"4 c #43141C",
"5 c #5C151C",
"6 c #640102",
"7 c #6C0103",
"8 c #63020C",
"9 c #6B010C",
"0 c #740002",
"q c #7C0103",
"w c #700E06",
"e c #7C0F06",
"r c #74000C",
"t c #7B010B",
"y c #640114",
"u c #6C0114",
"i c #640119",
"p c #6A011A",
"a c #730113",
"s c #7A0212",
"d c #770B14",
"f c #741715",
"g c #712428",
"h c #820001",
"j c #8B0101",
"k c #880F03",
"l c #85020E",
"z c #880F0B",
"x c #980101",
"c c #980C01",
"v c #96020D",
"b c #970C0D",
"n c #891D05",
"m c #941702",
"M c #9C1802",
"N c #97170E",
"B c #871614",
"V c #A40101",
"C c #AB0101",
"Z c #A60C03",
"A c #B40401",
"S c #BC0201",
"D c #A81401",
"F c #A61C01",
"G c #A6180F",
"H c #B51301",
"J c #B71E01",
"K c #992503",
"L c #98291B",
"P c #A62502",
"I c #A03C03",
"U c #B83106",
"Y c #A23E3E",
"T c #C41F01",
"R c #CD2300",
"E c #C92A02",
"W c #D32F01",
"Q c #CB3604",
"! c #DE3601",
"~ c #A05656",
"^ c #818183",
/* pixels */
"                                                                ",
"                                                                ",
"                                                                ",
"                                                                ",
"                                                                ",
"                                                                ",
"                                                                ",
"                                                                ",
"                                                                ",
"                                                                ",
"                                                                ",
"                                                                ",
"                                                                ",
"                                                                ",
"                                                                ",
"                                                                ",
"                                                                ",
"                                                                ",
"                                                                ",
"                                                                ",
"                                     y1        i                ",
"                            =lBBl1 2aPvs1     yy&=p             ",
"                          fNERRRRPfzKDASv2y  2ZCVu=             ",
"                         lWEWRTTRWJnNVMFSa2  vSASC;             ",
"                        2JTTTEEWWW!EzjDMHv  5ZCKDAt             ",
"                        lFZADk:6zPE!Q9ehZCa xSFKFFl             ",
"                       pVDPM:.@=2=1zQNO,ycs xSMuKFt             ",
"                       sPFm;  &ypp2o6UB  2y xA:@KF7             ",
"                      4lKK0   &yi1$  kB   i t8 ,MM;             ",
"                   yNUUPvl#<2 >iy$    >y    2 #sJe              ",
"                 <bERRWWRTUGd11i-            o.rM,              ",
"                 lWWWW!!WW!!!!Fr:h          X+++*               ",
"                2DHJRHjwww6kFPEEJm  &;=rj: .+.+%.               ",
"                9DmFD7X>t,@o..>knD0699wxYg:....+o               ",
"                ;FIMh& &a2   >p=  @6hKLh^~x3=.+X                ",
"                 6KFw  $u8   -y&*&,vNd9rxDj;>                   ",
"                 =vPw   :0#  -y&&&&;=#2uhqr;                    ",
"                 @wjr$  -s;  -p*    ;70,29h:                    ",
"                  -at:  $u;  -p*  *wVhauy-$                     ",
"                   >rr-  >2# #2* >CCczy1,$                      ",
"                    ,rr* &y-  2-#rZDmPmui,                      ",
"                     ,tu- >y# yi*zFn9eka,r-                     ",
"                      ;aa>#2> >2,mJ91uy>;s;                     ",
"                       &:t>&2>&y=lD;>>-@6l*                     ",
"                         &>y>2>-,x8$*&  &y,                     ",
"                           *>-&lrD7#&    :t=                    ",
"                             oyMkN>2;&#  :a=                    ",
"                          #,*&cFkn=>uq9- *r;                    ",
"                         *yp,8Aqmw@&2rht>X76.                   ",
"                        $8u>ylx,z>*&*18aa&2a6;                  ",
"                        *82$;njvtcw&**$-,*,,7;&                 ",
"                            ;;60:7                              ",
"                                                                ",
"                                                                ",
"                                                                ",
"                                                                ",
"                                                                ",
"                                                                ",
"                                                                ",
"                                                                ",
"                                                                ",
"                                                                ",
"                                                                ",
"                                                                "
};
