/* XPM */
static char *_ee57336db444bf6e2b1c6c72b0a8d54QwDfk5oCVeLh172U_3[] = {
/* columns rows colors chars-per-pixel */
"64 64 124 2 ",
"   c None",
".  c black",
"X  c #0A0707",
"o  c #00030B",
"O  c #190001",
"+  c #160F06",
"@  c #001F03",
"#  c #000219",
"$  c #110519",
"%  c #00171C",
"&  c #161617",
"*  c #290001",
"=  c #340001",
"-  c #231805",
";  c #291819",
":  c #010126",
">  c #00033B",
",  c #062F39",
"<  c #262727",
"1  c #3C3732",
"2  c #43000C",
"3  c #441403",
"4  c #441110",
"5  c #5C151C",
"6  c #640102",
"7  c #6C0103",
"8  c #7C0103",
"9  c #700E06",
"0  c #7B010B",
"q  c #730113",
"w  c #7A0212",
"e  c #741715",
"r  c #422817",
"t  c #712306",
"y  c #663A0F",
"u  c #7A3E0D",
"i  c #57002A",
"p  c #40093E",
"a  c #402829",
"s  c #5B2823",
"d  c #5B3D31",
"f  c #180C41",
"g  c #000451",
"h  c #22105A",
"j  c #2D3F45",
"k  c #364C5D",
"l  c #434244",
"z  c #594A49",
"x  c #49545A",
"c  c #575357",
"v  c #5C5F5C",
"b  c #744B4E",
"n  c #5D6770",
"m  c #736461",
"M  c #75736E",
"N  c #880F03",
"B  c #85020E",
"V  c #980101",
"C  c #96020D",
"Z  c #891D05",
"A  c #941702",
"S  c #97170E",
"D  c #871614",
"F  c #A40101",
"G  c #AB0101",
"H  c #BC0201",
"J  c #B71E01",
"K  c #992503",
"L  c #9E3F1E",
"P  c #A03C03",
"I  c #C92A02",
"U  c #D32F01",
"Y  c #CB3604",
"T  c #834101",
"R  c #86441F",
"E  c #A75901",
"W  c #956002",
"Q  c #8C7E02",
"!  c #8E5822",
"~  c #A45F20",
"^  c #9B7937",
"/  c #A1633F",
"(  c #D75204",
")  c #DF6707",
"_  c #F26005",
"`  c #C15B23",
"'  c #DE7B25",
"]  c #C17A3A",
"[  c #895D41",
"{  c #BE4F43",
"}  c #A05656",
"|  c #B17D5C",
" . c #A87F73",
".. c #BE8009",
"X. c #BF962E",
"o. c #FB8004",
"O. c #EB9A07",
"+. c #C9B104",
"@. c #E0BF05",
"#. c #FBB50A",
"$. c #DE9A2E",
"%. c #E6B42B",
"&. c #FACB07",
"*. c #FEF700",
"=. c #FBE739",
"-. c #BE9C73",
";. c #D3825A",
":. c #D89F6A",
">. c #F89877",
",. c #F4B163",
"<. c #908687",
"1. c #999898",
"2. c #B69C96",
"3. c #A7A9AD",
"4. c #BCB1B2",
"5. c #D89E87",
"6. c #D7B288",
"7. c #F5B580",
"8. c #DBB5A9",
"9. c #F4D189",
"0. c #F2C8B8",
"q. c #FBE3AA",
"w. c #B3B7C4",
"e. c #CCCCCD",
/* pixels */
"                                                                                                                                ",
"                                                                                                                                ",
"                                                                                                                                ",
"                                                                                                                                ",
"                                                                                                                                ",
"                                                                                                                                ",
"                                                                                                                                ",
"                                                                                                                                ",
"                                                                                                                                ",
"                                                                                                                                ",
"                                                                                                                                ",
"                                                                                                                                ",
"                                                                                                                                ",
"                                                                                                                                ",
"                                                                                                                                ",
"                                                                                                                                ",
"                                                                                                                                ",
"                                                                                                                                ",
"                                                                                                                                ",
"                                                                                                                                ",
"                                                                                                                                ",
"                                                                                                                                ",
"                                                                                                                                ",
"                                                                                                                                ",
"                                                                / K /                                                           ",
"                                                              } 8.| 6...B                                                       ",
"                                                            P 6.q.=.@.&...P                                                     ",
"                                                            E %.-.@.+.Q W E E                                                   ",
"                                                          6 T x g > 3.e.w.<.N                                                   ",
"                                                      X o + . d ^ c <.4.1.k                                                     ",
"                                                X X X X X - . ] %.0.2.,. ..                                                     ",
"                                                X X X   X     y { 9.q.9.;..                                                     ",
"                                                      X X       . | :.] T                                                       ",
"                                                . X X X     & 1 l O m m .                                                       ",
"                                                  X X   . . l c z 1 l l l <                                                     ",
"                                                      & 1 l c < , j ; 1 l 1                                                     ",
"                                                    . l c l , 8 O.@.X.5 s j O                                                   ",
"                                                    a c c 1 . ` &.*.$.i S , .                                                   ",
"                                                  O j d l ;   ~ O.&.&.[ V l l &                                                 ",
"                                                  . [ :.#     o C ..%.v O 1 c 1 ! d                                             ",
"                                                  . :.q.|     . W ~ q L P s j t :.5.                                            ",
"                                                  * ,.7.] #   i O.&.O.( ( Y a u ;.M                                             ",
"                                                    u u =     n 4.5.' Z P ( ) K .                                               ",
"                                                            % 4.e.3.p . D ( o.o.e                                               ",
"                                                          . ~ #.>./ .   = B U o.P o                                             ",
"                                                          ! o.( H 7       0 J I K o                                             ",
"                                                        6 #.O.G s         F _ _ 9                                               ",
"                                                        2 ) ( B @         9 A w #                                               ",
"                                                        % & 3 o           . % %                                                 ",
"                                                      : > , o             f h f f y                                             ",
"                                                    y /  .b .             $ f g z ~ 4                                           ",
"                                                    r R [ y                                                                     ",
"                                                                                                                                ",
"                                                                                                                                ",
"                                                                                                                                ",
"                                                                                                                                ",
"                                                                                                                                ",
"                                                                                                                                ",
"                                                                                                                                ",
"                                                                                                                                ",
"                                                                                                                                ",
"                                                                                                                                ",
"                                                                                                                                ",
"                                                                                                                                "
};
