/* XPM */
static char *_ee57336db444bf6e2b1c6c72b0a8d54QwDfk5oCVeLh172U_30[] = {
/* columns rows colors chars-per-pixel */
"64 64 77 1 ",
"  c None",
". c black",
"X c #0A0707",
"o c #190001",
"O c #160F06",
"+ c #000219",
"@ c #00171C",
"# c #290001",
"$ c #340001",
"% c #3C0101",
"& c #420001",
"* c #4B0004",
"= c #43000C",
"- c #4C000C",
"; c #540001",
": c #5C0202",
"> c #54010C",
", c #5B010C",
"< c #441403",
"1 c #47001C",
"2 c #540115",
"3 c #5C0115",
"4 c #640102",
"5 c #6C0103",
"6 c #63020C",
"7 c #6B010C",
"8 c #740002",
"9 c #7C0103",
"0 c #700E06",
"q c #7C0F06",
"w c #74000C",
"e c #7B010B",
"r c #640114",
"t c #6C0114",
"y c #640119",
"u c #6A011A",
"i c #730113",
"p c #7A0212",
"a c #741715",
"s c #712428",
"d c #820001",
"f c #8B0101",
"g c #880F03",
"h c #85020E",
"j c #880F0B",
"k c #980101",
"l c #980C01",
"z c #96020D",
"x c #970C0D",
"c c #891D05",
"v c #941702",
"b c #9C1802",
"n c #97170E",
"m c #871614",
"M c #A40101",
"N c #AB0101",
"B c #A60C03",
"V c #B40401",
"C c #BC0201",
"Z c #A81401",
"A c #A61C01",
"S c #A6180F",
"D c #B51301",
"F c #B71E01",
"G c #B91E11",
"H c #992503",
"J c #A62502",
"K c #A03C03",
"L c #B83106",
"P c #A23E3E",
"I c #C41F01",
"U c #CD2300",
"Y c #C92A02",
"T c #D32F01",
"R c #DE3601",
"E c #EF3A02",
"W c #908687",
/* pixels */
"                                                                ",
"                                                                ",
"                                                                ",
"                                                                ",
"                                                                ",
"                                                                ",
"                                                                ",
"                                                                ",
"                                                                ",
"                                                                ",
"                                                                ",
"                                                                ",
"                                                                ",
"                                                                ",
"                                                                ",
"                                                                ",
"                                                                ",
"                                   &                            ",
"                    2       *;     %%                           ",
"                    0m      89     66                           ",
"                    0Gm    oMf     gg                           ",
"                     vS    ;Nk#   .ZZo                          ",
"                     qUry  qCZ:   :VN$                          ",
"                     0Rm1 #BCCl. .dDB8                          ",
"                     9RL  #NCCV; &bMM8                          ",
"                   *.JRTr $ZCVV0 8JbM4                          ",
"         2pp       *$YRRm3 cBACg.fMJH4#                         ",
"          ;GH       *YTRG+ 6ZAZH:ZHHv;                          ",
"           9Rn+u    *LUIYa &vMbHwvHkd$                          ",
"           .YRh1    ;kIYYc #dklM89dd9%                          ",
"           #FEI2   $;dFFLm  :ffkf9df6                           ",
"            vRRh   #:wkNAt  ;e7dk:dd;                           ",
"            qRRY3y  ;wlJk3  %twe55f9$                           ",
"            qTUTj1  &2cKdr  #6wt7df:                            ",
"            4UYIAr   2cHdr   :errd9%                            ",
"            ;bYIJj   >tdfy   *tr7f:                             ",
"            #gDFZxt  *ywew   -u37d;    *                        ",
"             ;MDJAp   >twh3  -u3w9  y 2%74;                     ",
"              gJlAn2  &twdt  -u>d4 u>hzm7594,5                  ",
"              ;Zz0Hp  &3tiw  -y>d>  $;0xzkqhSl%                 ",
"               4nqtey  %rir>  3,5% *rHg2thbSNd&                 ",
"                ,eiwitr =3tu>#3,5$;5gCN4,t9lPh#                 ",
"                 =,tewiii73>r>*r**r0Zjw7-t9HWs&                 ",
"                   %;797itw8323--7-qA6rwrrwg9q#                 ",
"                     %&%$$*>3r2,dd;kh-rt3%>77%@O                ",
"                            %&>9fd6g>3&%  -r*.XX                ",
"                              -MHgrn033%  -w,#..                ",
"                          $86 qJA8-gb-yr&  6e;                  ",
"                         $8dd=kAg%;7vq3u3% %77o                 ",
"                        %8p>d9NV*#e,6j>ru&  >i4;;               ",
"                        ;5-%;BV4 ;6kzwl0,& &6-4;&               ",
"                            <0:   %4545                         ",
"                                                                ",
"                                                                ",
"                                                                ",
"                                                                ",
"                                                                ",
"                                                                ",
"                                                                ",
"                                                                ",
"                                                                ",
"                                                                ",
"                                                                ",
"                                                                "
};
