/* XPM */
static char *_ee57336db444bf6e2b1c6c72b0a8d54QwDfk5oCVeLh172U_31[] = {
/* columns rows colors chars-per-pixel */
"64 64 75 1 ",
"  c None",
". c black",
"X c #0A0707",
"o c #190001",
"O c #000219",
"+ c #290001",
"@ c #340001",
"# c #3C0101",
"$ c #2C041B",
"% c #420001",
"& c #4B0004",
"* c #43000C",
"= c #4C000C",
"- c #540001",
"; c #5C0202",
": c #54010C",
"> c #5B010C",
", c #47001C",
"< c #540115",
"1 c #5C0115",
"2 c #640102",
"3 c #6C0103",
"4 c #63020C",
"5 c #6B010C",
"6 c #740002",
"7 c #7C0103",
"8 c #700E06",
"9 c #7C0F06",
"0 c #74000C",
"q c #7B010B",
"w c #640114",
"e c #6C0114",
"r c #640119",
"t c #6A011A",
"y c #730113",
"u c #7A0212",
"i c #770B14",
"p c #741715",
"a c #744B4E",
"s c #820001",
"d c #8B0101",
"f c #880F03",
"g c #85020E",
"h c #880F0B",
"j c #980101",
"k c #980C01",
"l c #96020D",
"z c #970C0D",
"x c #891D05",
"c c #941702",
"v c #9C1802",
"b c #97170E",
"n c #871614",
"m c #A40101",
"M c #AB0101",
"N c #A60C03",
"B c #B40401",
"V c #BC0201",
"C c #A81401",
"Z c #A61C01",
"A c #A6180F",
"S c #B51301",
"D c #B71E01",
"F c #B91E11",
"G c #992503",
"H c #A62502",
"J c #A8281E",
"K c #C41F01",
"L c #CD2300",
"P c #C92A02",
"I c #D32F01",
"U c #DE3601",
"Y c #EF3A02",
"T c #894340",
"R c #908687",
/* pixels */
"                                                                ",
"                                                                ",
"                                                                ",
"                                                                ",
"                                                                ",
"                                                                ",
"                                                                ",
"                                                                ",
"                                                                ",
"                                                                ",
"                                                                ",
"                                                                ",
"                                                                ",
"                                                                ",
"                                                                ",
"                                                                ",
"                                                                ",
"                                                                ",
"                                                                ",
"                                                                ",
"                           r1                                   ",
"                           ee      1                            ",
"                   r      @Cn      gw                           ",
"                  1w      3Vg.   ,uM#                           ",
"                  np     @vVu.   iVM+                           ",
"                 $bb,    8BVg  <nVVm@                           ",
"                 *ZP,   #jMVi  uVVVso                           ",
"                 oUP,  @;MCM1 eZSMm2                            ",
"        r        <PIn   dCHNr hvZvc&                            ",
"        wr       :KUbO +fZCb<gCcGH9                             ",
"        =r      X7UPF< %GHmuOyjsvc@                             ",
"        4e      .GIHP1t%Gfdy 5077%#                             ",
"        GG,      xZkDn &s7qe*504%                               ",
"       .HF,      8Hvvg %e0y<-qy%                                ",
"       .ZUy      >CGG0  >qe=1y>                                 ",
"        3UH      *lj7ur -qe=w0#                                 ",
"        &UIy     +6s0qe %yqww5+                                 ",
"        .HYDw     :70qy& 5qwr:                                  ",
"         fUIPn,   @w70e: :u5::                                  ",
"         %KILDhw   &tyyr:+<y;:%  @#%&%+-  -                     ",
"         XvUBZZZ9*  1werr:#:5-#&4gHvsq=fc 6f                    ",
"          +cDHzvHp<% @&1rt1::%8kNVVVvsd4Nf+Gk                   ",
"           .hjvxhbq5>&#@=&:1*4jdvHHkdss74bv;k4#                 ",
"            o:9ssyyytww<%:w:-Gf779f667ss5ehfxCj&                ",
"              @:4eeewww=&=&o6Zfey70473475>ezAJv2                ",
"                  #####     6DCw0q>7s675;>w8kmj#                ",
"                            &CBwwy406>ss7<0j9RT#                ",
"                          % +gZf*r1>s4w1025Zman-                ",
"                         ;g5#0Z9o&%:72<1:%&bq33                 ",
"                        #3e0q3Nu* =<w>=1@ %&:1@                 ",
"                        4y=%4uge%+3hi06e%  ->46:                ",
"                        -&& @**% .7k8s8&   -:&-#                ",
"                                  #+                            ",
"                                                                ",
"                                                                ",
"                                                                ",
"                                                                ",
"                                                                ",
"                                                                ",
"                                                                ",
"                                                                ",
"                                                                ",
"                                                                ",
"                                                                "
};
