/* XPM */
static char *_ee57336db444bf6e2b1c6c72b0a8d54QwDfk5oCVeLh172U_32[] = {
/* columns rows colors chars-per-pixel */
"64 64 95 2 ",
"   c None",
".  c black",
"X  c #190001",
"o  c #290001",
"O  c #340001",
"+  c #3C0101",
"@  c #2C041B",
"#  c #420001",
"$  c #4B0004",
"%  c #43000C",
"&  c #4C000C",
"*  c #540001",
"=  c #5C0202",
"-  c #54010C",
";  c #5B010C",
":  c #47001C",
">  c #540115",
",  c #5C0115",
"<  c #441110",
"1  c #43141C",
"2  c #640102",
"3  c #6C0103",
"4  c #63020C",
"5  c #6B010C",
"6  c #740002",
"7  c #7C0103",
"8  c #700E06",
"9  c #7C0F06",
"0  c #74000C",
"q  c #7B010B",
"w  c #640114",
"e  c #6C0114",
"r  c #640119",
"t  c #6A011A",
"y  c #730113",
"u  c #7A0212",
"i  c #770B14",
"p  c #741715",
"a  c #5B3D31",
"s  c #712428",
"d  c #434244",
"f  c #594A49",
"g  c #744B4E",
"h  c #736461",
"j  c #75736E",
"k  c #820001",
"l  c #8B0101",
"z  c #880F03",
"x  c #85020E",
"c  c #880F0B",
"v  c #980101",
"b  c #980C01",
"n  c #96020D",
"m  c #970C0D",
"M  c #891D05",
"N  c #941702",
"B  c #9C1802",
"V  c #97170E",
"C  c #871614",
"Z  c #A40101",
"A  c #AB0101",
"S  c #A60C03",
"D  c #B40401",
"F  c #BC0201",
"G  c #A81401",
"H  c #A61C01",
"J  c #A6180F",
"K  c #B51301",
"L  c #B71E01",
"P  c #992503",
"I  c #9E3F1E",
"U  c #A62502",
"Y  c #B83106",
"T  c #A8281E",
"R  c #C41F01",
"E  c #CD2300",
"W  c #C92A02",
"Q  c #D32F01",
"!  c #CB3604",
"~  c #DE3601",
"^  c #894340",
"/  c #895D41",
"(  c #A05656",
")  c #956964",
"_  c #8F7967",
"`  c #A87F73",
"'  c #818183",
"]  c #908687",
"[  c #999898",
"{  c #B69C96",
"}  c #A7A9AD",
"|  c #BCB1B2",
" . c #DBB5A9",
".. c #B3B7C4",
"X. c #CCCCCD",
/* pixels */
"                                                                                                                                ",
"                                                                                                                                ",
"                                                                                                                                ",
"                                                                                                                                ",
"                                                                                                                                ",
"                                                                                                                                ",
"                                                                                                                                ",
"                                                                                                                                ",
"                                                                                                                                ",
"                                                                                                                                ",
"                                                                                                                                ",
"                                                                                                                                ",
"                                                                                                                                ",
"                                                                                                                                ",
"                                                                                                                                ",
"                                                                                                                                ",
"                                                                                                                                ",
"                                                                                                                                ",
"                                                        O                                                                       ",
"                                                      2 =                                                                       ",
"                                      w w           . b 7                                                                       ",
"                                      C 9         o 2 b #                                                                       ",
"                                    , V J >       . l v X                                                                       ",
"                                    > D D w r     % B B #                                                                       ",
"                                    w A D C >     2 U S 4                                                                       ",
"                        r           c U K x     o 7 S U M o                                                                     ",
"                        ,         @ n H U n ,   o 9 G U P o                                                                     ",
"                      w C r         u Z S U ; o   2 U G Z - O                                                                   ",
"                      , L u         > U U H x o   % B F D 2 O                                                                   ",
"                    > C ~ J :         i H v l *   X v D S 2                                                                     ",
"                      C ~ Q e         & v v 5 5 #   3 B 9 y #                                                                   ",
"                      % W ~ L y       + - q 0 y 5   $ k q 0 #                                                                   ",
"                      o G ~ Q E P w       4 0 0 0 &   4 y 0 O                                                                   ",
"                      O y L H L L L x r > $ e q 0 4   ; t e $                                                                   ",
"                        & c U H U U S U e X + e 0 y * + r , +                                                                   ",
"                          + 6 v l l b z k 0 - # w y > + r -   O + ; ; ; $ +                                                     ",
"                            . * 4 e 7 u y 0 y - O - r & , & < k l v v l 9 6 ; O                                                 ",
"                                  o o = 5 y q y ; o , w + - B R Q Q E L U b k 9 +                                               ",
"                                  r C e > ; 4 0 q * - - - B F Q ~ ~ W L Z Z Z b c %                                             ",
"                            : y c Z U B 0 e , ; 4 e - + 0 K Q Q L U B k k k l k N 2                                             ",
"                        , V Y A U P k k q y 7 0 , , - + l F Q ! ! B v l k k 7 7 C p %       ' ' '                               ",
"                      i L ~ R G U G x 3 ; e q y t w & - A ~ Q H N k k k k k q k ^ _ ( 7     ' ' [ ]                             ",
"                r y J E ~ Q S N z 2 % +   & & & - w - 4 G Y H v l k k k k k C 2 ) ' h N C     ] } }                             ",
"            r e m R ~ Q K m 5 # o                 $ # 7 N 9 7 k k k k k 6 = p 7 h | [ w S = d [ [                               ",
"                r 4 z 8 X o                         O 7 z k k k k k k k 4 7 e 5 = [ ../ k J b ' '                               ",
"                  o                                 O w k 7 0 0 0 q k 6 4 k 7 , > $ } { v T N ] '                               ",
"                                                      & v k > 0 0 0 0 5 6 7 4 i * a X.| v Z k ] X.]                             ",
"                                                    # o l G - w e e 0 4 7 6 & C 6 f |  .7 ] s ' [                               ",
"                                                  = x 4 4 U c , r r w , 7 3 % w t + ' | I g s j                                 ",
"                                                + 3 e 0 6 B Z & , , r > w 4 > - , & 6 ` ) l p h                                 ",
"                                                4 y & # ; x x # - - 5 9 i 0 6 4 #   & 7 ^ ; ; $                                 ",
"                                                * $ $   + > w # $ + 6 b 8 k 8 $       1 2 # * <                                 ",
"                                                          # #       O o                                                         ",
"                                                                                                                                ",
"                                                                                                                                ",
"                                                                                                                                ",
"                                                                                                                                ",
"                                                                                                                                ",
"                                                                                                                                ",
"                                                                                                                                ",
"                                                                                                                                ",
"                                                                                                                                ",
"                                                                                                                                ",
"                                                                                                                                "
};
