/* XPM */
static char *_ee57336db444bf6e2b1c6c72b0a8d54QwDfk5oCVeLh172U_33[] = {
/* columns rows colors chars-per-pixel */
"64 64 94 2 ",
"   c None",
".  c black",
"X  c #00030B",
"o  c #190001",
"O  c #290001",
"+  c #340001",
"@  c #3C0101",
"#  c #2C041B",
"$  c #3C3732",
"%  c #420001",
"&  c #4B0004",
"*  c #43000C",
"=  c #4C000C",
"-  c #540001",
";  c #5C0202",
":  c #54010C",
">  c #5B010C",
",  c #47001C",
"<  c #540115",
"1  c #5C0115",
"2  c #441110",
"3  c #5C151C",
"4  c #640102",
"5  c #6C0103",
"6  c #63020C",
"7  c #6B010C",
"8  c #740002",
"9  c #7C0103",
"0  c #700E06",
"q  c #7C0F06",
"w  c #74000C",
"e  c #7B010B",
"r  c #640114",
"t  c #6C0114",
"y  c #640119",
"u  c #6A011A",
"i  c #730113",
"p  c #7A0212",
"a  c #770B14",
"s  c #741715",
"d  c #5B2823",
"f  c #712428",
"g  c #734331",
"h  c #575357",
"j  c #744B4E",
"k  c #736461",
"l  c #75736E",
"z  c #820001",
"x  c #8B0101",
"c  c #880F03",
"v  c #85020E",
"b  c #880F0B",
"n  c #980101",
"m  c #980C01",
"M  c #970C0D",
"N  c #891D05",
"B  c #941702",
"V  c #9C1802",
"C  c #97170E",
"Z  c #871614",
"A  c #A40101",
"S  c #AB0101",
"D  c #A60C03",
"F  c #B40401",
"G  c #BC0201",
"H  c #A81401",
"J  c #A61C01",
"K  c #A6180F",
"L  c #B51301",
"P  c #B71E01",
"I  c #992503",
"U  c #98291B",
"Y  c #A62502",
"T  c #A03C03",
"R  c #B83106",
"E  c #A8281E",
"W  c #A23E3E",
"Q  c #C41F01",
"!  c #CD2300",
"~  c #C92A02",
"^  c #D32F01",
"/  c #CB3604",
"(  c #DE3601",
")  c #EF3A02",
"_  c #A05656",
"`  c #8F7967",
"'  c #818183",
"]  c #908687",
"[  c #999898",
"{  c #B69C96",
"}  c #A7A9AD",
"|  c #BCB1B2",
" . c #CCCCCD",
".. c #E9DDD8",
/* pixels */
"                                                                                                                                ",
"                                                                                                                                ",
"                                                                                                                                ",
"                                                                                                                                ",
"                                                                                                                                ",
"                                                                                                                                ",
"                                                                                                                                ",
"                                                                                                                                ",
"                                                                                                                                ",
"                                                                                                                                ",
"                                                                                                                                ",
"                                                                                                                                ",
"                                                                                                                                ",
"                                                                                                                                ",
"                                                                                                                                ",
"                                                                                                                                ",
"                                                                                                                                ",
"                                                                                                                                ",
"                                                      +                                                                         ",
"                                                    5 ;                                                                         ",
"                                    r r           O n 8                                                                         ",
"                                    v q         O 0 B +                                                                         ",
"                                  1 m S <       . v v X                                                                         ",
"                                  1 F S 1 y     % H C %                                                                         ",
"                                  t H F a <     7 J T ;                                                                         ",
"                      r           v D L Z     O c Y A e O                                                                       ",
"                      1         # v A Y C 1   O c J H m +                                                                       ",
"                    y Z r         p Y D n :     7 J Y D & +                                                                     ",
"                    r P i         < V Y J z .   & V G S > +                                                                     ",
"                  < Z ( M <         e H m v &   @ n P H >                                                                       ",
"                    v ( ~ r         : V B w 7 % o 0 I q w @                                                                     ",
"                    = / ( P a       @ : e t i >   & e w w @                                                                     ",
"                    * K ( ^ ! C r ,     6 e w w &   5 p r @                                                                     ",
"                    O p Q J P P J v y < & t e e 6 o ; t 7 %                                                                     ",
"                      * b Y H Y Y H K t o % t i i & @ r < @                                                                     ",
"                        * q n m c x c z 5 & % t i < @ r :   + % > > > - @                                                       ",
"                          . - 6 7 9 p w w i : + 1 y & 1 % & z x n n c q 8 : O                                                   ",
"                                O + ; 4 i e i : @ r 1 @ > Y Q ^ ^ ! P Y V x w @                                                 ",
"                              , y p t < > 6 w p - : : = n G ^ ( ( ~ L n A D B b +                                               ",
"                          , i b A Y I w 7 r > r t & % q F ^ ^ P Y B z z z x z B >                                               ",
"                    , 1 U P S J V z z i i e w 1 1 : * B L ^ / / n n x z z 9 9 z 8 %                                             ",
"              y     a P ( ! D J J b 7 1 t e t u r = ; S ( ^ Y I z z z z z w b Z g z 9     ' '                                   ",
"              y p K ! ( ! A B c ; = @   < = = : r < 5 D R H n x z z z z z z j k k 0 n b   ] ' '                                 ",
"          y u K Q ) ^ L v 7 @ O                 % = 9 B 9 9 z z z z z 8 > 8 j l ` f 5 K - h [                                   ",
"              y 4 N 0 o +                         * e c z z z z z z z 6 b 5 g } ] z a Z A _ [                                   ",
"                o                                 O 5 z 9 7 w w w z w r b 8 d | ..] n E S ` | [                                 ",
"                                                    : B N < w w w w 6 8 9 4 s [  .] 9 E n ` | [                                 ",
"                                                  & O I J < y t w w > 9 8 = z j ' ] W p ] ] ]                                   ",
"                                                ; v 6 6 D b 1 y y y 1 9 6 = y 4 $ } { A j j '                                   ",
"                                              & w t w w m A = r 1 y < r 1 < : 3 @ [ | 9 x j k                                   ",
"                                              5 i = * r v v % > : 7 9 i e 0 > @   2 [ j - f -                                   ",
"                                              - %     @ 1 1 + - @ 8 n 8 z 0 %       ' j @ - 2                                   ",
"                                                        % %       + O                                                           ",
"                                                                                                                                ",
"                                                                                                                                ",
"                                                                                                                                ",
"                                                                                                                                ",
"                                                                                                                                ",
"                                                                                                                                ",
"                                                                                                                                ",
"                                                                                                                                ",
"                                                                                                                                ",
"                                                                                                                                ",
"                                                                                                                                "
};
