/* XPM */
static char *_ee57336db444bf6e2b1c6c72b0a8d54QwDfk5oCVeLh172U_34[] = {
/* columns rows colors chars-per-pixel */
"64 64 94 2 ",
"   c None",
".  c black",
"X  c #0A0707",
"o  c #190001",
"O  c #290001",
"+  c #340001",
"@  c #3C0101",
"#  c #2C041B",
"$  c #3C3732",
"%  c #420001",
"&  c #4B0004",
"*  c #43000C",
"=  c #4C000C",
"-  c #540001",
";  c #5C0202",
":  c #54010C",
">  c #5B010C",
",  c #47001C",
"<  c #540115",
"1  c #5C0115",
"2  c #441110",
"3  c #5C151C",
"4  c #640102",
"5  c #6C0103",
"6  c #63020C",
"7  c #6B010C",
"8  c #740002",
"9  c #7C0103",
"0  c #700E06",
"q  c #7C0F06",
"w  c #74000C",
"e  c #7B010B",
"r  c #640114",
"t  c #6C0114",
"y  c #640119",
"u  c #6A011A",
"i  c #730113",
"p  c #7A0212",
"a  c #770B14",
"s  c #741715",
"d  c #5B2823",
"f  c #712428",
"g  c #734331",
"h  c #434244",
"j  c #594A49",
"k  c #575357",
"l  c #744B4E",
"z  c #736461",
"x  c #75736E",
"c  c #820001",
"v  c #8B0101",
"b  c #880F03",
"n  c #85020E",
"m  c #880F0B",
"M  c #980101",
"N  c #980C01",
"B  c #96020D",
"V  c #891D05",
"C  c #941702",
"Z  c #9C1802",
"A  c #97170E",
"S  c #871614",
"D  c #A40101",
"F  c #AB0101",
"G  c #A60C03",
"H  c #B40401",
"J  c #BC0201",
"K  c #A81401",
"L  c #A61C01",
"P  c #A6180F",
"I  c #B51301",
"U  c #B71E01",
"Y  c #992503",
"T  c #A62502",
"R  c #B83106",
"E  c #A23E3E",
"W  c #C41F01",
"Q  c #CD2300",
"!  c #C92A02",
"~  c #D32F01",
"^  c #CB3604",
"/  c #DE3601",
"(  c #EF3A02",
")  c #86441F",
"_  c #A1633F",
"`  c #894340",
"'  c #A05656",
"]  c #818183",
"[  c #908687",
"{  c #999898",
"}  c #B69C96",
"|  c #A7A9AD",
" . c #BCB1B2",
".. c #CCCCCD",
/* pixels */
"                                                                                                                                ",
"                                                                                                                                ",
"                                                                                                                                ",
"                                                                                                                                ",
"                                                                                                                                ",
"                                                                                                                                ",
"                                                                                                                                ",
"                                                                                                                                ",
"                                                                                                                                ",
"                                                                                                                                ",
"                                                                                                                                ",
"                                                                                                                                ",
"                                                                                                                                ",
"                                                                                                                                ",
"                                                                                                                                ",
"                                                                                                                                ",
"                                                                                                                                ",
"                                                                                                                                ",
"                                                        r                                                                       ",
"                                            y           1                                                                       ",
"                                          r r       y r n y                                                                     ",
"                            r             p m       , q H 1                                                                     ",
"                          1 1           # B B <     < G J p                                                                     ",
"                          i n           i H G r   1 s H J B <                                                                   ",
"                          n P         < p J H t   1 G K G e                                                                     ",
"                          R U =       1 B J H t   n K L L *                                                                     ",
"                      y < ^ / r       r F U K 7 y K M K M +                                                                     ",
"                        i ~ / a 1     n K Y G ; r Z Y K 7                                                                       ",
"                        S / ~ T ,   o S T M N % > c L D +                                                                       ",
"                        V ( ~ W r     0 T D M : t b Z >                                                                         ",
"                      . 0 ~ ~ ~ q .   > v M K b r b 0                                                                           ",
"                        4 U ! Q G +   = c 9 e 0 7 v &                                                                           ",
"                          T Q W L :   % i 9 w > t e =                                                                           ",
"                          b W F L c   % t e e > 1 5                                                                             ",
"                          4 I K D b     = t t 7 ; e *         O o o O +                                                         ",
"                          o b T Y V @   % r w w 6 i :   O & > 7 m Y V 1 : @                                                     ",
"      1 a                   = G Z b 6 X   = i e 7 6 6 + > M H U / / ~ F N e : %                                                 ",
"        C Y                 + 6 Z C c 6 O   = t e 7 : 6 K Q / / / / ~ W U T b w @                                               ",
"        + ! T =               . 6 M e e 8 : O * r e : C J / / W U L M v b b v c >                                               ",
"        o 0 / U r   y           @ : w e e e 8 6 : > 7 H ~ / / ! D M M M c c c v e #                                             ",
"            0 ~ / A 1 1 #           % 6 5 w i p w < c ! / U D C N v v v c c 9 c 9 %                                             ",
"              0 ! Q U M c 5 = & & % @ + @ & : < 1 1 M U ! U v 9 c c c c c 9 a c ) j $     ] ] ]                                 ",
"              O & C U F D v e w i r r 1 1 1 1 1 1 4 v N 9 9 c c c c c c c c v A z z z h   ] ] [                                 ",
"                    & b D b v c w e t y t u u u < ; c c c c c c c c c c 7 7 6 e z [ } E . x { {                                 ",
"                      O % > e c e e e w t : % % + = n v c c c c c c c 6 9 e = 4 [ ....` 9 z | [                                 ",
"                        @   + @ : : : : +         @ e F 9 6 w w 9 c w 1 c c 6 3 ] ..[ M H ' ]                                   ",
"                                                    > L Y = w w w w 6 8 9 w m % j { _ F D z [ ]                                 ",
"                                                  % + V K r r t w w 6 9 9 4 m ; k | { s E '  .{                                 ",
"                                                ; n 6 : F n < y r y < 8 t = q 4 h  ...g [ l { {                                 ",
"                                              & w t w 8 N M = 1 1 y = 1 1 = 1 3 + ]  .V c z ]                                   ",
"                                              5 i = @ > e v % : : : w i 8 0 > 2 @ j [ f 9 l j                                   ",
"                                              - %     + : r @ & @ 5 M 8 c 0 %     @ ` d O % @                                   ",
"                                                        % @       % +               @ @                                         ",
"                                                                                                                                ",
"                                                                                                                                ",
"                                                                                                                                ",
"                                                                                                                                ",
"                                                                                                                                ",
"                                                                                                                                ",
"                                                                                                                                ",
"                                                                                                                                ",
"                                                                                                                                ",
"                                                                                                                                ",
"                                                                                                                                "
};
