/* XPM */
static char *_ee57336db444bf6e2b1c6c72b0a8d54QwDfk5oCVeLh172U_36[] = {
/* columns rows colors chars-per-pixel */
"64 64 120 2 ",
"   c None",
".  c black",
"X  c #0A0707",
"o  c #190001",
"O  c #290001",
"+  c #340001",
"@  c #3C0101",
"#  c #420001",
"$  c #4B0004",
"%  c #43000C",
"&  c #4C000C",
"*  c #540001",
"=  c #5C0202",
"-  c #54010C",
";  c #5B010C",
":  c #47001C",
">  c #540115",
",  c #5C0115",
"<  c #441110",
"1  c #5C151C",
"2  c #640102",
"3  c #6C0103",
"4  c #63020C",
"5  c #6B010C",
"6  c #740002",
"7  c #7C0103",
"8  c #700E06",
"9  c #7C0F06",
"0  c #74000C",
"q  c #7B010B",
"w  c #640114",
"e  c #6C0114",
"r  c #640119",
"t  c #6A011A",
"y  c #730113",
"u  c #7A0212",
"i  c #770B14",
"p  c #741715",
"a  c #402829",
"s  c #712428",
"d  c #734331",
"f  c #06374E",
"g  c #2D3F45",
"h  c #736461",
"j  c #820001",
"k  c #8B0101",
"l  c #880F03",
"z  c #85020E",
"x  c #880F0B",
"c  c #980101",
"v  c #980C01",
"b  c #96020D",
"n  c #970C0D",
"m  c #891D05",
"M  c #941702",
"N  c #9C1802",
"B  c #97170E",
"V  c #871614",
"C  c #A40101",
"Z  c #AB0101",
"A  c #A60C03",
"S  c #B40401",
"D  c #BC0201",
"F  c #A81401",
"G  c #A61C01",
"H  c #A6180F",
"J  c #B51301",
"K  c #B71E01",
"L  c #B91E11",
"P  c #992503",
"I  c #A62502",
"U  c #87272A",
"Y  c #A23E3E",
"T  c #C41F01",
"R  c #C71A18",
"E  c #CD2300",
"W  c #C92A02",
"Q  c #D32F01",
"!  c #DE3601",
"~  c #EF3A02",
"^  c #EF211C",
"/  c #D83624",
"(  c #C15B23",
")  c #DC5826",
"_  c #BE4F43",
"`  c #A05656",
"'  c #956964",
"]  c #D85842",
"[  c #CE655B",
"{  c #FC6249",
"}  c #E6765B",
"|  c #FC795D",
" . c #DB8277",
".. c #F7826E",
"X. c #F89877",
"o. c #818183",
"O. c #908687",
"+. c #999898",
"@. c #B69C96",
"#. c #A7A9AD",
"$. c #BCB1B2",
"%. c #D89E87",
"&. c #FB8380",
"*. c #F09D8C",
"=. c #D7B288",
"-. c #F5B580",
";. c #F3B091",
":. c #F2B69F",
">. c #DBB5A9",
",. c #F5B8B0",
"<. c #F2C7A4",
"1. c #F2C8B8",
"2. c #CCCCCD",
"3. c #F0D1C8",
"4. c #E9DDD8",
"5. c #F7E0D4",
"6. c #EFEDED",
"7. c #F0E7E4",
"8. c #F0F2F2",
"9. c white",
/* pixels */
"                                                                                                                                ",
"                                                                                                                                ",
"                                                                                                                                ",
"                                                                                                                                ",
"                                                                                                                                ",
"                                                                                                                                ",
"                                                                                                                                ",
"                                                                                                                                ",
"                                                                                                                                ",
"                                                                                                                                ",
"                                                                                                                                ",
"                                                                                                                                ",
"                                                                                                                                ",
"                                                                                                                                ",
"                                                                                                                                ",
"                                                                                                                                ",
"                                                                                                                                ",
"                                                                                                                                ",
"                                                                                                                                ",
"                                                                                                                                ",
"                                                                                                                                ",
"                                                        & ,                                                                     ",
"                                                      t x #                                                                     ",
"                                      w r           : C l                                                                       ",
"                                      i i         , e C =                                                                       ",
"                                    , B P :       : B Z o                                                                       ",
"                                    > A A w       > S Z &                                                                       ",
"                                    i S S i ,     p J D 6                                                                       ",
"                        r           z D S z     & z D I 9 O                                                                     ",
"                        ,           j D D b :   + z D G N @                                                                     ",
"                      , B           3 S S S p     6 I v c -                                                                     ",
"                      u ! z         o I I S n >   % N c q 2 +                                                                   ",
"                    : V ! B :         9 A I F 0   + z k 0 ;                                                                     ",
"                      P ~ W ,         & c F N 9 . # , 0 q , @                                                                   ",
"                      8 ! ! G ,       @ ; I l e ;   & e 0 e %                           8.                                      ",
"                      O W ! J G w >     X 8 l 0 e @ O 4 y y -                           6.  6.                                  ",
"                      o G ! K F F n e     # y 0 0 ;   $ q e -                           8.  8.  4.6.6.5.                        ",
"                        - L E I I C k q r   & 0 q 0 # # 0 e -                         8.6.,.4.7.5.5.1.    :.:.                  ",
"                          # z N G k j 7 0 w @ & y u ; O e 0 %       # # ; 4 + 9 x     6.1.>.6.9.7.,.;.;...*.:.                  ",
"                            O $ % , e e q y 0 & @ , y # w w +       o # 4 0 j B c 7 f 3.) 6.7.,...{ X.-.*.:.:.:.:.              ",
"                        $ X O 3 B B 9 w w 0 q 0 * O 5 w , -     O * 7 P I P M 7 Y j o.:. .4.:.W c k A ] ;.:.:.:.                ",
"                        + 6 H T E K I k ; > w 0 u $ - w w - X & - 8 m m C x p j O.d @...>.7.[ + I I = * E | ;.:.:.:.            ",
"                O . . 6 G Q ! ! ! K Z c x 5 , - w e > , - % 4 e e F J M > > 5 v k 6 @. .=.:.d ( 3.3.%._ G Z ] X...*.:.:.:.      ",
"              + 3 l K ! ! ! W I m 9 8 6 i y q 5 w > , & $ 6 k 5 q F z q 3 , e 3 s # #. .%...2 } 8.8.1.} R 5 C ) ^ ..:.:.:.:.    ",
"              + 3 B G W N 9 % . . .     O # $ ; y 0 ; $ q j j 5 l N ; 0 0 , w 2 a . 2.&.>.5.` =  . .c $ Z / ..<.:.:.            ",
"                  . o . . X                   + + - ; 4 v 0 e ; M x , e w , $ 9 U O 4.*.%.4. .c = 2 3 J | :.:.:.:.:.            ",
"                                                    @ w S j & ; k w > , @     @ 8 = g 1.W 7.5...! / [ X.:.:.:.:.:.              ",
"                                                    + w F N # @ ; C 4 , , @     % u $ 3.%.3.8.7.3.*.;.X...*.                    ",
"                                                # 5 % - A I =   * v m & t ; #   @ s 2 #.7.*.5.7.7.3.:.  *.;.:.                  ",
"                                              @ 6 j q ; A Z %   & 0 M 3 , t &     a 3 ' 4.6.6.  3.7.4.                          ",
"                                            & 7 0 - 0 j v c . $ q & 8 z & r w #     , 6 $., 2.    6.                            ",
"                                            ; 0 > O % * j 2   $ 6 v l 7 M 3 w $   < 2 1 +.$ h                                   ",
"                                              O         +       $ 6 3 2 2 + #       # + .                                       ",
"                                                                                                                                ",
"                                                                                                                                ",
"                                                                                                                                ",
"                                                                                                                                ",
"                                                                                                                                ",
"                                                                                                                                ",
"                                                                                                                                ",
"                                                                                                                                ",
"                                                                                                                                ",
"                                                                                                                                ",
"                                                                                                                                "
};
