/* XPM */
static char *_ee57336db444bf6e2b1c6c72b0a8d54QwDfk5oCVeLh172U_37[] = {
/* columns rows colors chars-per-pixel */
"64 64 137 2 ",
"   c None",
".  c black",
"X  c #190001",
"o  c #001F03",
"O  c #000219",
"+  c #110519",
"@  c #00171C",
"#  c #290001",
"$  c #340001",
"%  c #3C0101",
"&  c #2C041B",
"*  c #420001",
"=  c #4B0004",
"-  c #43000C",
";  c #4C000C",
":  c #540001",
">  c #5C0202",
",  c #54010C",
"<  c #5B010C",
"1  c #47001C",
"2  c #540115",
"3  c #5C0115",
"4  c #441110",
"5  c #43141C",
"6  c #5C151C",
"7  c #640102",
"8  c #6C0103",
"9  c #63020C",
"0  c #6B010C",
"q  c #740002",
"w  c #7C0103",
"e  c #700E06",
"r  c #7C0F06",
"t  c #74000C",
"y  c #7B010B",
"u  c #640114",
"i  c #6C0114",
"p  c #640119",
"a  c #6A011A",
"s  c #730113",
"d  c #7A0212",
"f  c #770B14",
"g  c #741715",
"h  c #712306",
"j  c #402829",
"k  c #5B2823",
"l  c #820001",
"z  c #8B0101",
"x  c #880F03",
"c  c #85020E",
"v  c #880F0B",
"b  c #980101",
"n  c #980C01",
"m  c #96020D",
"M  c #970C0D",
"N  c #891D05",
"B  c #941702",
"V  c #9C1802",
"C  c #97170E",
"Z  c #871614",
"A  c #A40101",
"S  c #AB0101",
"D  c #A60C03",
"F  c #B40401",
"G  c #BC0201",
"H  c #A81401",
"J  c #A61C01",
"K  c #A6180F",
"L  c #B51301",
"P  c #B71E01",
"I  c #B91E11",
"U  c #992503",
"Y  c #98291B",
"T  c #A62502",
"R  c #A03C03",
"E  c #B83106",
"W  c #A8281E",
"Q  c #87272A",
"!  c #B93826",
"~  c #A23E3E",
"^  c #D80102",
"/  c #C41F01",
"(  c #D9031C",
")  c #DD1E1B",
"_  c #EF0501",
"`  c red",
"'  c #EE0318",
"]  c #CD2300",
"[  c #C92A02",
"{  c #D32F01",
"}  c #CB3604",
"|  c #DE3601",
" . c #EF3A02",
".. c #D83624",
"X. c #FD3731",
"o. c #A1633F",
"O. c #C15B23",
"+. c #DC5826",
"@. c #FE4537",
"#. c #894340",
"$. c #BE4F43",
"%. c #D85842",
"&. c #FD514A",
"*. c #CE655B",
"=. c #FC6249",
"-. c #EE7746",
";. c #F06959",
":. c #E6765B",
">. c #FC795D",
",. c #BA8578",
"<. c #D3825A",
"1. c #DB8277",
"2. c #F7826E",
"3. c #F89877",
"4. c #908687",
"5. c #B69C96",
"6. c #BCB1B2",
"7. c #D89E87",
"8. c #FB8380",
"9. c #F09D8C",
"0. c #FDA287",
"q. c #F3B091",
"w. c #F2B69F",
"e. c #DBB5A9",
"r. c #F5B8B0",
"t. c #D2C5B9",
"y. c #F2C7A4",
"u. c #F2C8B8",
"i. c #CCCCCD",
"p. c #F0D1C8",
"a. c #E9DDD8",
"s. c #F7E0D4",
"d. c #EFEDED",
"f. c #F0E7E4",
"g. c #EDFBFD",
"h. c #F0F2F2",
"j. c white",
/* pixels */
"                                                                                                                                ",
"                                                                                                                                ",
"                                                                                                                                ",
"                                                                                                                                ",
"                                                                                                                                ",
"                                                                                                                                ",
"                                                                                                                                ",
"                                                                                                                                ",
"                                                                                                                                ",
"                                                                                                                                ",
"                                                                                                                                ",
"                                                                                                                                ",
"                                                                                                                                ",
"                                                                                                                                ",
"                                                                                                                                ",
"                                                                                                                                ",
"                                                                                                                                ",
"                                                                                                                                ",
"                                                                                                                                ",
"                                                                                                                                ",
"                                                                                                                                ",
"                                                                                                                                ",
"                                                                                                                                ",
"                                                                                                                                ",
"                                                                                                                                ",
"                                                                                                                                ",
"                                                                                                                                ",
"                                3 d s 2 3                                                                                       ",
"                            3     e D D c i                                                                                     ",
"              p 3 Z D A v d i & p & x G G J e                                                         d.d.        d.d.          ",
"                - 7 F G F G S m Z 3 - V G G D g 3                                                   d.d.      d.j.d.      d.d.d.",
"        3 f a     - > J G F G P J H f < F D H J t                                                 d.j.d.  d.f.f.d.  d.f.h.d.d.  ",
"          z E U 3 2   , H G F S T J H e q T V T b , %                                           g.j.d.  f.s.s.d.f.a.p.s.h.      ",
"            B | } K i 1 < H F J H J B V < r V U x q %                                         ^ s.h.d.f.f.h.f.s.f.a.f.h.f.a.u.q.",
"            . V | | [ Z 2 # x J A B l z l , w l l l :                                       G 2.f.h.j.f.h.f.u.r.r.3.3.r.u.q.w.  ",
"            % * [ | { | I i . q z w l w y 9 < l w y 0 *                                   A ;.d.p.8.1.7.w.2.>.9.w.y.p.a.p.p.w.w.",
"            = # r ] / P / I u # * u s t w t ; 0 t t i =                               _ 7.5.2.9.G b l l S *.q.a.f.u.r.w.9.;.;.2.",
"                # H / J B V M p 3 $ ; u t t 9 , s t i 2 %         * * > > : = v 6     %.a.*.9.*.z j 6 5 3 w P ;.=.%._ _ ;.8.q.y.",
"                  , V H n J n C i ,   * u s s 3 2 s y i %         # # : q w B b b k   w.e.^ 2.%.l < * * , u 8 S ^ %.2.0.9.1.1.;.",
"                    < v V U b z s u -   % < i s u ; u a ;     . 7 z z b F D b Y ~ % ^ p.t.+.2.&.] 6 O + 6 i w h K ..@.../ F +.>.",
"                      = e w z w t s s < ; * * < t 9 ; 3 u r   L T v l b b s l #.4.8 F f.6._ p.w.A q P P 8 X k f q l L ^ ( ) ..X.",
"                      * # - 9 t t s t y i 3 ; * % 3 u , < B E [ E A D c ; , v n l 6 G s.,.%.w...z 9.u.u.9.P 8 $ # ; 7 l F ] [ ;.",
"          p                 % ; < u i s i i s i 3 3 3 3 2 7 r x z n y t < i 0 0 g O ^ f.5.%.u.=.*.f.h.h.d.p.7.<.W A v > 9 r N o.",
"        a p Z R d 2 2 1           % ; 3 3 u i u p p u 3 x l y 0 B x < t 3 , i > * @ ` d.5...y.&.2.d.h.d.h.d.p.3...^ K 4 , 9 q q ",
"      2 m / |  .{ I P Z Z s 1         = : : < , , p 2 u D r 9 0 V e 2 i 3 % 9 v l @ ` d.5.%.w...! u.f.f.u.:.S l # ; 7 8 x J ! <.",
"    p ; % r P { | ] { | ] T C y y t i i i t w t i a , < D D < > b , , * #   - u 7   ` d.5._ u.1.w ! -.-.L > + 4 0 e N I ) ) ] ' ",
"              q T / ] ] G H B l l l t t t s s i 3 , * < S L > $ B e 2 u =   * 3 p o ` f.i.| w.8.] ; % * 4 6 y w x G ^ ^ ^ G %.>.",
"              #   = 7 l T D b b z l w t i 3 ; = #     - b T e   x M ; a a ;   * s < F r.e.{ -.{ A 6 4 4 u i g Z ( &.>.3.1...+.=.",
"                        # : 9 t q u , = * *   * 9 * > < b S ; % = n 0 ; a ,     : Q # 8.p.^ 9.<.w 5 * 4 2 7 z ^ _ } X.>.3.9.w.w.",
"                        =     # # $           y b l z l b y . 8 3 l D - = *       7 6 F e.7.8.>.S 9 g 8 l O.1.u.u.q.2.;.;.X.;.8.",
"                                            > b > : > > : $ X w u * c 9 $         * i q Y Y 2.s.9.{ G $.<.;.3.u.s.s.s.f.p.u.0.q.",
"                                            : s 2 $           > x n y z l *       > , u < % G r.h.s.f.s.f.r.9.9.3.>.3.r.u.u.w.y.",
"                                            $ ; , =             > q 7 q =         * * $     b ^ s.g.h.a.f.g.s.s.a.p.p.a.s.u.r.q.",
"                                                                                                d.j.d.h.d.s.a.d.s.d.f.f.h.h.u.w.",
"                                                                                                  h.j.    a.f.a.  f.a.s.h.d.    ",
"                                                                                                    d.d.    h.d.d.      d.d.d.d.",
"                                                                                                      d.d.      d.d.            ",
"                                                                                                        h.        d.h.          ",
"                                                                                                                                ",
"                                                                                                                                ",
"                                                                                                                                ",
"                                                                                                                                ",
"                                                                                                                                ",
"                                                                                                                                "
};
