/* XPM */
static char *_ee57336db444bf6e2b1c6c72b0a8d54QwDfk5oCVeLh172U_38[] = {
/* columns rows colors chars-per-pixel */
"64 64 143 2 ",
"   c None",
".  c black",
"X  c #190001",
"o  c #000219",
"O  c #00171C",
"+  c #161617",
"@  c #290001",
"#  c #340001",
"$  c #3C0101",
"%  c #2C041B",
"&  c #291819",
"*  c #262727",
"=  c #420001",
"-  c #4B0004",
";  c #43000C",
":  c #4C000C",
">  c #540001",
",  c #5C0202",
"<  c #54010C",
"1  c #5B010C",
"2  c #47001C",
"3  c #540115",
"4  c #5C0115",
"5  c #441110",
"6  c #43141C",
"7  c #5C151C",
"8  c #640102",
"9  c #6C0103",
"0  c #63020C",
"q  c #6B010C",
"w  c #740002",
"e  c #7C0103",
"r  c #700E06",
"t  c #7C0F06",
"y  c #74000C",
"u  c #7B010B",
"i  c #640114",
"p  c #6C0114",
"a  c #640119",
"s  c #6A011A",
"d  c #730113",
"f  c #7A0212",
"g  c #770B14",
"h  c #741715",
"j  c #712306",
"k  c #402829",
"l  c #820001",
"z  c #8B0101",
"x  c #880F03",
"c  c #85020E",
"v  c #880F0B",
"b  c #980101",
"n  c #980C01",
"m  c #96020D",
"M  c #970C0D",
"N  c #891D05",
"B  c #941702",
"V  c #9C1802",
"C  c #97170E",
"Z  c #871614",
"A  c #A40101",
"S  c #AB0101",
"D  c #A60C03",
"F  c #B40401",
"G  c #BC0201",
"H  c #A81401",
"J  c #A61C01",
"K  c #A6180F",
"L  c #B51301",
"P  c #B71E01",
"I  c #B91E11",
"U  c #992503",
"Y  c #98291B",
"T  c #A62502",
"R  c #A03C03",
"E  c #B83106",
"W  c #A8281E",
"Q  c #87272A",
"!  c #B93826",
"~  c #A23E3E",
"^  c #D80102",
"/  c #C41F01",
"(  c #DD1E1B",
")  c #EF0501",
"_  c red",
"`  c #EE0318",
"'  c #F00D1B",
"]  c #CD2300",
"[  c #C92A02",
"{  c #D32F01",
"}  c #CB3604",
"|  c #DE3601",
" . c #EF3A02",
".. c #EF211C",
"X. c #FF1D23",
"o. c #D83624",
"O. c #FE2B2C",
"+. c #FD3731",
"@. c #C15B23",
"#. c #DC5826",
"$. c #FE4537",
"%. c #FD553A",
"&. c #894340",
"*. c #BE4F43",
"=. c #A05656",
"-. c #A87F73",
";. c #D85842",
":. c #FE4145",
">. c #CE655B",
",. c #FC6249",
"<. c #FE6658",
"1. c #F06959",
"2. c #E6765B",
"3. c #FC795D",
"4. c #BA8578",
"5. c #DB8277",
"6. c #F7826E",
"7. c #F89877",
"8. c #908687",
"9. c #999898",
"0. c #B69C96",
"q. c #A7A9AD",
"w. c #D89E87",
"e. c #FB8380",
"r. c #F09D8C",
"t. c #D7B288",
"y. c #FDA287",
"u. c #F3B091",
"i. c #F2B69F",
"p. c #DBB5A9",
"a. c #F5B8B0",
"s. c #D2C5B9",
"d. c #F2C7A4",
"f. c #F2C8B8",
"g. c #CCCCCD",
"h. c #F0D1C8",
"j. c #E9DDD8",
"k. c #F7E0D4",
"l. c #EFEDED",
"z. c #F0E7E4",
"x. c #EDFBFD",
"c. c #F0F2F2",
"v. c white",
/* pixels */
"                                                                                                                                ",
"                                                                                                                                ",
"                                                                                                                                ",
"                                                                                                                                ",
"                                                                                                                                ",
"                                                                                                                                ",
"                                                                                                                                ",
"                                                                                                                                ",
"                                                                                                                                ",
"                                                                                                                                ",
"                                                                                                                                ",
"                                                                                                                                ",
"                                                                                                                                ",
"                                                                                                                                ",
"                                                                                                                                ",
"                                                                                                                                ",
"                                                                                                                                ",
"                                                                                                                                ",
"                                                                                                                                ",
"                                                                                                                                ",
"                                                                                                                                ",
"                                                                                                                                ",
"                                                                                                                                ",
"                                                                                                                                ",
"                                                                                                                                ",
"                                                                                                      ..                        ",
"                                                                                                    ' ( G       c.x.l.l.l.k.k.k.",
"                        a a 4 3   4                                                               ..) = -.f.c.c.v.v.k.h.h.h.h.h.",
"                        4 c F M f d 3                                                             ) ! l.x.x.v.l.j.f.d.i.f.f.f.f.",
"                    4 4   $ x L G F C g 4                                                         ) p.x.k.h.f.a.f.k.k.k.c.x.c.z.",
"              i a d f d d : % x F F G J M d s                                                   y.^ h.f.h.k.z.l.j.k.h.r.r.r.r.,.",
"                4 d x H F m c i u v J J V J C i                                           )   c.a.^ s.z.l.k.h.i.u.7.7.7.7.a.h.f.",
"                    . x F G F H C f e n b x z q @                                       ) I j.k.) 5.f.6.6.3.3.u.i.u.i.a.a.f.u.6.",
"                      @ t F F V J H x 9 e l l l 0                                     ' ( p.h.h.;.G G b A b S ( ;.1.6.1.7.i.f.h.",
"                        . t F A J V z e y e l z l ;                                   ) 6.c.a.<.] t h 7 7 7 h j z ! 2.d.f.h.j.a.",
"                          $ 8 V V x l z l 0 e l l 1                                   ) p.j.i.1.^ 5 : 1 0 = $ - 7 q z ;.r.r.7.7.",
"                  2           - q l l l l y i e l l >                                 ) a.u.d.;.^ 7 0 h 7 & = # - r h z ;.1.>.>.",
"          4   ; f Z Z h 3 3 4 #   1 u y y d p 1 e z q             - 8 8 , , = x h ,   _ 7.j.k.y.^ k . , 9 , o & = $ = i z ^ ^ F ",
"      4 Z c I } { / ] L m m v g s ; : p d d y 4 1 z l -           @ , , w u z K A D   ) k.j.i.,.F - E r.r.e.G - O 5 = 0 0 U [ O.",
"    p I | | | { ] / S S D A T B c p > > 4 i y d 4 9 z 9         > w l b F D K n &.Y k ( a.h.f.) A ;.h.c.c.l.h.;.z # o 7 7 p t n ",
"    > r V J [ | { { / T J A b l d y u q 0 3 4 q y 4 1 l x / { V B b b b b v h b 8.&.0.5.p.k.t.( F f.x.l.l.l.c.k.i.;.L 8 # - 5 : ",
"        . X > t j N E D A n x e p p p p f y i 3 < 4 4 4 r t v D b H J t ; 1 t D A z 0.5.p.k.f.) ~ z.c.l.l.l.l.c.c.k.f.5.2.! b t ",
"                . @ @ : - - 1 8 w 9 0 0 8 0 p d p 4 4 3 : 0 w i x J m g q 1 u w Q - q.5.w.p.R ^ *.z.c.l.l.l.l.l.l.c.x.l.c.a.y.1.",
"      a             : i p N B b z l l y 9 q 3 : : 4 4 : u l x b n J q 1 y : 0 l k . g.5.p.j.p.) ~ z.c.l.l.l.l.l.c.l.j.a.i.5.>.~ ",
"      4 p g 3 o : f T P F J V D b l e y y u p p p i i : l n t 0 x N < i p < $ z W # c.r.p.k.p.^ F h.c.l.l.l.c.l.h.r.o.A b 8 @ # ",
"        , T E } [ | | ] / H b n z z u p d d p y 9 < < = z S l ; x N ; - $   $ 1 Z #   >.p.k.f.+.S 5.l.c.c.c.z.r.} 9 @ % & 7 h t ",
"          - x / |  .| ] G D A b z y d < < < = # #     # u G b @ r B 0 4 - #   < 4 5   ^ j.h.u.) A e 5.f.f.a.>.e . & 5 q q t H ( ",
"              X t T { | P c r : - = =                 @ i V A # > G u : a 1   X q w * ) a.l.j.r.^ * @ A P A $ + $ $ # i y G ^ ^ ",
"                @ . > r $ @     $             @ 9 8 - 1 , J v @ # b H ; i i $   > w 1 ( y.i.f.>.^ 7 7 7 % o 5 $ - 0 h w [ +.o.! ",
"                          -                   > S v l z z K 8 = p , T f $ =       : h ^ p.f.i.2.^ 6 > 9 r - # $ < q e / 7.7.7.7.",
"                                            . b n $ , > > #   > u # u c $           7 b 5.c.i.$.^ 7 7 5 5 5 7 p r C @.i.a.u.i.r.",
"                                            X e d $           - w b N w B 8       , 5 S ( g.h.a.o.S A l l l z F ^ %.3.7.i.h.j.j.",
"                                              # 4 4             - 9 8 8 8 #         X   ^ =.z.k.^ 5.r.o.#.;.;.7.u.u.u.e.e.r.6.6.",
"                                                                                        +.^ g.v.r.>.j.k.k.f.a.u.r.7.r.p.a.z.k.f.",
"                                                                                              x.a.^ s.h.j.z.l.j.h.a.r.1.,.6.r.3.",
"                                                                                                +.^ g.z.h.f.f.h.h.c.l.z.l.c.l.a.",
"                                                                                                  ) 4.x.x.c.z.f.f.f.f.a.h.h.h.j.",
"                                                                                                  ..^ 9.p.h.x.v.c.k.h.h.h.f.f.f.",
"                                                                                                    X.b F O.  z.l.c.z.l.z.j.j.j.",
"                                                                                                    ` ( :.                      ",
"                                                                                                                                ",
"                                                                                                                                ",
"                                                                                                                                ",
"                                                                                                                                "
};
