/* XPM */
static char *_ee57336db444bf6e2b1c6c72b0a8d54QwDfk5oCVeLh172U_39[] = {
/* columns rows colors chars-per-pixel */
"64 64 133 2 ",
"   c None",
".  c black",
"X  c #0A0707",
"o  c #190001",
"O  c #290001",
"+  c #340001",
"@  c #3C0101",
"#  c #2C041B",
"$  c #262727",
"%  c #420001",
"&  c #4B0004",
"*  c #43000C",
"=  c #4C000C",
"-  c #540001",
";  c #5C0202",
":  c #54010C",
">  c #5B010C",
",  c #47001C",
"<  c #540115",
"1  c #5C0115",
"2  c #5C151C",
"3  c #640102",
"4  c #6C0103",
"5  c #63020C",
"6  c #6B010C",
"7  c #740002",
"8  c #7C0103",
"9  c #700E06",
"0  c #7C0F06",
"q  c #74000C",
"w  c #7B010B",
"e  c #640114",
"r  c #6C0114",
"t  c #640119",
"y  c #6A011A",
"u  c #730113",
"i  c #7A0212",
"p  c #770B14",
"a  c #741715",
"s  c #402829",
"d  c #712428",
"f  c #575357",
"g  c #820001",
"h  c #8B0101",
"j  c #880F03",
"k  c #85020E",
"l  c #880F0B",
"z  c #980101",
"x  c #980C01",
"c  c #96020D",
"v  c #970C0D",
"b  c #941702",
"n  c #9C1802",
"m  c #97170E",
"M  c #871614",
"N  c #A40101",
"B  c #AB0101",
"V  c #A60C03",
"C  c #B40401",
"Z  c #BC0201",
"A  c #A81401",
"S  c #A61C01",
"D  c #A6180F",
"F  c #B51301",
"G  c #B71E01",
"H  c #BB0518",
"J  c #B91E11",
"K  c #992503",
"L  c #98291B",
"P  c #9E3F1E",
"I  c #A62502",
"U  c #A03C03",
"Y  c #B83106",
"T  c #A8281E",
"R  c #B93826",
"E  c #A23E3E",
"W  c #D80102",
"Q  c #C41F01",
"!  c #D9031C",
"~  c #DD1E1B",
"^  c #EF0501",
"/  c red",
"(  c #EE0318",
")  c #FF011B",
"_  c #F00D1B",
"`  c #CD2300",
"'  c #C92A02",
"]  c #D32F01",
"[  c #CB3604",
"{  c #DE3601",
"}  c #EF3A02",
"|  c #EF211C",
" . c #FF0D21",
".. c #D83624",
"X. c #FE2B2C",
"o. c #FD3731",
"O. c #C15B23",
"+. c #FE4537",
"@. c #FD553A",
"#. c #894340",
"$. c #BE4F43",
"%. c #D85842",
"&. c #FD514A",
"*. c #CE655B",
"=. c #FC6249",
"-. c #EE7746",
";. c #F06959",
":. c #E6765B",
">. c #FC795D",
",. c #BA8578",
"<. c #D3825A",
"1. c #DB8277",
"2. c #F7826E",
"3. c #F89877",
"4. c #908687",
"5. c #BCB1B2",
"6. c #D89E87",
"7. c #FB8380",
"8. c #F09D8C",
"9. c #FDA287",
"0. c #F3B091",
"q. c #F2B69F",
"w. c #F5B8B0",
"e. c #F2C8B8",
"r. c #CCCCCD",
"t. c #F0D1C8",
"y. c #E9DDD8",
"u. c #F7E0D4",
"i. c #EFEDED",
"p. c #F0E7E4",
"a. c #EDFBFD",
"s. c #F0F2F2",
"d. c white",
/* pixels */
"                                                                                                                                ",
"                                                                                                                                ",
"                                                                                                                                ",
"                                                                                                                                ",
"                                                                                                                                ",
"                                                                                                                                ",
"                                                                                                                                ",
"                                                                                                                                ",
"                                                                                                                                ",
"                                                                                                                                ",
"                                                                                                                                ",
"                                                                                                                                ",
"                                                                                                                                ",
"                                                                                                                                ",
"                                                                                                                                ",
"                                                                                                                                ",
"                                                                                                                                ",
"                                                                                                                                ",
"                                                                                                                                ",
"                                                                                                                                ",
"                                                                                                                                ",
"                                                                                                                                ",
"                                                                                                                                ",
"                                                                                                                                ",
"                                                                                                                                ",
"                                                                                                          _                     ",
"                                                                                                        _ ` z                   ",
"                                1 i u < 1                                                               _ z N                   ",
"                            1     9 V V k r                                                           ( _   B                   ",
"              t 1 M V N l i r # t # j Z Z S 9                                               !         (     N                   ",
"                * 3 C Z C Z B c M 1 * n Z Z V a 1                                         ! Z       _ (     T         i.i.i.i.i.",
"        1 p y     * ; S Z C Z G S A p > C V A S q                                         _ B z     ( X.    z   a.i.s.d.d.s.s.i.",
"          h Y K 1 <   : A Z C B I S A 9 7 I n I z : @                                      .N N     |     s.r.p.s.d.i.i.i.      ",
"            b { [ D r , > A C S A S b n > 0 n K j 7 @                                   (  .7 T     ^ w.s.d.a.a.s.s.s.s.s.s.s.i.",
"            . n { { ' M < O j S N b g h g : 8 g g g -                                   _     N   u.o.p.a.s.u.u.u.u.u.u.u.u.i.d.",
"            @ % ' { ] { J r . 7 h 8 g 8 w 5 > g 8 w 6 %                                 (     ,.i.d.8.t.e.e.q.0.0.0.0.0.0.0.q.e.",
"            & O 0 ` Q G Q J e O % e u q 8 q = 6 q q r &                                 o.    s.d.e.3.0.8.8.8.8.q.q.q.q.q.q.q.0.",
"                O A Q S b n v t 1 + = e q q 5 : u q r < @         % % ; ; - & l 2     X.^   s.u.0.2.@...Z Q Z ` =.:.8.0.q.3.>.>.",
"                  : n A x S x m r :   % e u u 1 < u w r @         O O - 7 8 b z z 5   ^ 8.a.u.0.%.W W . # o o a g z Z ..2.:.3.0.",
"                    > l n K z h u e *   @ > r u e = e y =     . 3 h h z C V z L E 3   / u.y.0.%.3 C { A C V F h 3 4 $ i z A ' %.",
"                      & 9 8 h 8 q u u > = % % > q 5 = 1 e 0   F I l g z z u g #.4.g f e.e.q.:.8 $.&.2.t.t.e.t.q.*.%.C B - 3 ; g ",
"                      % O * 5 q q u q w r 1 = % @ 1 e : > b Y ' Y N V k = : l x g 3 5.t.3.0.Z O.u.w.7.a.s.s.s.s.i.u.e.q.*.:.$.z ",
"          t                 @ = > e r u r r u r 1 1 1 1 < 3 0 j h x w q > r r 4 d X i.u.3.8.C 3.a.w.2.s.i.i.i.i.i.s.a.s.p.s.e.9.",
"        y t M U i < < ,           @ = 1 1 e r e t t e 1 j g w 6 b j > q 1 : r ; s . d.u.3.0.C <.s.w.7.a.i.s.s.s.s.i.y.t.q.q.1.$.",
"      < c Q { } ] J G M M u ,         & - - > : : t < e V 0 5 6 n 9 < r 1 @ 5 j a .   t.q.q.*.8 6.7.7.p.p.p.p.t.q.8.....z z 7 ; ",
"    t = @ 0 G ] { ` ] { ` I m w w q r r r q 8 q r y : > V V > ; z : : % O   * e ; -   2.u.t.3.' 3 Z +.-.-.-.-.Y h 8 o 9 a 8 N [ ",
"              7 I Q ` ` Z A b g g g q q q u u r 1 : % > B F ; + b 9 < e &   % 1 1 &   ^ w.s.e.3.R Z W . % @ % 2 < 8 z Z ~ %.3.0.",
"              O   & 3 g I V z z h g 8 q r 1 = & O     * z I 9   j v = y y =   % u 4   | ^ a.d.e.3.=.~ I z z z B ....:.3.q.3.2.2.",
"                        O - 5 q 7 e : & % %   % 5 % ; > z B = @ & x 6 = y :     : k O   |   i.d.u.q.>.>.;.:.:.2.0.q.q.q.q.q.8.0.",
"                        &     O O +           w z g h g z w . 4 1 g V * & %       5 q @ |     t.i.d.8.e.q.q.q.q.0.0.0.0.0.0.q.q.",
"                                            ; z ; - ; ; - + o 8 e % k 5 +         @ u 7 Q e   z   i.2.p.p.p.t.e.e.e.e.e.e.e.y.p.",
"                                            - u < +           ; j x w h g %       ; > - ` h 7 T     ^ t.a.d.a.s.s.s.s.a.a.d.d.s.",
"                                            + = : &             ; 7 3 7 &         % - . H ~ z N     X.    i.p.d.d.s.i.i.i.i.i.  ",
"                                                                                          ) C N     ( |     P t.s.s.d.d.i.i.i.i.",
"                                                                                          _ C       _ _     N       s.s.i.d.s.d.",
"                                                                                            Z         _     V                 i.",
"                                                                                                      _ _   B                   ",
"                                                                                                      _  .  B                   ",
"                                                                                                        _ Q z                   ",
"                                                                                                        _ ~                     ",
"                                                                                                                                ",
"                                                                                                                                ",
"                                                                                                                                ",
"                                                                                                                                "
};
