/* XPM */
static char *_ee57336db444bf6e2b1c6c72b0a8d54QwDfk5oCVeLh172U_4[] = {
/* columns rows colors chars-per-pixel */
"64 64 124 2 ",
"   c None",
".  c black",
"X  c #0A0707",
"o  c #00030B",
"O  c #160F06",
"+  c #001F03",
"@  c #000219",
"#  c #110519",
"$  c #00171C",
"%  c #290001",
"&  c #340001",
"*  c #3C0101",
"=  c #231805",
"-  c #2C041B",
";  c #291819",
":  c #3C3200",
">  c #010126",
",  c #00033B",
"<  c #002A21",
"1  c #062F39",
"2  c #262727",
"3  c #3C3732",
"4  c #4B0004",
"5  c #540001",
"6  c #5B010C",
"7  c #441403",
"8  c #47001C",
"9  c #441110",
"0  c #640102",
"q  c #6B010C",
"w  c #7C0103",
"e  c #700E06",
"r  c #7C0F06",
"t  c #74000C",
"y  c #741715",
"u  c #422817",
"i  c #712306",
"p  c #663A0F",
"a  c #7A3E0D",
"s  c #57002A",
"d  c #402829",
"f  c #5B3D31",
"g  c #712428",
"h  c #734331",
"j  c #180C41",
"k  c #000451",
"l  c #22105A",
"z  c #06374E",
"x  c #2D3F45",
"c  c #364C5D",
"v  c #434244",
"b  c #594A49",
"n  c #575357",
"m  c #5C5F5C",
"M  c #744B4E",
"N  c #75736E",
"B  c #8B0101",
"V  c #85020E",
"C  c #980101",
"Z  c #980C01",
"A  c #96020D",
"S  c #891D05",
"D  c #B40401",
"F  c #BB0518",
"G  c #9E3F1E",
"H  c #A03C03",
"J  c #C41F01",
"K  c #D32F01",
"L  c #CB3604",
"P  c #DE3601",
"I  c #D83624",
"U  c #86441F",
"Y  c #A75901",
"T  c #956002",
"R  c #8E5822",
"E  c #A45F20",
"W  c #9B7937",
"Q  c #A1633F",
"!  c #C15B06",
"~  c #D75204",
"^  c #DF6707",
"/  c #E47A07",
"(  c #C15B23",
")  c #DC5826",
"_  c #C17A3A",
"`  c #894340",
"'  c #895D41",
"]  c #B17D5C",
"[  c #956964",
"{  c #8F7967",
"}  c #A87F73",
"|  c #BE8009",
" . c #C39E0F",
".. c #EB9A07",
"X. c #C9B104",
"o. c #E0BF05",
"O. c #FBB50A",
"+. c #DE9A2E",
"@. c #E6B42B",
"#. c #FACB07",
"$. c #FEF700",
"%. c #EFC93D",
"&. c #BA8578",
"*. c #D89F6A",
"=. c #F89877",
"-. c #D5AC6A",
";. c #F4B163",
":. c #FDF07A",
">. c #756A85",
",. c #818183",
"<. c #908687",
"1. c #999898",
"2. c #A7A9AD",
"3. c #BCB1B2",
"4. c #D89E87",
"5. c #D7B288",
"6. c #F5B580",
"7. c #DBB5A9",
"8. c #F4D189",
"9. c #F2C7A4",
"0. c #FBE3AA",
"q. c #B3B7C4",
"w. c #CCCCCD",
"e. c #F0E7E4",
/* pixels */
"                                                                                                                                ",
"                                                                                                                                ",
"                                                                                                                                ",
"                                                                                                                                ",
"                                                                                                                                ",
"                                                                                                                                ",
"                                                                                                                                ",
"                                                                                                                                ",
"                                                                                                                                ",
"                                                                                                                                ",
"                                                                                                                                ",
"                                                                                                                                ",
"                                                                                                                                ",
"                                                                                                                                ",
"                                                                                                                                ",
"                                                                                                                                ",
"                                                                                                                                ",
"                                                                                                                                ",
"                                                                                                                                ",
"                                                                                                                                ",
"                                                                                                                                ",
"                                                                                                                                ",
"                                                                                                                                ",
"                                                                                                                                ",
"                                                                &.] } [ B                                                       ",
"                                                            H } 5.:.%.%.Y G                                                     ",
"                                                  X X       H 5.8.$.o.X.| ! E                                                   ",
"                                                X X . O o   G T N { 1.2.>.] H                                                   ",
"                                                      X o O @ k j , 2.e.q.>.0                                                   ",
"                                                X X X X X = . E  .3.>._ M k                                                     ",
"                                              . X       X O o R +.0.9.0.4..                                                     ",
"                                                              . e ;.8.*.E                                                       ",
"                                                            X ; 1 h ] Q .                                                       ",
"                                                      2 . @ v n b . x x 2       v z                                             ",
"                                                    ' 6.R x m x c z x v v 3 . p *.5.h                                           ",
"                                                  . 5.;.Y x v * W W ` d d v v h 6.=.h                                           ",
"                                                  & *.] d v . H #.#.+.s e x n 2 _ U                                             ",
"                                                    . $ 2 *   G ..$.@.g C . . O .                                               ",
"                                                              % ^ O.@.' r 9                                                     ",
"                                                              @ 8 f 3 f 7 +                                                     ",
"                                                              & ..O.~ ~ ~ S @                                                   ",
"                                                              n 4.@...( H / a                                                   ",
"                                                            . ,.w.3.` 4 U ~ ! <                                                 ",
"                                                            : -.7.<.. < Z L ) y                                                 ",
"                                                          . E O.~ V     5 D ^ H                                                 ",
"                                                          a O.I F 7       A J ~ 6                                               ",
"                                                        i O...D i         A P K &                                               ",
"                                                        p / ~ B +         q w t -                                               ",
"                                                        $ > 7 o           . $ $                                                 ",
"                                                      > , 1 o             j l j j p                                             ",
"                                                    p Q } M .             # j k v E 9                                           ",
"                                                    u U ' p                                                                     ",
"                                                                                                                                ",
"                                                                                                                                ",
"                                                                                                                                ",
"                                                                                                                                ",
"                                                                                                                                ",
"                                                                                                                                ",
"                                                                                                                                ",
"                                                                                                                                ",
"                                                                                                                                ",
"                                                                                                                                ",
"                                                                                                                                ",
"                                                                                                                                "
};
