/* XPM */
static char *_ee57336db444bf6e2b1c6c72b0a8d54QwDfk5oCVeLh172U_40[] = {
/* columns rows colors chars-per-pixel */
"64 64 120 2 ",
"   c None",
".  c black",
"X  c #0A0707",
"o  c #190001",
"O  c #000219",
"+  c #290001",
"@  c #340001",
"#  c #3C0101",
"$  c #2C041B",
"%  c #420001",
"&  c #4B0004",
"*  c #43000C",
"=  c #4C000C",
"-  c #540001",
";  c #5C0202",
":  c #54010C",
">  c #5B010C",
",  c #47001C",
"<  c #540115",
"1  c #5C0115",
"2  c #5C151C",
"3  c #640102",
"4  c #6C0103",
"5  c #63020C",
"6  c #6B010C",
"7  c #740002",
"8  c #7C0103",
"9  c #700E06",
"0  c #7C0F06",
"q  c #74000C",
"w  c #7B010B",
"e  c #640114",
"r  c #6C0114",
"t  c #640119",
"y  c #6A011A",
"u  c #730113",
"i  c #7A0212",
"p  c #770B14",
"a  c #741715",
"s  c #712306",
"d  c #402829",
"f  c #712428",
"g  c #820001",
"h  c #8B0101",
"j  c #880F03",
"k  c #85020E",
"l  c #880F0B",
"z  c #980101",
"x  c #980C01",
"c  c #96020D",
"v  c #970C0D",
"b  c #891D05",
"n  c #941702",
"m  c #9C1802",
"M  c #97170E",
"N  c #871614",
"B  c #A40101",
"V  c #AB0101",
"C  c #A60C03",
"Z  c #B40401",
"A  c #BC0201",
"S  c #A81401",
"D  c #A61C01",
"F  c #A6180F",
"G  c #B51301",
"H  c #B71E01",
"J  c #B91E11",
"K  c #A62502",
"L  c #B83106",
"P  c #A8281E",
"I  c #87272A",
"U  c #B93826",
"Y  c #A23E3E",
"T  c #D80102",
"R  c #C41F01",
"E  c #D9031C",
"W  c #EF0501",
"Q  c #EE0318",
"!  c #F00D1B",
"~  c #CD2300",
"^  c #C92A02",
"/  c #D32F01",
"(  c #CB3604",
")  c #DE3601",
"_  c #EF3A02",
"`  c #D83624",
"'  c #C15B23",
"]  c #DC5826",
"[  c #FE4537",
"{  c #894340",
"}  c #A05656",
"|  c #D85842",
" . c #CE655B",
".. c #FC6249",
"X. c #F06959",
"o. c #E6765B",
"O. c #FC795D",
"+. c #D3825A",
"@. c #DB8277",
"#. c #F7826E",
"$. c #F89877",
"%. c #908687",
"&. c #A7A9AD",
"*. c #BCB1B2",
"=. c #F09D8C",
"-. c #FDA287",
";. c #F3B091",
":. c #F2B69F",
">. c #F5B8B0",
",. c #F2C7A4",
"<. c #F2C8B8",
"1. c #CCCCCD",
"2. c #F0D1C8",
"3. c #E9DDD8",
"4. c #F7E0D4",
"5. c #EFEDED",
"6. c #F0E7E4",
"7. c #EDFBFD",
"8. c #F0F2F2",
"9. c white",
/* pixels */
"                                                                                                                                ",
"                                                                                                                                ",
"                                                                                                                                ",
"                                                                                                                                ",
"                                                                                                                                ",
"                                                                                                                                ",
"                                                                                                                                ",
"                                                                                                                                ",
"                                                                                                                                ",
"                                                                                                                                ",
"                                                                                                                                ",
"                                                                                                                                ",
"                                                                                                                                ",
"                                                                                                                                ",
"                                                                                                                                ",
"                                                                                                                                ",
"                                                                                                                                ",
"                                                                                                                                ",
"                                                                                                                                ",
"                                                                                                                                ",
"                                                                                                                                ",
"                                                                                                                                ",
"                                                                                                                                ",
"                                                                                                                                ",
"                                                                                                                                ",
"                                                                                                                                ",
"                                                                                                                                ",
"                        t t 1 <   1                                                                         !                   ",
"                        1 k Z v i u <                                                                     ! Q                   ",
"                    1 1   # j G A Z M p 1                                                     Q ~ H       ! Q     B             ",
"              e t u i u u = $ j Z Z A D v u y                                                 !   B       Q !     B             ",
"                1 u j S Z c k e w l D D m D M e                                             Q !   V       !       B B           ",
"                    . j Z A Z S M i 8 x z j h 6 +                                           Q     B       !       B B           ",
"                      + 0 Z Z m D S j 4 8 g g g 5                                           !     B       Q       C F           ",
"                        . 0 Z B D m h 8 q 8 g h g *                                         Q     F               B B           ",
"                          # 3 m m j g h g 5 8 g g >                                                               M M           ",
"                  ,           & 6 g g g g q e 8 g g -                                       W           2.=.7.5.5.2.3.4.3.3.3.4.",
"          1   * i N N a < < 1 @   > w q q u r > 8 h 6             & 3 3 ; ; % j a ; #       =.  8.5.5.6.<.>.4.2.<.:.,.:.:.:.:.:.",
"      1 N k J ( / R ~ G c c l p y * = r u u q 1 > h g &           + ; ; 7 w h F B B       :.2.7.4.:.X.o...[ o.$.;.;.;.;.:.:.:.:.",
"    r J ) ) ) / ~ R V V C B K n k r - - 1 e q u 1 4 h 4         - 7 g z Z C F x { { +   8.:.:.=.) B 8 7 V J g U ` ( ^ ` O.X.#.:.",
"    - 9 m D ^ ) / / R K D B z g u q w 6 5 < 1 6 q 1 > g j R / m n z z z z l a z %.} 8 3.9.$.O.B z L H K R T L h & ; - 4 h h z U ",
"        . o - 0 s b L C B x j 8 r r r r i q e < : 1 1 1 9 0 l C z S D 0 * > 0 S B z } 6.<...B ' =.<.<.<.:.=.2.=. .o.o.U z B B B ",
"                . + + = & & > 3 7 4 5 5 3 5 r u r 1 1 < = 5 7 e j D c p 6 > w 7 I & &.6.;.+.Z 2.8.7.8.7.3.2.7.8.5.5.8.:.-.-.-.-.",
"      t             = e r b n z h g g q 4 6 < = = 1 1 = w g j z x D 6 > q = 5 g d . 1.5.:...z @.<.3.3.6.<.>.6.<.:.:.:.@. . . . .",
"      1 r p < O = i K H Z D m C z g 8 q q w r r r e e = g x 0 5 j b : e r : # h S f   8.9.O.o.h H | | | ` ` | H h z z 3 ; ; 3 z ",
"        ; K L ( ^ ) ) ~ R S z x h h w r u u r q 4 : : % h V g * j b * & #   # > k 2     8.:.=.o.A g 3 - z D 3 B B B z A ] ] | $.",
"          & j R ) _ ) ~ A C B z h q u : : : % @ @     @ w A z + 9 n 5 1 & @   : 1 #       :.2.9.:.#.T ~ T T ` #.$.$.$.=.:.:.:.:.",
"              o 0 K / ) H k 9 = & % %                 + e m B @ - A w = t >   X 6 7 %       >.7.8.3.4.4.:.-.,.:.:.:.:.;.;.;.;.;.",
"                + . - 9 # +     #             + 4 3 & > ; D l + @ z S * e e #   - 7 6               7.7.3.2.8.9.6.2.4.4.4.4.4.4.",
"                          &                   - V l g h h F 3 % r ; K i # %       * w > .                     5.  *.*.  7.7.7.7.",
"                                            . z x # ; - - @   - w @ w k #           5 w ; >       P               z z           ",
"                                            o 8 u #           & 7 z b 7 n 3       & e : 4 & c     B       Q       P Y           ",
"                                              @ 1 1             & 4 3 3 3 @         % + #   E     B       !       B B           ",
"                                                                                            ! !   V       !       B B           ",
"                                                                                            ! !   B       ! !     B             ",
"                                                                                              ! T B       Q !     B             ",
"                                                                                                E         Q !     B             ",
"                                                                                                            !                   ",
"                                                                                                            !                   ",
"                                                                                                                                ",
"                                                                                                                                ",
"                                                                                                                                ",
"                                                                                                                                ",
"                                                                                                                                "
};
