/* XPM */
static char *_ee57336db444bf6e2b1c6c72b0a8d54QwDfk5oCVeLh172U_41[] = {
/* columns rows colors chars-per-pixel */
"64 64 97 2 ",
"   c None",
".  c black",
"X  c #190001",
"o  c #290001",
"O  c #340001",
"+  c #3C0101",
"@  c #2C041B",
"#  c #420001",
"$  c #4B0004",
"%  c #43000C",
"&  c #4C000C",
"*  c #540001",
"=  c #5C0202",
"-  c #54010C",
";  c #5B010C",
":  c #47001C",
">  c #540115",
",  c #5C0115",
"<  c #441110",
"1  c #5C151C",
"2  c #640102",
"3  c #6C0103",
"4  c #63020C",
"5  c #6B010C",
"6  c #740002",
"7  c #7C0103",
"8  c #700E06",
"9  c #7C0F06",
"0  c #74000C",
"q  c #7B010B",
"w  c #640114",
"e  c #6C0114",
"r  c #640119",
"t  c #6A011A",
"y  c #730113",
"u  c #7A0212",
"i  c #770B14",
"p  c #741715",
"a  c #820001",
"s  c #8B0101",
"d  c #880F03",
"f  c #85020E",
"g  c #880F0B",
"h  c #980101",
"j  c #980C01",
"k  c #96020D",
"l  c #970C0D",
"z  c #941702",
"x  c #9C1802",
"c  c #97170E",
"v  c #871614",
"b  c #A40101",
"n  c #AB0101",
"m  c #A60C03",
"M  c #B40401",
"N  c #BC0201",
"B  c #A81401",
"V  c #A61C01",
"C  c #A6180F",
"Z  c #B51301",
"A  c #B71E01",
"S  c #B91E11",
"D  c #992503",
"F  c #98291B",
"G  c #A62502",
"H  c #A03C03",
"J  c #B83106",
"K  c #B93826",
"L  c #A23E3E",
"P  c #D80102",
"I  c #C41F01",
"U  c #CD2300",
"Y  c #C92A02",
"T  c #D32F01",
"R  c #CB3604",
"E  c #DE3601",
"W  c #EF3A02",
"Q  c #EF211C",
"!  c #C15B23",
"~  c #C17A3A",
"^  c #894340",
"/  c #BE4F43",
"(  c #B17D5C",
")  c #D85842",
"_  c #CE655B",
"`  c #EE7746",
"'  c #E6765B",
"]  c #D3825A",
"[  c #D89F6A",
"{  c #DB8277",
"}  c #F89877",
"|  c #908687",
" . c #D89E87",
".. c #FDA287",
"X. c #F3B091",
"o. c #F2B69F",
"O. c #F2C7A4",
/* pixels */
"                                                                                                                                ",
"                                                                                                                                ",
"                                                                                                                                ",
"                                                                                                                                ",
"                                                                                                                                ",
"                                                                                                                                ",
"                                                                                                                                ",
"                                                                                                                                ",
"                                                                                                                                ",
"                                                                                                                                ",
"                                                                                                                                ",
"                                                                                                                                ",
"                                                                                                                                ",
"                                                                                                                                ",
"                                                                                                                                ",
"                                                                                                                                ",
"                                                                                                                                ",
"                                                                                                                                ",
"                                                                                                                                ",
"                                                                                                                                ",
"                                                                                                                                ",
"                                                                                                                                ",
"                                                                                                                                ",
"                                                                                                                                ",
"                                                                                                                                ",
"                                                                                                                                ",
"                                                                                                                                ",
"                                , u y > ,                                                                                       ",
"                            ,     8 m m f e                                                             s       b               ",
"              r , v m b g u e @ r @ d N N V 8                                                     b             b         7     ",
"                % 2 M N M N n k v , % x N N m p ,                                               b b             b         7     ",
"        , i t     % = V N M N A V B i ; M m B V 0                                               b         7     b         7     ",
"          s J D , >   - B N M n G V B 8 6 G x G h - +                                           b       7 7     b         7     ",
"            z E R C e : ; B M V B V z x ; 9 x D d 6 +                                           b         7   b           7     ",
"            . x E E Y v > o d V b z a s a - 7 a a a *                                                         b           7     ",
"            + # Y E T E S e . 6 s 7 a 7 q 4 ; a 7 q 5 #                                                       b           7     ",
"            $ o 9 U I A I S w o # w y 0 7 0 & 5 0 0 e $                                       b             b b           7     ",
"                o B I V z x l r , O & w 0 0 4 - y 0 e > +         # # = = * $ g 1             b               b           7     ",
"                  - x B j V j c e -   # w y y , > y q e +         o o * 6 7 z h h 4           m               C                 ",
"                    ; g x D h s y w %   + ; e y w & w t &     . 2 s s h M m h F L =                           h                 ",
"                      $ 8 7 s 7 0 y y ; & # # ; 0 4 & , w 9   Z G g a h h y a ^ | a p         /  .o.X.X.X.o. .] o.X.X.X.X. .    ",
"                      # o % 4 0 0 y 0 q e , & # + , w - ; z J Y J b m f & - g j a i #      . ./ K K K K K K K G K K K K ! m h h ",
"          r                 + & ; w e y e e y e , , , , > 2 9 d s j q 0 ; e 5 6 1 -   X.{ ! P ! _ ' ' ' ' ' ' ' ' ' ' ' ' ' ' ] ",
"        t r v H u > > :           + & , , w e w r r w , d a q 5 z d ; 0 , - e = O #    .) N Q ` } ............................} ",
"      > k I E W T S A v v y :         $ * * ; - - r > w m 9 4 5 x 8 > e , + 4 d 7 <     o.] ] K b n n n n n n n n n n n n N N b ",
"    r & + 9 A T E U T E U G c q q 0 e e e 0 7 0 e t - ; m m ; = h - - # o   % w =           O._ [  . . . . .{ ~  . . . . .( a   ",
"              6 G I U U N B z a a a 0 0 0 y y e , - # ; n Z = O z 8 > w $   # , , O                         { /                 ",
"              o   $ 2 a G m h h s a 7 0 e , & $ o     % h G 8   d l & t t &   # y 2           C               h                 ",
"                        o * 4 0 6 w - $ # #   # 4 # = ; h n & + $ j 5 & t -     - u $         b               C           7     ",
"                        $     o o O           q h a s a h q . 3 , a m % $ #       4 0 #       b             b b           7     ",
"                                            = h = * = = * O X 7 w # f 4 O         + 0 3 = =   b               b           7     ",
"                                            * y > O           = d j q s a #       = - 4 4 $     b             b           7     ",
"                                            O & - $             = 6 2 6 $         # # O                   7   b           7     ",
"                                                                                                b       7 7   b b         7     ",
"                                                                                                b       7 7     b         7     ",
"                                                                                                b b       7     b         7     ",
"                                                                                                  b             b         7     ",
"                                                                                                  b     a       b               ",
"                                                                                                      b h                       ",
"                                                                                                                                ",
"                                                                                                                                ",
"                                                                                                                                ",
"                                                                                                                                ",
"                                                                                                                                "
};
