/* XPM */
static char *_ee57336db444bf6e2b1c6c72b0a8d54QwDfk5oCVeLh172U_42[] = {
/* columns rows colors chars-per-pixel */
"64 64 79 1 ",
"  c None",
". c black",
"X c #0A0707",
"o c #190001",
"O c #000219",
"+ c #290001",
"@ c #340001",
"# c #3C0101",
"$ c #2C041B",
"% c #420001",
"& c #4B0004",
"* c #43000C",
"= c #4C000C",
"- c #540001",
"; c #5C0202",
": c #54010C",
"> c #5B010C",
", c #47001C",
"< c #540115",
"1 c #5C0115",
"2 c #43141C",
"3 c #5C151C",
"4 c #640102",
"5 c #6C0103",
"6 c #63020C",
"7 c #6B010C",
"8 c #740002",
"9 c #7C0103",
"0 c #700E06",
"q c #7C0F06",
"w c #74000C",
"e c #7B010B",
"r c #640114",
"t c #6C0114",
"y c #640119",
"u c #6A011A",
"i c #730113",
"p c #7A0212",
"a c #770B14",
"s c #741715",
"d c #820001",
"f c #8B0101",
"g c #880F03",
"h c #85020E",
"j c #880F0B",
"k c #980101",
"l c #980C01",
"z c #96020D",
"x c #970C0D",
"c c #891D05",
"v c #941702",
"b c #9C1802",
"n c #97170E",
"m c #871614",
"M c #A40101",
"N c #AB0101",
"B c #A60C03",
"V c #B40401",
"C c #BC0201",
"Z c #A81401",
"A c #A61C01",
"S c #A6180F",
"D c #B51301",
"F c #B71E01",
"G c #B91E11",
"H c #992503",
"J c #A62502",
"K c #B83106",
"L c #87272A",
"P c #C41F01",
"I c #CD2300",
"U c #C92A02",
"Y c #D32F01",
"T c #CB3604",
"R c #DE3601",
"E c #EF3A02",
"W c #EF211C",
"Q c #894340",
"! c #908687",
/* pixels */
"                                                                ",
"                                                                ",
"                                                                ",
"                                                                ",
"                                                                ",
"                                                                ",
"                                                                ",
"                                                                ",
"                                                                ",
"                                                                ",
"                                                                ",
"                                                                ",
"                                                                ",
"                                                                ",
"                                                                ",
"                                                                ",
"                                                                ",
"                                                                ",
"                                                                ",
"                                                                ",
"                                                                ",
"                                                                ",
"                                                                ",
"                                                                ",
"                                                                ",
"                                                                ",
"                                                                ",
"           yyy< ,y                                              ",
"           16NBhps                                              ",
"         ,1 o4ZCCZhr1                                           ",
"       yrpparO6ZVVDljt                                          ",
"        uhZCBxtthAAbbAp<                                        ",
"          -ZCCDZheglgfd&                                        ",
"          +:BCZHAkw8ddde%                                       ",
"            -ANZHvdw8ddd>                                       ",
"            #&gZffdf7wdd9#                                      ",
"        ,$    +>9ddd9r8dd5                                      ",
"    <,Otmmmr 1= %wwwwwrwfd&      ;4;;&0m3;                      ",
"   asSUTIPPNznsu1#rtiit=wf4      %;49hSZVs                      ",
" 1xYRERIPVNNMBbfp>-<rtwrrdd-   +4qlBVBMLQ4                      ",
" =4cAFRYUIJJZMfwiewt1<rwt<8gAYKgkkkkkikQ!Ms                     ",
"    .+0q5FGMBfdwtttipt1:>116q0nkkFl:*5vNkc-                     ",
"        @+*&&>;85616;7iir11=>877bMhw>w9gs- mnGGGGGGGGGGGGGGGGGGG",
"   y     +1rqckvdf955r==<r=>f9kkAg:ir=h4o% anWWWWWWWWWWWWWWWWWWW",
"   1i32 tnFDVJMkddeweitirr:rlc77H0>r1#7Bl+   sssssssssssssssssss",
"    qKTTYRYPVkMkfdiiit78>:=6Bb6;b:=%@ *w8                       ",
"     5ARRRYPVMMkeir::=+@  #&ND;#c9=># %1<@                      ",
"      .;vPRPz9>&%*%        #gJ0 kN=rr= &e-                      ",
"       +.+4-+X  %      -8&6:gA:+4Vw=u&  4e&                     ",
"            &         .kk9fdzj+6<gn*#%   4w+                    ",
"                      5Z--;;*+ 8r%n6@    -e5;-                  ",
"                      ;m>@     ;glefd%   -:66&                  ",
"                      @=:&      ;848&    %%@                    ",
"                                                                ",
"                                                                ",
"                                                                ",
"                                                                ",
"                                                                ",
"                                                                ",
"                                                                ",
"                                                                ",
"                                                                ",
"                                                                ",
"                                                                "
};
