/* XPM */
static char *_ee57336db444bf6e2b1c6c72b0a8d54QwDfk5oCVeLh172U_43[] = {
/* columns rows colors chars-per-pixel */
"64 64 80 1 ",
"  c None",
". c black",
"X c #0A0707",
"o c #00030B",
"O c #190001",
"+ c #110519",
"@ c #290001",
"# c #340001",
"$ c #3C0101",
"% c #2C041B",
"& c #420001",
"* c #4B0004",
"= c #43000C",
"- c #4C000C",
"; c #540001",
": c #5C0202",
"> c #54010C",
", c #5B010C",
"< c #441403",
"1 c #47001C",
"2 c #540115",
"3 c #5C0115",
"4 c #441110",
"5 c #43141C",
"6 c #5C151C",
"7 c #640102",
"8 c #6C0103",
"9 c #63020C",
"0 c #6B010C",
"q c #740002",
"w c #7C0103",
"e c #700E06",
"r c #7C0F06",
"t c #74000C",
"y c #7B010B",
"u c #640114",
"i c #6C0114",
"p c #640119",
"a c #6A011A",
"s c #730113",
"d c #7A0212",
"f c #770B14",
"g c #741715",
"h c #744B4E",
"j c #820001",
"k c #8B0101",
"l c #880F03",
"z c #85020E",
"x c #880F0B",
"c c #980101",
"v c #980C01",
"b c #96020D",
"n c #970C0D",
"m c #891D05",
"M c #941702",
"N c #9C1802",
"B c #97170E",
"V c #871614",
"C c #A40101",
"Z c #AB0101",
"A c #A60C03",
"S c #B40401",
"D c #BC0201",
"F c #A81401",
"G c #A61C01",
"H c #A6180F",
"J c #B51301",
"K c #B71E01",
"L c #B91E11",
"P c #992503",
"I c #A62502",
"U c #A03C03",
"Y c #C41F01",
"T c #CD2300",
"R c #C92A02",
"E c #D32F01",
"W c #DE3601",
"Q c #EF3A02",
"! c #A05656",
"~ c #956964",
/* pixels */
"                                                                ",
"                                                                ",
"                                                                ",
"                                                                ",
"                                                                ",
"                                                                ",
"                                                                ",
"                                                                ",
"                                                                ",
"                                                                ",
"                                                                ",
"                                                                ",
"                                                                ",
"                                                                ",
"                                                                ",
"                                                                ",
"                                                                ",
"                                                                ",
"                          $     &$                              ",
"                 u3      *e     *;                              ",
"                 *IV     ev     :k                              ",
"                  ML+   .kK<    qC*                             ",
"                  $RV   &ZJ7@   kD7                             ",
"                  .WI1  8SDc@  &FDw@                            ",
"                  .ER%  kDSSe @7FGc                             ",
"                 X7WWs  kDSDl 4cIGz                             ",
"       p2        OlWWb1 tSADG.eKIGy@                            ",
"       ,BV       oFWWR1 ;ZCSZ$mIcct$                            ",
"        rTB      OcEEEg $cGAC8cCNM:                             ",
"        .KWs3    =kTYTB  eUNvjwkll;                             ",
"        .PQT3    -ySYKB  7MPNx8jjw*                             ",
"         jWWn   $*iMGZz  =wyfP8wk8                              ",
"         =EQR3   ;iPIIg   7ssl,jk,                              ",
"         &EREB1  $3yAPf  @7tyi8kj-                              ",
"         $YRTF3   >icjs   -yt3wk7                               ",
"         &cTEAx1  -ikks   $qy9jw&                               ",
"          qAJFGi  $uyjt   $up9k0                                ",
"          *GKAGV   2iwju  $up9j:    &;;                         ",
"           lGIFB2  &isjs  $u30j& 3iz3,q8,@.                     ",
"           *ZGzcz   >itw& &u3w8  =7nnxrtyzc:                    ",
"            qGtyz3  &ist;  33t7 #$,9idbMkHH7                    ",
"             eztti3  $usa- -u0>@:iASq>ijHcc6                    ",
"              >syystsu3,up>&ui&;0vIvt3ufj~!&                    ",
"               =;0yddzy0uu3*3-&,3Fc2t,ufk!h:                    ",
"                 #;9,**,iu33>,w3sNipsi3,fqwg                    ",
"                       ##->2>jk9ml->>-$&,g5                     ",
"                           @jcl9Ve23@  &u>#                     ",
"                        && $cZk9xv2p3&  ,d;                     ",
"                       $wj&0GIw#9Ne2a># $t0                     ",
"                      -wtjtxJl@,t:B,2p*  =w:#                   ",
"                      qd-7zJJ:.qtegwqa>  ;ut0;                  ",
"                      ;* @jC9  &wv8j8&*  ;**;$                  ",
"                          $@    #                               ",
"                                                                ",
"                                                                ",
"                                                                ",
"                                                                ",
"                                                                ",
"                                                                ",
"                                                                ",
"                                                                ",
"                                                                ",
"                                                                ",
"                                                                "
};
