/* XPM */
static char *_ee57336db444bf6e2b1c6c72b0a8d54QwDfk5oCVeLh172U_44[] = {
/* columns rows colors chars-per-pixel */
"64 64 71 1 ",
"  c None",
". c black",
"X c #190001",
"o c #290001",
"O c #340001",
"+ c #3C0101",
"@ c #2C041B",
"# c #420001",
"$ c #4B0004",
"% c #43000C",
"& c #4C000C",
"* c #540001",
"= c #5C0202",
"- c #54010C",
"; c #5B010C",
": c #47001C",
"> c #540115",
", c #5C0115",
"< c #5C151C",
"1 c #640102",
"2 c #6C0103",
"3 c #63020C",
"4 c #6B010C",
"5 c #740002",
"6 c #7C0103",
"7 c #700E06",
"8 c #7C0F06",
"9 c #74000C",
"0 c #7B010B",
"q c #640114",
"w c #6C0114",
"e c #640119",
"r c #6A011A",
"t c #730113",
"y c #7A0212",
"u c #770B14",
"i c #741715",
"p c #712306",
"a c #820001",
"s c #8B0101",
"d c #880F03",
"f c #85020E",
"g c #880F0B",
"h c #980101",
"j c #980C01",
"k c #96020D",
"l c #891D05",
"z c #941702",
"x c #9C1802",
"c c #97170E",
"v c #871614",
"b c #A40101",
"n c #AB0101",
"m c #A60C03",
"M c #B40401",
"N c #BC0201",
"B c #A81401",
"V c #A61C01",
"C c #A6180F",
"Z c #B51301",
"A c #B71E01",
"S c #992503",
"D c #A62502",
"F c #B83106",
"G c #C41F01",
"H c #CD2300",
"J c #C92A02",
"K c #D32F01",
"L c #DE3601",
"P c #894340",
"I c #908687",
/* pixels */
"                                                                ",
"                                                                ",
"                                                                ",
"                                                                ",
"                                                                ",
"                                                                ",
"                                                                ",
"                                                                ",
"                                                                ",
"                                                                ",
"                                                                ",
"                                                                ",
"                                                                ",
"                                                                ",
"                     a                                          ",
"                    aa       aa                                 ",
"                    aw       s9                                 ",
"                    xC        bt,                               ",
"                    AL>       nD>        e                      ",
"         aa       6aHL<      sMmt        9                      ",
"          bz      aGKAw     pVMbf:       jy                     ",
"          BF=     jKJhw    6jMBD5X      dAf                     ",
"         =VLl    6AHZDi    SNMDS;      8xNf                     ",
"         aKLS    hHAVS7   6BNVBs#     8nZVf                     ",
"         aLLV4  5mGSSs*  6hNDbj4+    6lAnj0                     ",
"         sJHA9e sVDVsf&  dDxbsd3     amBDzw                     ",
"         hGJKk> ammh95O 5jmxxww$     sDSa0,                     ",
"         VLGZk> 9mDat-  amSzgwe#     DVd9e&                     ",
"         CLAShe 9hl65#  sBS69q#     yVx9tq+                     ",
"         fAbBst 4s604+  vVs69&      ub0ww&                      ",
"         tVxhat ;a9tq+  cxatwO  =  *wa9wq+                      ",
"         @kDSat *0w0$   cl90-   gz 1s,0w&                       ",
"         o8Vd6w $99t$   90w0$   +jg+shq-                        ",
"          -h6tq- 16w&   w90wO    =kh;z4#                        ",
"          %w9te$ *t9$   ;t0;     19gggmz*                       ",
"           -9te# O9t%   *0t&     +34zVVx1                       ",
"           +9te-  *9,+  $9r&     #;4dxbz+                       ",
"            -te-  +4w+  #e,#     o#qusIP+                       ",
"            o4w,#  &r-  #e>     .=2;tsPi=                       ",
"             #qe$  +q,+ O-,    #8j0;-451                        ",
"              -r,o  &q$  -,   3Bmziq#,,                         ",
"               -r-   &q# $-  #8ZVzVsqq*                         ",
"                &q-   >- #;$ -dVl4as4=9+                        ",
"                 #q-   -$+;- ;jV;qwq$3y$                        ",
"                  #,-$  &#O%+&kx$>-&o2f+                        ",
"                   +-;-$Odhd%=x;#$+*=*w-                        ",
"                     +-;-zMB74b*##=6y,14                        ",
"                       ##wt92dg&,erq,,2w+                       ",
"                        #,,-&l8%,,,>*;;9#                       ",
"                         +$-$S1o$---&#O5=                       ",
"                          #o1g##&,#+   ,9=-                     ",
"                         $4sk0j7#,,$# *wq2$#                    ",
"                          #2212O####  ##                        ",
"                                                                ",
"                                                                ",
"                                                                ",
"                                                                ",
"                                                                ",
"                                                                ",
"                                                                ",
"                                                                ",
"                                                                ",
"                                                                ",
"                                                                "
};
