/* XPM */
static char *_ee57336db444bf6e2b1c6c72b0a8d54QwDfk5oCVeLh172U_5[] = {
/* columns rows colors chars-per-pixel */
"64 64 119 2 ",
"   c None",
".  c black",
"X  c #0A0707",
"o  c #00030B",
"O  c #190001",
"+  c #160F06",
"@  c #001F03",
"#  c #000219",
"$  c #110519",
"%  c #00171C",
"&  c #290001",
"*  c #340001",
"=  c #3C0101",
"-  c #2C041B",
";  c #3C3200",
":  c #010126",
">  c #00033B",
",  c #002A21",
"<  c #062F39",
"1  c #3C3732",
"2  c #4B0004",
"3  c #540001",
"4  c #5B010C",
"5  c #441403",
"6  c #47001C",
"7  c #441110",
"8  c #640102",
"9  c #6B010C",
"0  c #7C0103",
"q  c #700E06",
"w  c #74000C",
"e  c #741715",
"r  c #422817",
"t  c #712306",
"y  c #663A0F",
"u  c #7A3E0D",
"i  c #57002A",
"p  c #5B2823",
"a  c #5B3D31",
"s  c #712428",
"d  c #734331",
"f  c #180C41",
"g  c #000451",
"h  c #22105A",
"j  c #06374E",
"k  c #2D3F45",
"l  c #364C5D",
"z  c #434244",
"x  c #594A49",
"c  c #575357",
"v  c #744B4E",
"b  c #5D6770",
"n  c #8B0101",
"m  c #85020E",
"M  c #980C01",
"N  c #96020D",
"B  c #891D05",
"V  c #941702",
"C  c #AB0101",
"Z  c #B40401",
"A  c #BB0518",
"S  c #9E3F1E",
"D  c #A03C03",
"F  c #C41F01",
"G  c #D32F01",
"H  c #CB3604",
"J  c #DE3601",
"K  c #D83624",
"L  c #834101",
"P  c #86441F",
"I  c #A75901",
"U  c #8C7E02",
"Y  c #A45F20",
"T  c #9B7937",
"R  c #A1633F",
"E  c #C15B06",
"W  c #D75204",
"Q  c #DF6707",
"!  c #E47A07",
"~  c #C15B23",
"^  c #DC5826",
"/  c #C17A3A",
"(  c #894340",
")  c #895D41",
"_  c #B17D5C",
"`  c #956964",
"'  c #8F7967",
"]  c #A87F73",
"[  c #BF962E",
"{  c #C39E0F",
"}  c #EB9A07",
"|  c #C9B104",
" . c #E0BF05",
".. c #FBB50A",
"X. c #DE9A2E",
"o. c #E6B42B",
"O. c #FACB07",
"+. c #FEF700",
"@. c #EFC93D",
"#. c #BA8578",
"$. c #BE9C73",
"%. c #D3825A",
"&. c #D89F6A",
"*. c #D5AC6A",
"=. c #F4B163",
"-. c #756A85",
";. c #818183",
":. c #908687",
">. c #999898",
",. c #B69C96",
"<. c #A7A9AD",
"1. c #BCB1B2",
"2. c #D89E87",
"3. c #D7B288",
"4. c #F5B580",
"5. c #DBB5A9",
"6. c #F4D189",
"7. c #FBE3AA",
"8. c #CCCCCD",
/* pixels */
"                                                                                                                                ",
"                                                                                                                                ",
"                                                                                                                                ",
"                                                                                                                                ",
"                                                                                                                                ",
"                                                                                                                                ",
"                                                                                                                                ",
"                                                                                                                                ",
"                                                                                                                                ",
"                                                                                                                                ",
"                                                                                                                                ",
"                                                                                                                                ",
"                                                                                                                                ",
"                                                                                                                                ",
"                                                                                                                                ",
"                                                                                                                                ",
"                                                                                                                                ",
"                                                                                                                                ",
"                                                                                                                                ",
"                                                                                                                                ",
"                                                                                                                                ",
"                                                                                                                                ",
"                                                                                                                                ",
"                                                                                                                                ",
"                                                                #._ ] ] n                                                       ",
"                                                            V #.2.3.o.@.D S                                                     ",
"                                                            M $.6.+. .+.O.I                                                     ",
"                                                            S U [ @.{ | { I I                                                   ",
"                                                          . o g j > <.8.<.-.8                                                   ",
"                                                  X X X . + . Y ) c ;.1.>.b                                                     ",
"                                              X     X X X + . Y X.7.,.=.` .                                                     ",
"                                              . X .   X X X   . P =.7.6.`                                                       ",
"                                                  X X X       y < d / p . a a                                                   ",
"                                                          # a 4./ . l z * / 4.'                                                 ",
"                                                        z < $.6.~ > k z 1 &.=.R                                                 ",
"                                                      . c k _ %.U T ( 1 # P R .                                                 ",
"                                                        1 x . L O.O.X.i 0 # k 1                                                 ",
"                                                          &   S } +.o.s C % r                                                   ",
"                                                              O Q ..o.) q =                                                     ",
"                                                              # 6 a 1 a 5 @                                                     ",
"                                                              * } ..W W W B #                                                   ",
"                                                              c 2.o.} ~ D ! u                                                   ",
"                                                            . ;.8.1.( 2 P W E ,                                                 ",
"                                                            ; *.5.:.. , M H ^ e                                                 ",
"                                                          . Y ..W m     3 Z Q D                                                 ",
"                                                          u ..K A 5       N F W 4                                               ",
"                                                        t ..} Z t         N J G *                                               ",
"                                                        y ! W n @         9 0 w -                                               ",
"                                                        % : 5 o           . % %                                                 ",
"                                                      : > < o             f h f f y                                             ",
"                                                    y R ] v .             $ f g z Y 7                                           ",
"                                                    r P ) y                                                                     ",
"                                                                                                                                ",
"                                                                                                                                ",
"                                                                                                                                ",
"                                                                                                                                ",
"                                                                                                                                ",
"                                                                                                                                ",
"                                                                                                                                ",
"                                                                                                                                ",
"                                                                                                                                ",
"                                                                                                                                ",
"                                                                                                                                ",
"                                                                                                                                "
};
