/* XPM */
static char *_ee57336db444bf6e2b1c6c72b0a8d54QwDfk5oCVeLh172U_6[] = {
/* columns rows colors chars-per-pixel */
"64 64 120 2 ",
"   c None",
".  c black",
"X  c #0A0707",
"o  c #00030B",
"O  c #001F03",
"+  c #000219",
"@  c #110519",
"#  c #00171C",
"$  c #161617",
"%  c #290001",
"&  c #340001",
"*  c #231805",
"=  c #2C041B",
"-  c #3C3200",
";  c #010126",
":  c #00033B",
">  c #002A21",
",  c #062F39",
"<  c #262727",
"1  c #3C3732",
"2  c #4B0004",
"3  c #4C000C",
"4  c #540001",
"5  c #5B010C",
"6  c #441403",
"7  c #441110",
"8  c #43141C",
"9  c #5C151C",
"0  c #640102",
"q  c #6C0103",
"w  c #6B010C",
"e  c #7C0103",
"r  c #700E06",
"t  c #74000C",
"y  c #741715",
"u  c #422817",
"i  c #712306",
"p  c #663A0F",
"a  c #7A3E0D",
"s  c #402829",
"d  c #5B3D31",
"f  c #734331",
"g  c #180C41",
"h  c #000451",
"j  c #22105A",
"k  c #06374E",
"l  c #434244",
"z  c #594A49",
"x  c #49545A",
"c  c #575357",
"v  c #744B4E",
"b  c #5D6770",
"n  c #8B0101",
"m  c #85020E",
"M  c #980C01",
"N  c #96020D",
"B  c #891D05",
"V  c #941702",
"C  c #AB0101",
"Z  c #B40401",
"A  c #BB0518",
"S  c #9E3F1E",
"D  c #A03C03",
"F  c #C41F01",
"G  c #D32F01",
"H  c #CB3604",
"J  c #DE3601",
"K  c #D83624",
"L  c #86441F",
"P  c #A75901",
"I  c #8C7E02",
"U  c #8E5822",
"Y  c #A45F20",
"T  c #A1633F",
"R  c #C15B06",
"E  c #D75204",
"W  c #DF6707",
"Q  c #E47A07",
"!  c #C15B23",
"~  c #DC5826",
"^  c #DE7B25",
"/  c #C17A3A",
"(  c #894340",
")  c #895D41",
"_  c #B17D5C",
"`  c #956964",
"'  c #8F7967",
"]  c #A87F73",
"[  c #BF962E",
"{  c #C39E0F",
"}  c #EB9A07",
"|  c #C9B104",
" . c #E0BF05",
".. c #FBB50A",
"X. c #DE9A2E",
"o. c #E6B42B",
"O. c #FACB07",
"+. c #FEF700",
"@. c #EFC93D",
"#. c #BA8578",
"$. c #BE9C73",
"%. c #D3825A",
"&. c #D5AC6A",
"*. c #F4B163",
"=. c #756A85",
"-. c #818183",
";. c #908687",
":. c #999898",
">. c #B69C96",
",. c #A7A9AD",
"<. c #BCB1B2",
"1. c #D89E87",
"2. c #D7B288",
"3. c #F5B580",
"4. c #F3B091",
"5. c #DBB5A9",
"6. c #F4D189",
"7. c #FBE3AA",
"8. c #CCCCCD",
"9. c #F7E0D4",
/* pixels */
"                                                                                                                                ",
"                                                                                                                                ",
"                                                                                                                                ",
"                                                                                                                                ",
"                                                                                                                                ",
"                                                                                                                                ",
"                                                                                                                                ",
"                                                                                                                                ",
"                                                                                                                                ",
"                                                                                                                                ",
"                                                                                                                                ",
"                                                                                                                                ",
"                                                                                                                                ",
"                                                                                                                                ",
"                                                                                                                                ",
"                                                                                                                                ",
"                                                                                                                                ",
"                                                                                                                                ",
"                                                                                                                                ",
"                                                                                                                                ",
"                                                                                                                                ",
"                                                                                                                                ",
"                                                                                                                                ",
"                                                                                                                                ",
"                                                                #._ ] ] n                                                       ",
"                                                            V #.1.2.o.@.D S                                                     ",
"                                                            M $.6.+. .+.O.P                                                     ",
"                                                          % L I [ @.{ | { P P                                                   ",
"                                                        X . o h k : ,.8.,.=.0                                                   ",
"                                                      X . * . Y ) c -.<.:.b                                                     ",
"                                                X X X X X *   Y X.9.>.*.` .                                                     ",
"                                                        X     . L *.6.$.'                                                       ",
"                                                . X . .     $ u , 8 #.%..                                                       ",
"                                                  X X     . l z < d 4.*.U .                                                     ",
"                                                          < l < s 3.7.4./ , 1                                                   ",
"                                                          < x c x _ _ ) ) x l                                                   ",
"                                                          o l l $ r 0 . 9 l <                                                   ",
"                                                            . q } O.^ f C .                                                     ",
"                                                              3 Q O.o.) r 7                                                     ",
"                                                              + = d 1 d 6 O                                                     ",
"                                                              & } ..E E E B +                                                   ",
"                                                              c 1.o.} ! D Q a                                                   ",
"                                                            . -.8.<.( 2 L E R >                                                 ",
"                                                            - &.5.;.. > M H ~ y                                                 ",
"                                                          . Y ..E m     4 Z W D                                                 ",
"                                                          a ..K A 6       N F E 5                                               ",
"                                                        i ..} Z i         N J G &                                               ",
"                                                        p Q E n O         w e t =                                               ",
"                                                        # ; 6 o           . # #                                                 ",
"                                                      ; : , o             g j g g p                                             ",
"                                                    p T ] v .             @ g h l Y 7                                           ",
"                                                    u L ) p                                                                     ",
"                                                                                                                                ",
"                                                                                                                                ",
"                                                                                                                                ",
"                                                                                                                                ",
"                                                                                                                                ",
"                                                                                                                                ",
"                                                                                                                                ",
"                                                                                                                                ",
"                                                                                                                                ",
"                                                                                                                                ",
"                                                                                                                                ",
"                                                                                                                                "
};
