/* XPM */
static char *_ee57336db444bf6e2b1c6c72b0a8d54QwDfk5oCVeLh172U_7[] = {
/* columns rows colors chars-per-pixel */
"64 64 118 2 ",
"   c None",
".  c black",
"X  c #0A0707",
"o  c #00030B",
"O  c #190001",
"+  c #160F06",
"@  c #001F03",
"#  c #000219",
"$  c #110519",
"%  c #00171C",
"&  c #290001",
"*  c #340001",
"=  c #3C0101",
"-  c #291819",
";  c #010126",
":  c #00033B",
">  c #002A21",
",  c #062F39",
"<  c #262727",
"1  c #3C3732",
"2  c #420001",
"3  c #540001",
"4  c #5C0202",
"5  c #441403",
"6  c #47001C",
"7  c #441110",
"8  c #43141C",
"9  c #640102",
"0  c #63020C",
"q  c #6B010C",
"w  c #740002",
"e  c #7C0103",
"r  c #700E06",
"t  c #74000C",
"y  c #422817",
"u  c #663A0F",
"i  c #7A3E0D",
"p  c #402829",
"a  c #5B2823",
"s  c #5B3D31",
"d  c #734331",
"f  c #180C41",
"g  c #000451",
"h  c #06374E",
"j  c #2D3F45",
"k  c #434244",
"l  c #49545A",
"z  c #575357",
"x  c #744B4E",
"c  c #5D6770",
"v  c #85020E",
"b  c #980C01",
"n  c #96020D",
"m  c #871614",
"M  c #AB0101",
"N  c #A60C03",
"B  c #B40401",
"V  c #992503",
"C  c #9E3F1E",
"Z  c #A03C03",
"A  c #87272A",
"S  c #B93826",
"D  c #D32F01",
"F  c #CB3604",
"G  c #834101",
"H  c #86441F",
"J  c #A75901",
"K  c #8C7E02",
"L  c #8E5822",
"P  c #A45F20",
"I  c #9B7937",
"U  c #A1633F",
"Y  c #C15B06",
"T  c #D75204",
"R  c #F26005",
"E  c #E47A07",
"W  c #DE7B25",
"Q  c #C17A3A",
"!  c #895D41",
"~  c #B17D5C",
"^  c #956964",
"/  c #8F7967",
"(  c #A87F73",
")  c #BF962E",
"_  c #C39E0F",
"`  c #FB8004",
"'  c #EB9A07",
"]  c #C9B104",
"[  c #FBB50A",
"{  c #DE9A2E",
"}  c #E6B42B",
"|  c #FACB07",
" . c #FEF700",
".. c #EFC93D",
"X. c #FBE739",
"o. c #BA8578",
"O. c #BE9C73",
"+. c #D3825A",
"@. c #F4B163",
"#. c #F1D45F",
"$. c #818183",
"%. c #908687",
"&. c #999898",
"*. c #B69C96",
"=. c #A7A9AD",
"-. c #BCB1B2",
";. c #D89E87",
":. c #D7B288",
">. c #F5B580",
",. c #F3B091",
"<. c #DBB5A9",
"1. c #F4D189",
"2. c #F2C7A4",
"3. c #F2C8B8",
"4. c #FBE3AA",
"5. c #B3B7C4",
"6. c #CCCCCD",
"7. c #F7E0D4",
/* pixels */
"                                                                                                                                ",
"                                                                                                                                ",
"                                                                                                                                ",
"                                                                                                                                ",
"                                                                                                                                ",
"                                                                                                                                ",
"                                                                                                                                ",
"                                                                                                                                ",
"                                                                                                                                ",
"                                                                                                                                ",
"                                                                                                                                ",
"                                                                                                                                ",
"                                                                                                                                ",
"                                                                                                                                ",
"                                                                                                                                ",
"                                                                                                                                ",
"                                                                                                                                ",
"                                                                                                                                ",
"                                                                                                                                ",
"                                                                                                                                ",
"                                                                                                                                ",
"                                                                                                                                ",
"                                                                                                                                ",
"                                                                                                                                ",
"                                                                ( o.o.~ Z                                                       ",
"                                                              Z <.*.3.) ] C                                                     ",
"                                                            Z _ ..X.#. .] Y J                                                   ",
"                                                      o +   C I _ ..] ] K G                                                     ",
"                                                  X X X o X # g h : =.6.5.c                                                     ",
"                                                X X   . X + . L ! z $.-.&.c                                                     ",
"                                                X     X X   o P { 7.*.@.^ .                                                     ",
"                                                    X .       . ! @.1.O./                                                       ",
"                                                  X .         - , 8 o.+..                                                       ",
"                                                  X X     . < z < s ,.@.L .                                                     ",
"                                                          < k k p >.4.,.Q , p                                                   ",
"                                                          < z z l ~ ~ ! d l 1                                                   ",
"                                                          . k j ; r 9 2 q > O                                                   ",
"                                                            . e ' | W d M .                                                     ",
"                                                              r E | } ! r 7                                                     ",
"                                                              # # 6 1 s 5 @                                                     ",
"                                                              4 E | E T T V o                                                   ",
"                                                              x ;...[ S Y R t                                                   ",
"                                                            . =.6.-.A 3 m T Y *                                                 ",
"                                                            a :.2.%.. > b F T Z                                                 ",
"                                                          . Y | E v     3 B T Y o                                               ",
"                                                          v [ W n @       n D R 7                                               ",
"                                                        i [ ` B 0         N T T *                                               ",
"                                                        u E T t           q w t -                                               ",
"                                                        % ; = &           . % %                                                 ",
"                                                      ; : , o             f f f f u                                             ",
"                                                    u U ( x .             $ f g k P 7                                           ",
"                                                    y H ! u                                                                     ",
"                                                                                                                                ",
"                                                                                                                                ",
"                                                                                                                                ",
"                                                                                                                                ",
"                                                                                                                                ",
"                                                                                                                                ",
"                                                                                                                                ",
"                                                                                                                                ",
"                                                                                                                                ",
"                                                                                                                                ",
"                                                                                                                                ",
"                                                                                                                                "
};
