/* XPM */
static char *_ee57336db444bf6e2b1c6c72b0a8d54QwDfk5oCVeLh172U_8[] = {
/* columns rows colors chars-per-pixel */
"64 64 108 2 ",
"   c None",
".  c black",
"X  c #00030B",
"o  c #190001",
"O  c #160F06",
"+  c #001F03",
"@  c #000219",
"#  c #110519",
"$  c #00171C",
"%  c #010126",
"&  c #002A21",
"*  c #062F39",
"=  c #3C3732",
"-  c #420001",
";  c #4C000C",
":  c #540001",
">  c #43141C",
",  c #5C151C",
"<  c #640102",
"1  c #63020C",
"2  c #640114",
"3  c #6A011A",
"4  c #422817",
"5  c #663A0F",
"6  c #7A3E0D",
"7  c #660032",
"8  c #5B2823",
"9  c #5B3D31",
"0  c #734331",
"q  c #000451",
"w  c #06374E",
"e  c #2D3F45",
"r  c #06575A",
"t  c #434244",
"y  c #594A49",
"u  c #49545A",
"i  c #575357",
"p  c #5C5F5C",
"a  c #744B4E",
"s  c #5D6770",
"d  c #736461",
"f  c #75736E",
"g  c #820001",
"h  c #980101",
"j  c #891D05",
"k  c #B40401",
"l  c #BC0201",
"z  c #A81401",
"x  c #A61C01",
"c  c #B51301",
"v  c #BB0518",
"b  c #992503",
"n  c #9E3F1E",
"m  c #A03C03",
"M  c #B93826",
"N  c #834101",
"B  c #956002",
"V  c #8C7E02",
"C  c #8E5822",
"Z  c #A45F20",
"A  c #9B7937",
"S  c #A1633F",
"D  c #C15B06",
"F  c #D75204",
"G  c #E47A07",
"H  c #C15B23",
"J  c #FD553A",
"K  c #DE7B25",
"L  c #C17A3A",
"P  c #894340",
"I  c #895D41",
"U  c #BE4F43",
"Y  c #B17D5C",
"T  c #956964",
"R  c #8F7967",
"E  c #BE8009",
"W  c #BF962E",
"Q  c #C39E0F",
"!  c #FB8004",
"~  c #C9B104",
"^  c #E0BF05",
"/  c #FBB50A",
"(  c #DE9A2E",
")  c #FACB07",
"_  c #EFC93D",
"`  c #FBE739",
"'  c #BA8578",
"]  c #BE9C73",
"[  c #D89F6A",
"{  c #F4B163",
"}  c #F1D45F",
"|  c #FDF07A",
" . c #617881",
".. c #818183",
"X. c #908687",
"o. c #B69C96",
"O. c #A7A9AD",
"+. c #D7B288",
"@. c #F5B580",
"#. c #F3B091",
"$. c #F2B69F",
"%. c #DBB5A9",
"&. c #F4D189",
"*. c #F2C7A4",
"=. c #FBE3AA",
"-. c #CCCCCD",
";. c #F7E0D4",
":. c #F0F2F2",
/* pixels */
"                                                                                                                                ",
"                                                                                                                                ",
"                                                                                                                                ",
"                                                                                                                                ",
"                                                                                                                                ",
"                                                                                                                                ",
"                                                                                                                                ",
"                                                                                                                                ",
"                                                                                                                                ",
"                                                                                                                                ",
"                                                                                                                                ",
"                                                                                                                                ",
"                                                                                                                                ",
"                                                                                                                                ",
"                                                                                                                                ",
"                                                                                                                                ",
"                                                                                                                                ",
"                                                                                                                                ",
"                                                                                                                                ",
"                                                                                                                                ",
"                                                                                                                                ",
"                                                                                                                                ",
"                                                                                                                                ",
"                                                                                                                                ",
"                                                                                                                                ",
"                                                                                                                                ",
"                                                                                                                                ",
"                                                                                                                                ",
"                                                                                                                                ",
"                                                                                                                                ",
"                                                                                                                                ",
"                                                                                                                                ",
"                                                                                                                                ",
"                                                                                                                                ",
"                                                                                                                                ",
"                                                                                                                                ",
"                                                                                                                                ",
"                                                                                                                                ",
"                                                                                                                                ",
"                                                                                                                                ",
"                                                                          # 5 5 :                                               ",
"                                                                    X j D ! G H 6 X                                             ",
"                                                                  $ D ! ! H a w * 9 C @ #                                       ",
"                                                                j 9 ! ! P r p d B A 1 B ~ Q n                                   ",
"                                                              # K 0 H K & p i T =.] A { _ | ^ C                                 ",
"                                                              V / D 7 n t p p p +.B ^ ;.$.=.} D                                 ",
"                                                        . Z . ] | J g e p p y = o S #.&.{ { =.W                                 ",
"                                                      . H ! x O.-.U 8 p t 4 z k 3 N =.| &.| ` W                                 ",
"                                                      & K l T :.%.i O i p a h l b - ( / =.*.) E                                 ",
"                                                    o q 8 h c ` G 2 + @ A @.S n M ; Z G L [ L Y I                               ",
"                                                    % i T R ' F v >   X.%.] +.o.P :   < d o.m o.o.s                             ",
"                                                    % = I R s . ,     f ..u  .i                                                 ",
"                                                                                                                                ",
"                                                                                                                                ",
"                                                                                                                                ",
"                                                                                                                                ",
"                                                                                                                                ",
"                                                                                                                                ",
"                                                                                                                                ",
"                                                                                                                                ",
"                                                                                                                                ",
"                                                                                                                                ",
"                                                                                                                                ",
"                                                                                                                                "
};
