/* XPM */
static char *_ee57336db444bf6e2b1c6c72b0a8d54QwDfk5oCVeLh172U_9[] = {
/* columns rows colors chars-per-pixel */
"64 64 121 2 ",
"   c None",
".  c black",
"X  c #00030B",
"o  c #001F03",
"O  c #000219",
"+  c #00171C",
"@  c #290001",
"#  c #231805",
"$  c #291819",
"%  c #002A21",
"&  c #062F39",
"*  c #262727",
"=  c #420001",
"-  c #4C000C",
";  c #540001",
":  c #5C0202",
">  c #47001C",
",  c #441110",
"<  c #5C151C",
"1  c #640102",
"2  c #700E06",
"3  c #7C0F06",
"4  c #730113",
"5  c #741715",
"6  c #542801",
"7  c #663A0F",
"8  c #7A3E0D",
"9  c #40093E",
"0  c #402829",
"q  c #5B2823",
"w  c #5B3D31",
"e  c #734331",
"r  c #000451",
"t  c #06374E",
"y  c #2D3F45",
"u  c #364C5D",
"i  c #434244",
"p  c #594A49",
"a  c #49545A",
"s  c #575357",
"d  c #5C5F5C",
"f  c #744B4E",
"g  c #5D6770",
"h  c #736461",
"j  c #75736E",
"k  c #820001",
"l  c #85020E",
"z  c #980101",
"x  c #970C0D",
"c  c #891D05",
"v  c #97170E",
"b  c #AB0101",
"n  c #B40401",
"m  c #BC0201",
"M  c #A81401",
"N  c #BB0518",
"B  c #B91E11",
"V  c #9E3F1E",
"C  c #A03C03",
"Z  c #B83106",
"A  c #B93826",
"S  c #D9031C",
"D  c #DD1E1B",
"F  c #FF1D05",
"G  c #EE0318",
"H  c #FF011B",
"J  c #F00D1B",
"K  c #FF0D21",
"L  c #FF1222",
"P  c #FF1D23",
"I  c #FE2B2C",
"U  c #834101",
"Y  c #A75901",
"T  c #956002",
"R  c #8C7E02",
"E  c #8E5822",
"W  c #A45F20",
"Q  c #9B7937",
"!  c #A1633F",
"~  c #C15B06",
"^  c #D75204",
"/  c #F26005",
"(  c #E47A07",
")  c #C15B23",
"_  c #DE7B25",
"`  c #C17A3A",
"'  c #894340",
"]  c #895D41",
"[  c #A05656",
"{  c #B17D5C",
"}  c #956964",
"|  c #8F7967",
" . c #A87F73",
".. c #BE8009",
"X. c #BF962E",
"o. c #C39E0F",
"O. c #FB8004",
"+. c #EB9A07",
"@. c #DE9A2E",
"#. c #E6B42B",
"$. c #FACB07",
"%. c #FEF700",
"&. c #EFC93D",
"*. c #BE9C73",
"=. c #D89F6A",
"-. c #D5AC6A",
";. c #F4B163",
":. c #F1D45F",
">. c #FDF07A",
",. c #617881",
"<. c #818183",
"1. c #908687",
"2. c #B69C96",
"3. c #A7A9AD",
"4. c #BCB1B2",
"5. c #D7B288",
"6. c #F5B580",
"7. c #DBB5A9",
"8. c #F4D189",
"9. c #FBE3AA",
"0. c #F7E0D4",
/* pixels */
"                                                                                                                                ",
"                                                                                                                                ",
"                                                                                                                                ",
"                                                                                                                                ",
"                                                                                                                                ",
"                                                                                                                                ",
"                                                                                                                                ",
"                                                                                                                                ",
"                                                                                                                                ",
"                                                                                                                                ",
"                                                                                                                                ",
"                                                                                                                                ",
"                                                                                                                                ",
"                                                                                                                                ",
"                                                                                                                                ",
"                                                                                                                                ",
"                                                                                                                                ",
"                                                          K                                                                     ",
"                                                L L L   L L L L L                                                               ",
"                                                K L L L L K L L L L L                                                           ",
"                                                L L L L L L L L L L L                     K                                     ",
"                                                K K L L K L L L L L L                     L K                                   ",
"                                                  K K L             L     K K             L L                                   ",
"                                                    K L       L   K L   L L L K           L L                                   ",
"                                                            L L   L K L L     L L         L L                                   ",
"                                                      L     L L L L L K L L L   L         L L                                   ",
"                                                      L L L L L L L L   L L L L L         L L                                   ",
"                                                    K L L L K K L K             L L       L K                                   ",
"                                                K K L L L L K   L       L L                                                     ",
"                                              K L L L L L L               L L   L         K                                     ",
"                                              L L L K L L L                 L   L K           K                                 ",
"                                              K L L   L L L                       L   L L   L L                                 ",
"                                              L L     L K L     L L L                 L K                                       ",
"                                              K       L   K   K L L L L         L     K L                                       ",
"                                                      L   L         L L         L L K L                                         ",
"                                                          L K         K         L   L L                                         ",
"                                                            L                   L   K                                           ",
"                                                                            L       J   L                                       ",
"                                                            L       L L     L N J D #   L L                                     ",
"                                                  L     L   L     K L P P H H b N N 2   K L                                     ",
"                                                  L   L L   L K K L K G > 5 8 7 .   c   K L                                     ",
"                                                  L K K L   L K L J v T ~ _ ( ) w $ . o I P                                     ",
"                                                  K L       K L l % ( O./ ! } p t + # X 4                                       ",
"                                                    L       L N 3 e O.O.' u d u ] .., T o.X.T                                   ",
"                                                    K K   L P O O.E ~ _ y p s W +...W @.%.%.+.U                                 ",
"                                                      L H K S R $.^ < V * d g h +.8 +.:.8.:.@.C                                 ",
"                                                    L H B W . -.:.m c & d d p w : e 7.#.9.0.>...                                ",
"                                                    L - W ^ k 3.4.Z q s i $ M b q 1 9.5.+.&.&...                                ",
"                                                      + ) m [ 9.2.h 6 a d f z m C : X.0.9.-...Y                                 ",
"                                                  L b r 9 z m $._ l o O Q 6.! V A = W ;.#.-.=.{ ]                               ",
"                                                  F x u {  . .n m 5   1.7.*.5.2.' =   C ; Q ` 2.2.g                             ",
"                                                    > 0 ] | g @ <     j <.a ,.s                                                 ",
"                                                                                                                                ",
"                                                                                                                                ",
"                                                                                                                                ",
"                                                                                                                                ",
"                                                                                                                                ",
"                                                                                                                                ",
"                                                                                                                                ",
"                                                                                                                                ",
"                                                                                                                                ",
"                                                                                                                                ",
"                                                                                                                                ",
"                                                                                                                                "
};
